mtllib nweventshow2023.mtl

o BG building
usemtl 0xB1C6CE
v 9.042 -4.214 4.224
v 9.046 -4.027 4.224
v 9.256 -4.03 4.224
v 9.251 -2.46 4.224
v 9.226 3.612 4.224
v 9.222 4.536 4.224
v 9.096 4.64 4.224
v 9.086 6.647 4.224
v 7.493 6.64 4.224
v 7.497 6.398 4.224
v 6.948 6.397 4.224
v 6.666 6.635 4.224
v 6.558 6.397 4.224
v 6.228 6.398 4.224
v 6.224 6.737 4.224
v 6.005 6.735 4.224
v 6.01 7.079 4.224
v -0.573 7.052 4.224
v -0.572 6.601 4.224
v -1.655 6.597 4.224
v -4.442 6.587 4.224
v -4.939 6.581 4.224
v -4.932 5.439 4.224
v -8.067 5.419 4.224
v -8.053 4.83 4.224
v -8.481 4.831 4.224
v -8.475 4.042 4.224
v -8.406 4.048 4.224
v -8.406 3.56 4.224
v -8.472 3.568 4.224
v -8.471 3.117 4.224
v -8.402 3.124 4.224
v -8.402 2.636 4.224
v -8.468 2.643 4.224
v -8.469 2.021 4.224
v -8.394 2.018 4.224
v -8.408 1.083 4.224
v -8.347 1.084 4.224
v -8.35 0.484 4.224
v -8.411 0.483 4.224
v -8.398 -0.631 4.224
v -8.291 -0.626 4.224
v -8.289 -2.015 4.224
v -8.447 -2.016 4.224
v -8.446 -4.029 4.224
v -8.019 -4.029 4.224
v -8.017 -4.285 4.224
v -7.613 -4.288 4.224
v -4.952 -4.272 4.224
v -4.515 -4.267 4.224
v -4.512 -3.96 4.224
v -2.198 -3.954 4.224
v -2.201 -4.261 4.224
v -0.329 -4.25 4.224
v 9.042 -4.214 4.224
v 9.042 -4.214 4.224
v 9.042 -4.214 4.224
v 9.042 -4.214 0
v 9.046 -4.027 4.224
v 9.046 -4.027 0
v 9.256 -4.03 4.224
v 9.256 -4.03 0
v 9.251 -2.46 4.224
v 9.251 -2.46 0
v 9.226 3.612 4.224
v 9.226 3.612 0
v 9.222 4.536 4.224
v 9.222 4.536 0
v 9.096 4.64 4.224
v 9.096 4.64 0
v 9.086 6.647 4.224
v 9.086 6.647 0
v 7.493 6.64 4.224
v 7.493 6.64 0
v 7.497 6.398 4.224
v 7.497 6.398 0
v 6.948 6.397 4.224
v 6.948 6.397 0
v 6.666 6.635 4.224
v 6.666 6.635 0
v 6.558 6.397 4.224
v 6.558 6.397 0
v 6.228 6.398 4.224
v 6.228 6.398 0
v 6.224 6.737 4.224
v 6.224 6.737 0
v 6.005 6.735 4.224
v 6.005 6.735 0
v 6.01 7.079 4.224
v 6.01 7.079 0
v -0.573 7.052 4.224
v -0.573 7.052 0
v -0.572 6.601 4.224
v -0.572 6.601 0
v -1.655 6.597 4.224
v -1.655 6.597 0
v -4.442 6.587 4.224
v -4.442 6.587 0
v -4.939 6.581 4.224
v -4.939 6.581 0
v -4.932 5.439 4.224
v -4.932 5.439 0
v -8.067 5.419 4.224
v -8.067 5.419 0
v -8.053 4.83 4.224
v -8.053 4.83 0
v -8.481 4.831 4.224
v -8.481 4.831 0
v -8.475 4.042 4.224
v -8.475 4.042 0
v -8.406 4.048 4.224
v -8.406 4.048 0
v -8.406 3.56 4.224
v -8.406 3.56 0
v -8.472 3.568 4.224
v -8.472 3.568 0
v -8.471 3.117 4.224
v -8.471 3.117 0
v -8.402 3.124 4.224
v -8.402 3.124 0
v -8.402 2.636 4.224
v -8.402 2.636 0
v -8.468 2.643 4.224
v -8.468 2.643 0
v -8.469 2.021 4.224
v -8.469 2.021 0
v -8.394 2.018 4.224
v -8.394 2.018 0
v -8.408 1.083 4.224
v -8.408 1.083 0
v -8.347 1.084 4.224
v -8.347 1.084 0
v -8.35 0.484 4.224
v -8.35 0.484 0
v -8.411 0.483 4.224
v -8.411 0.483 0
v -8.398 -0.631 4.224
v -8.398 -0.631 0
v -8.291 -0.626 4.224
v -8.291 -0.626 0
v -8.289 -2.015 4.224
v -8.289 -2.015 0
v -8.447 -2.016 4.224
v -8.447 -2.016 0
v -8.446 -4.029 4.224
v -8.446 -4.029 0
v -8.019 -4.029 4.224
v -8.019 -4.029 0
v -8.017 -4.285 4.224
v -8.017 -4.285 0
v -7.613 -4.288 4.224
v -7.613 -4.288 0
v -4.952 -4.272 4.224
v -4.952 -4.272 0
v -4.515 -4.267 4.224
v -4.515 -4.267 0
v -4.512 -3.96 4.224
v -4.512 -3.96 0
v -2.198 -3.954 4.224
v -2.198 -3.954 0
v -2.201 -4.261 4.224
v -2.201 -4.261 0
v -0.329 -4.25 4.224
v -0.329 -4.25 0
v 9.042 -4.214 4.224
v 9.042 -4.214 0
v 9.042 -4.214 4.224
v 9.042 -4.214 0

f -167 -166 -165
f -165 -164 -163
f -162 -161 -160
f -158 -157 -156
f -155 -154 -153
f -153 -152 -151
f -149 -148 -147
f -146 -145 -144
f -144 -143 -142
f -140 -139 -138
f -136 -135 -134
f -133 -132 -131
f -130 -129 -128
f -126 -125 -124
f -123 -122 -121
f -121 -120 -119
f -117 -116 -115
f -167 -165 -163
f -162 -160 -159
f -155 -153 -151
f -150 -149 -147
f -146 -144 -142
f -140 -138 -137
f -136 -134 -133
f -130 -128 -127
f -126 -124 -123
f -123 -121 -119
f -167 -163 -162
f -162 -159 -158
f -155 -151 -150
f -150 -147 -146
f -146 -142 -141
f -141 -140 -137
f -137 -136 -133
f -131 -130 -127
f -127 -126 -123
f -123 -119 -118
f -167 -162 -158
f -155 -150 -146
f -146 -141 -137
f -137 -133 -131
f -131 -127 -123
f -167 -158 -156
f -156 -155 -146
f -146 -137 -131
f -131 -123 -118
f -167 -156 -146
f -146 -131 -118
f -146 -118 -117
f -167 -146 -117
f -167 -117 -115
f -167 -115 -168
f -112 -111 -110
f -110 -111 -109
f -110 -109 -108
f -108 -109 -107
f -108 -107 -106
f -106 -107 -105
f -106 -105 -104
f -104 -105 -103
f -104 -103 -102
f -102 -103 -101
f -102 -101 -100
f -100 -101 -99
f -100 -99 -98
f -98 -99 -97
f -98 -97 -96
f -96 -97 -95
f -96 -95 -94
f -94 -95 -93
f -94 -93 -92
f -92 -93 -91
f -92 -91 -90
f -90 -91 -89
f -90 -89 -88
f -88 -89 -87
f -88 -87 -86
f -86 -87 -85
f -86 -85 -84
f -84 -85 -83
f -84 -83 -82
f -82 -83 -81
f -82 -81 -80
f -80 -81 -79
f -80 -79 -78
f -78 -79 -77
f -78 -77 -76
f -76 -77 -75
f -76 -75 -74
f -74 -75 -73
f -74 -73 -72
f -72 -73 -71
f -72 -71 -70
f -70 -71 -69
f -70 -69 -68
f -68 -69 -67
f -68 -67 -66
f -66 -67 -65
f -66 -65 -64
f -64 -65 -63
f -64 -63 -62
f -62 -63 -61
f -62 -61 -60
f -60 -61 -59
f -60 -59 -58
f -58 -59 -57
f -58 -57 -56
f -56 -57 -55
f -56 -55 -54
f -54 -55 -53
f -54 -53 -52
f -52 -53 -51
f -52 -51 -50
f -50 -51 -49
f -50 -49 -48
f -48 -49 -47
f -48 -47 -46
f -46 -47 -45
f -46 -45 -44
f -44 -45 -43
f -44 -43 -42
f -42 -43 -41
f -42 -41 -40
f -40 -41 -39
f -40 -39 -38
f -38 -39 -37
f -38 -37 -36
f -36 -37 -35
f -36 -35 -34
f -34 -35 -33
f -34 -33 -32
f -32 -33 -31
f -32 -31 -30
f -30 -31 -29
f -30 -29 -28
f -28 -29 -27
f -28 -27 -26
f -26 -27 -25
f -26 -25 -24
f -24 -25 -23
f -24 -23 -22
f -22 -23 -21
f -22 -21 -20
f -20 -21 -19
f -20 -19 -18
f -18 -19 -17
f -18 -17 -16
f -16 -17 -15
f -16 -15 -14
f -14 -15 -13
f -14 -13 -12
f -12 -13 -11
f -12 -11 -10
f -10 -11 -9
f -10 -9 -8
f -8 -9 -7
f -8 -7 -6
f -6 -7 -5
f -6 -5 -4
f -4 -5 -3
f -4 -3 -2
f -2 -3 -1

mtllib nweventshow2023.mtl

mtllib nweventshow2023.mtl

o 3 b-1
usemtl 0xFFFFFF
v -4.715 -2.442 0.845
v -3.04 -2.442 0.845
v -3.04 -0.227 0.845
v -4.715 -0.227 0.845
v -4.715 -2.442 0.845
v -4.715 -2.442 0.845
v -4.715 -2.442 0.774
v -3.04 -2.442 0.845
v -3.04 -2.442 0.774
v -3.04 -0.227 0.845
v -3.04 -0.227 0.774
v -4.715 -0.227 0.845
v -4.715 -0.227 0.774
v -4.715 -2.442 0.845
v -4.715 -2.442 0.774

f -12 -15 -14
f -14 -13 -12
f -10 -9 -8
f -8 -9 -7
f -8 -7 -6
f -6 -7 -5
f -6 -5 -4
f -4 -5 -3
f -4 -3 -2
f -2 -3 -1

o 3 b-2
usemtl 0xFFFFFF
v 5.936 5.595 0.845
v 8.759 5.595 0.845
v 8.759 6.526 0.845
v 5.936 6.526 0.845
v 5.936 5.595 0.845
v 5.936 5.595 0.845
v 5.936 5.595 0.774
v 8.759 5.595 0.845
v 8.759 5.595 0.774
v 8.759 6.526 0.845
v 8.759 6.526 0.774
v 5.936 6.526 0.845
v 5.936 6.526 0.774
v 5.936 5.595 0.845
v 5.936 5.595 0.774

f -12 -15 -14
f -14 -13 -12
f -10 -9 -8
f -8 -9 -7
f -8 -7 -6
f -6 -7 -5
f -6 -5 -4
f -4 -5 -3
f -4 -3 -2
f -2 -3 -1

o 3 bVisionary Room
usemtl 0x2ECACA
v 1.828 1.73 0.845
v 1.828 3.562 0.845
v 1.191 3.562 0.845
v 1.191 3.856 0.845
v 0.594 3.856 0.845
v 0.591 3.562 0.845
v -0.014 3.562 0.845
v -0.014 1.73 0.845
v 1.828 1.73 0.845
v 1.828 1.73 0.845
v 1.828 1.73 0.774
v 1.828 3.562 0.845
v 1.828 3.562 0.774
v 1.191 3.562 0.845
v 1.191 3.562 0.774
v 1.191 3.856 0.845
v 1.191 3.856 0.774
v 0.594 3.856 0.845
v 0.594 3.856 0.774
v 0.591 3.562 0.845
v 0.591 3.562 0.774
v -0.014 3.562 0.845
v -0.014 3.562 0.774
v -0.014 1.73 0.845
v -0.014 1.73 0.774
v 1.828 1.73 0.845
v 1.828 1.73 0.774

f -20 -27 -26
f -25 -24 -23
f -22 -21 -20
f -20 -26 -25
f -25 -23 -22
f -22 -20 -25
f -18 -17 -16
f -16 -17 -15
f -16 -15 -14
f -14 -15 -13
f -14 -13 -12
f -12 -13 -11
f -12 -11 -10
f -10 -11 -9
f -10 -9 -8
f -8 -9 -7
f -8 -7 -6
f -6 -7 -5
f -6 -5 -4
f -4 -5 -3
f -4 -3 -2
f -2 -3 -1

o 3 bThe Board Room
usemtl 0x2ECACA
v 3.741 1.729 0.845
v 3.741 3.563 0.845
v 3.1 3.563 0.845
v 3.1 3.854 0.845
v 2.515 3.854 0.845
v 2.515 3.563 0.845
v 1.924 3.563 0.845
v 1.924 1.729 0.845
v 3.741 1.729 0.845
v 3.741 1.729 0.845
v 3.741 1.729 0.774
v 3.741 3.563 0.845
v 3.741 3.563 0.774
v 3.1 3.563 0.845
v 3.1 3.563 0.774
v 3.1 3.854 0.845
v 3.1 3.854 0.774
v 2.515 3.854 0.845
v 2.515 3.854 0.774
v 2.515 3.563 0.845
v 2.515 3.563 0.774
v 1.924 3.563 0.845
v 1.924 3.563 0.774
v 1.924 1.729 0.845
v 1.924 1.729 0.774
v 3.741 1.729 0.845
v 3.741 1.729 0.774

f -20 -27 -26
f -25 -24 -23
f -22 -21 -20
f -20 -26 -25
f -25 -23 -22
f -22 -20 -25
f -18 -17 -16
f -16 -17 -15
f -16 -15 -14
f -14 -15 -13
f -14 -13 -12
f -12 -13 -11
f -12 -11 -10
f -10 -11 -9
f -10 -9 -8
f -8 -9 -7
f -8 -7 -6
f -6 -7 -5
f -6 -5 -4
f -4 -5 -3
f -4 -3 -2
f -2 -3 -1

o 3 bExperiences Room
usemtl 0x2ECACA
v 5.652 1.729 0.845
v 5.652 3.563 0.845
v 5.011 3.563 0.845
v 5.011 3.857 0.845
v 4.423 3.857 0.845
v 4.423 3.563 0.845
v 3.835 3.563 0.845
v 3.835 1.729 0.845
v 5.652 1.729 0.845
v 5.652 1.729 0.845
v 5.652 1.729 0.774
v 5.652 3.563 0.845
v 5.652 3.563 0.774
v 5.011 3.563 0.845
v 5.011 3.563 0.774
v 5.011 3.857 0.845
v 5.011 3.857 0.774
v 4.423 3.857 0.845
v 4.423 3.857 0.774
v 4.423 3.563 0.845
v 4.423 3.563 0.774
v 3.835 3.563 0.845
v 3.835 3.563 0.774
v 3.835 1.729 0.845
v 3.835 1.729 0.774
v 5.652 1.729 0.845
v 5.652 1.729 0.774

f -20 -27 -26
f -25 -24 -23
f -22 -21 -20
f -20 -26 -25
f -25 -23 -22
f -22 -20 -25
f -18 -17 -16
f -16 -17 -15
f -16 -15 -14
f -14 -15 -13
f -14 -13 -12
f -12 -13 -11
f -12 -11 -10
f -10 -11 -9
f -10 -9 -8
f -8 -9 -7
f -8 -7 -6
f -6 -7 -5
f -6 -5 -4
f -4 -5 -3
f -4 -3 -2
f -2 -3 -1

o 3 3_0
usemtl 3_0.webp
v -8.509396 -6.284268 0.7743539650000001
v 8.824985 -6.284386 0.7743539650000001
v 8.825015 7.252459 0.7743539650000001
v -8.509514 7.252506 0.7743539650000001
vt 0 0 0
vt 1 0 0
vt 0 1 0
vt 1 1 0
f -4/4 -3/3 -2/1 -1/2

mtllib nweventshow2023.mtl

o 2 bFirst Aid 1
usemtl 0x2ECACA
v 4.835 4.23 1.549
v 5.423 4.23 1.549
v 5.423 4.621 1.549
v 4.835 4.621 1.549
v 4.835 4.23 1.549
v 4.835 4.23 1.549
v 4.835 4.23 1.478
v 5.423 4.23 1.549
v 5.423 4.23 1.478
v 5.423 4.621 1.549
v 5.423 4.621 1.478
v 4.835 4.621 1.549
v 4.835 4.621 1.478
v 4.835 4.23 1.549
v 4.835 4.23 1.478

f -12 -15 -14
f -14 -13 -12
f -10 -9 -8
f -8 -9 -7
f -8 -7 -6
f -6 -7 -5
f -6 -5 -4
f -4 -5 -3
f -4 -3 -2
f -2 -3 -1

o 2 b600
usemtl 0xC850A0
v -2.537 -1.69 1.549
v -2.243 -1.69 1.549
v -2.243 -1.396 1.549
v -2.537 -1.396 1.549
v -2.537 -1.69 1.549
v -2.537 -1.69 1.549
v -2.537 -1.69 1.478
v -2.243 -1.69 1.549
v -2.243 -1.69 1.478
v -2.243 -1.396 1.549
v -2.243 -1.396 1.478
v -2.537 -1.396 1.549
v -2.537 -1.396 1.478
v -2.537 -1.69 1.549
v -2.537 -1.69 1.478

f -12 -15 -14
f -14 -13 -12
f -10 -9 -8
f -8 -9 -7
f -8 -7 -6
f -6 -7 -5
f -6 -5 -4
f -4 -5 -3
f -4 -3 -2
f -2 -3 -1

o 2 bMAIN STAGE
usemtl 0x2ECACA
v -7.106 2.513 1.549
v -6.165 2.513 1.549
v -6.165 3.056 1.549
v -7.106 3.056 1.549
v -7.106 2.513 1.549
v -7.106 2.513 1.549
v -7.106 2.513 1.478
v -6.165 2.513 1.549
v -6.165 2.513 1.478
v -6.165 3.056 1.549
v -6.165 3.056 1.478
v -7.106 3.056 1.549
v -7.106 3.056 1.478
v -7.106 2.513 1.549
v -7.106 2.513 1.478

f -12 -15 -14
f -14 -13 -12
f -10 -9 -8
f -8 -9 -7
f -8 -7 -6
f -6 -7 -5
f -6 -5 -4
f -4 -5 -3
f -4 -3 -2
f -2 -3 -1

o 2 bHospitality Lounge 2
usemtl 0x2ECACA
v -4.706 0.03 1.549
v -3.236 0.03 1.549
v -3.236 0.471 1.549
v -4.706 0.471 1.549
v -4.706 0.03 1.549
v -4.706 0.03 1.549
v -4.706 0.03 1.478
v -3.236 0.03 1.549
v -3.236 0.03 1.478
v -3.236 0.471 1.549
v -3.236 0.471 1.478
v -4.706 0.471 1.549
v -4.706 0.471 1.478
v -4.706 0.03 1.549
v -4.706 0.03 1.478

f -12 -15 -14
f -14 -13 -12
f -10 -9 -8
f -8 -9 -7
f -8 -7 -6
f -6 -7 -5
f -6 -5 -4
f -4 -5 -3
f -4 -3 -2
f -2 -3 -1

o 2 bHospitality Lounge 1
usemtl 0x2ECACA
v -4.706 1.359 1.549
v -3.236 1.359 1.549
v -3.236 1.8 1.549
v -4.706 1.8 1.549
v -4.706 1.359 1.549
v -4.706 1.359 1.549
v -4.706 1.359 1.478
v -3.236 1.359 1.549
v -3.236 1.359 1.478
v -3.236 1.8 1.549
v -3.236 1.8 1.478
v -4.706 1.8 1.549
v -4.706 1.8 1.478
v -4.706 1.359 1.549
v -4.706 1.359 1.478

f -12 -15 -14
f -14 -13 -12
f -10 -9 -8
f -8 -9 -7
f -8 -7 -6
f -6 -7 -5
f -6 -5 -4
f -4 -5 -3
f -4 -3 -2
f -2 -3 -1

o 2 b602
usemtl 0xC850A0
v -2.234 -1.69 1.549
v -1.646 -1.69 1.549
v -1.646 -1.396 1.549
v -2.234 -1.396 1.549
v -2.234 -1.69 1.549
v -2.234 -1.69 1.549
v -2.234 -1.69 1.478
v -1.646 -1.69 1.549
v -1.646 -1.69 1.478
v -1.646 -1.396 1.549
v -1.646 -1.396 1.478
v -2.234 -1.396 1.549
v -2.234 -1.396 1.478
v -2.234 -1.69 1.549
v -2.234 -1.69 1.478

f -12 -15 -14
f -14 -13 -12
f -10 -9 -8
f -8 -9 -7
f -8 -7 -6
f -6 -7 -5
f -6 -5 -4
f -4 -5 -3
f -4 -3 -2
f -2 -3 -1

o 2 b608
usemtl 0xC850A0
v -1.337 -1.69 1.549
v -1.043 -1.69 1.549
v -1.043 -1.396 1.549
v -1.337 -1.396 1.549
v -1.337 -1.69 1.549
v -1.337 -1.69 1.549
v -1.337 -1.69 1.478
v -1.043 -1.69 1.549
v -1.043 -1.69 1.478
v -1.043 -1.396 1.549
v -1.043 -1.396 1.478
v -1.337 -1.396 1.549
v -1.337 -1.396 1.478
v -1.337 -1.69 1.549
v -1.337 -1.69 1.478

f -12 -15 -14
f -14 -13 -12
f -10 -9 -8
f -8 -9 -7
f -8 -7 -6
f -6 -7 -5
f -6 -5 -4
f -4 -5 -3
f -4 -3 -2
f -2 -3 -1

o 2 b610
usemtl 0xC850A0
v -1.037 -1.69 1.549
v -0.743 -1.69 1.549
v -0.743 -1.396 1.549
v -1.037 -1.396 1.549
v -1.037 -1.69 1.549
v -1.037 -1.69 1.549
v -1.037 -1.69 1.478
v -0.743 -1.69 1.549
v -0.743 -1.69 1.478
v -0.743 -1.396 1.549
v -0.743 -1.396 1.478
v -1.037 -1.396 1.549
v -1.037 -1.396 1.478
v -1.037 -1.69 1.549
v -1.037 -1.69 1.478

f -12 -15 -14
f -14 -13 -12
f -10 -9 -8
f -8 -9 -7
f -8 -7 -6
f -6 -7 -5
f -6 -5 -4
f -4 -5 -3
f -4 -3 -2
f -2 -3 -1

o 2 b614
usemtl 0xC850A0
v -0.437 -1.69 1.549
v -0.143 -1.69 1.549
v -0.143 -1.396 1.549
v -0.437 -1.396 1.549
v -0.437 -1.69 1.549
v -0.437 -1.69 1.549
v -0.437 -1.69 1.478
v -0.143 -1.69 1.549
v -0.143 -1.69 1.478
v -0.143 -1.396 1.549
v -0.143 -1.396 1.478
v -0.437 -1.396 1.549
v -0.437 -1.396 1.478
v -0.437 -1.69 1.549
v -0.437 -1.69 1.478

f -12 -15 -14
f -14 -13 -12
f -10 -9 -8
f -8 -9 -7
f -8 -7 -6
f -6 -7 -5
f -6 -5 -4
f -4 -5 -3
f -4 -3 -2
f -2 -3 -1

o 2 b616
usemtl 0xC850A0
v -0.137 -1.69 1.549
v 0.157 -1.69 1.549
v 0.157 -1.396 1.549
v -0.137 -1.396 1.549
v -0.137 -1.69 1.549
v -0.137 -1.69 1.549
v -0.137 -1.69 1.478
v 0.157 -1.69 1.549
v 0.157 -1.69 1.478
v 0.157 -1.396 1.549
v 0.157 -1.396 1.478
v -0.137 -1.396 1.549
v -0.137 -1.396 1.478
v -0.137 -1.69 1.549
v -0.137 -1.69 1.478

f -12 -15 -14
f -14 -13 -12
f -10 -9 -8
f -8 -9 -7
f -8 -7 -6
f -6 -7 -5
f -6 -5 -4
f -4 -5 -3
f -4 -3 -2
f -2 -3 -1

o 2 b620
usemtl 0xC850A0
v 0.465 -1.69 1.549
v 1.024 -1.69 1.549
v 1.024 -1.396 1.549
v 0.465 -1.396 1.549
v 0.465 -1.69 1.549
v 0.465 -1.69 1.549
v 0.465 -1.69 1.478
v 1.024 -1.69 1.549
v 1.024 -1.69 1.478
v 1.024 -1.396 1.549
v 1.024 -1.396 1.478
v 0.465 -1.396 1.549
v 0.465 -1.396 1.478
v 0.465 -1.69 1.549
v 0.465 -1.69 1.478

f -12 -15 -14
f -14 -13 -12
f -10 -9 -8
f -8 -9 -7
f -8 -7 -6
f -6 -7 -5
f -6 -5 -4
f -4 -5 -3
f -4 -3 -2
f -2 -3 -1

o 2 b626
usemtl 0xC850A0
v 1.366 -1.69 1.549
v 1.954 -1.69 1.549
v 1.954 -1.396 1.549
v 1.366 -1.396 1.549
v 1.366 -1.69 1.549
v 1.366 -1.69 1.549
v 1.366 -1.69 1.478
v 1.954 -1.69 1.549
v 1.954 -1.69 1.478
v 1.954 -1.396 1.549
v 1.954 -1.396 1.478
v 1.366 -1.396 1.549
v 1.366 -1.396 1.478
v 1.366 -1.69 1.549
v 1.366 -1.69 1.478

f -12 -15 -14
f -14 -13 -12
f -10 -9 -8
f -8 -9 -7
f -8 -7 -6
f -6 -7 -5
f -6 -5 -4
f -4 -5 -3
f -4 -3 -2
f -2 -3 -1

o 2 b632
usemtl 0xC850A0
v 2.263 -1.69 1.549
v 2.557 -1.69 1.549
v 2.557 -1.396 1.549
v 2.263 -1.396 1.549
v 2.263 -1.69 1.549
v 2.263 -1.69 1.549
v 2.263 -1.69 1.478
v 2.557 -1.69 1.549
v 2.557 -1.69 1.478
v 2.557 -1.396 1.549
v 2.557 -1.396 1.478
v 2.263 -1.396 1.549
v 2.263 -1.396 1.478
v 2.263 -1.69 1.549
v 2.263 -1.69 1.478

f -12 -15 -14
f -14 -13 -12
f -10 -9 -8
f -8 -9 -7
f -8 -7 -6
f -6 -7 -5
f -6 -5 -4
f -4 -5 -3
f -4 -3 -2
f -2 -3 -1

o 2 b634
usemtl 0xC850A0
v 2.563 -1.69 1.549
v 2.857 -1.69 1.549
v 2.857 -1.396 1.549
v 2.563 -1.396 1.549
v 2.563 -1.69 1.549
v 2.563 -1.69 1.549
v 2.563 -1.69 1.478
v 2.857 -1.69 1.549
v 2.857 -1.69 1.478
v 2.857 -1.396 1.549
v 2.857 -1.396 1.478
v 2.563 -1.396 1.549
v 2.563 -1.396 1.478
v 2.563 -1.69 1.549
v 2.563 -1.69 1.478

f -12 -15 -14
f -14 -13 -12
f -10 -9 -8
f -8 -9 -7
f -8 -7 -6
f -6 -7 -5
f -6 -5 -4
f -4 -5 -3
f -4 -3 -2
f -2 -3 -1

o 2 b501
usemtl 0xC850A0
v -2.537 -1.09 1.549
v -2.243 -1.09 1.549
v -2.243 -0.796 1.549
v -2.537 -0.796 1.549
v -2.537 -1.09 1.549
v -2.537 -1.09 1.549
v -2.537 -1.09 1.478
v -2.243 -1.09 1.549
v -2.243 -1.09 1.478
v -2.243 -0.796 1.549
v -2.243 -0.796 1.478
v -2.537 -0.796 1.549
v -2.537 -0.796 1.478
v -2.537 -1.09 1.549
v -2.537 -1.09 1.478

f -12 -15 -14
f -14 -13 -12
f -10 -9 -8
f -8 -9 -7
f -8 -7 -6
f -6 -7 -5
f -6 -5 -4
f -4 -5 -3
f -4 -3 -2
f -2 -3 -1

o 2 b500
usemtl 0xC850A0
v -2.537 -0.79 1.549
v -2.243 -0.79 1.549
v -2.243 -0.496 1.549
v -2.537 -0.496 1.549
v -2.537 -0.79 1.549
v -2.537 -0.79 1.549
v -2.537 -0.79 1.478
v -2.243 -0.79 1.549
v -2.243 -0.79 1.478
v -2.243 -0.496 1.549
v -2.243 -0.496 1.478
v -2.537 -0.496 1.549
v -2.537 -0.496 1.478
v -2.537 -0.79 1.549
v -2.537 -0.79 1.478

f -12 -15 -14
f -14 -13 -12
f -10 -9 -8
f -8 -9 -7
f -8 -7 -6
f -6 -7 -5
f -6 -5 -4
f -4 -5 -3
f -4 -3 -2
f -2 -3 -1

o 2 b502
usemtl 0xC850A0
v -2.234 -0.79 1.549
v -1.646 -0.79 1.549
v -1.646 -0.496 1.549
v -2.234 -0.496 1.549
v -2.234 -0.79 1.549
v -2.234 -0.79 1.549
v -2.234 -0.79 1.478
v -1.646 -0.79 1.549
v -1.646 -0.79 1.478
v -1.646 -0.496 1.549
v -1.646 -0.496 1.478
v -2.234 -0.496 1.549
v -2.234 -0.496 1.478
v -2.234 -0.79 1.549
v -2.234 -0.79 1.478

f -12 -15 -14
f -14 -13 -12
f -10 -9 -8
f -8 -9 -7
f -8 -7 -6
f -6 -7 -5
f -6 -5 -4
f -4 -5 -3
f -4 -3 -2
f -2 -3 -1

o 2 b503
usemtl 0xC850A0
v -2.234 -1.09 1.549
v -1.646 -1.09 1.549
v -1.646 -0.796 1.549
v -2.234 -0.796 1.549
v -2.234 -1.09 1.549
v -2.234 -1.09 1.549
v -2.234 -1.09 1.478
v -1.646 -1.09 1.549
v -1.646 -1.09 1.478
v -1.646 -0.796 1.549
v -1.646 -0.796 1.478
v -2.234 -0.796 1.549
v -2.234 -0.796 1.478
v -2.234 -1.09 1.549
v -2.234 -1.09 1.478

f -12 -15 -14
f -14 -13 -12
f -10 -9 -8
f -8 -9 -7
f -8 -7 -6
f -6 -7 -5
f -6 -5 -4
f -4 -5 -3
f -4 -3 -2
f -2 -3 -1

o 2 b509
usemtl 0xC850A0
v -1.334 -1.087 1.549
v -0.746 -1.087 1.549
v -0.746 -0.499 1.549
v -1.334 -0.499 1.549
v -1.334 -1.087 1.549
v -1.334 -1.087 1.549
v -1.334 -1.087 1.478
v -0.746 -1.087 1.549
v -0.746 -1.087 1.478
v -0.746 -0.499 1.549
v -0.746 -0.499 1.478
v -1.334 -0.499 1.549
v -1.334 -0.499 1.478
v -1.334 -1.087 1.549
v -1.334 -1.087 1.478

f -12 -15 -14
f -14 -13 -12
f -10 -9 -8
f -8 -9 -7
f -8 -7 -6
f -6 -7 -5
f -6 -5 -4
f -4 -5 -3
f -4 -3 -2
f -2 -3 -1

o 2 b515
usemtl 0xC850A0
v -0.437 -1.09 1.549
v -0.143 -1.09 1.549
v -0.143 -0.796 1.549
v -0.437 -0.796 1.549
v -0.437 -1.09 1.549
v -0.437 -1.09 1.549
v -0.437 -1.09 1.478
v -0.143 -1.09 1.549
v -0.143 -1.09 1.478
v -0.143 -0.796 1.549
v -0.143 -0.796 1.478
v -0.437 -0.796 1.549
v -0.437 -0.796 1.478
v -0.437 -1.09 1.549
v -0.437 -1.09 1.478

f -12 -15 -14
f -14 -13 -12
f -10 -9 -8
f -8 -9 -7
f -8 -7 -6
f -6 -7 -5
f -6 -5 -4
f -4 -5 -3
f -4 -3 -2
f -2 -3 -1

o 2 b514
usemtl 0xC850A0
v -0.434 -0.79 1.549
v 0.154 -0.79 1.549
v 0.154 -0.496 1.549
v -0.434 -0.496 1.549
v -0.434 -0.79 1.549
v -0.434 -0.79 1.549
v -0.434 -0.79 1.478
v 0.154 -0.79 1.549
v 0.154 -0.79 1.478
v 0.154 -0.496 1.549
v 0.154 -0.496 1.478
v -0.434 -0.496 1.549
v -0.434 -0.496 1.478
v -0.434 -0.79 1.549
v -0.434 -0.79 1.478

f -12 -15 -14
f -14 -13 -12
f -10 -9 -8
f -8 -9 -7
f -8 -7 -6
f -6 -7 -5
f -6 -5 -4
f -4 -5 -3
f -4 -3 -2
f -2 -3 -1

o 2 b517
usemtl 0xC850A0
v -0.137 -1.09 1.549
v 0.157 -1.09 1.549
v 0.157 -0.796 1.549
v -0.137 -0.796 1.549
v -0.137 -1.09 1.549
v -0.137 -1.09 1.549
v -0.137 -1.09 1.478
v 0.157 -1.09 1.549
v 0.157 -1.09 1.478
v 0.157 -0.796 1.549
v 0.157 -0.796 1.478
v -0.137 -0.796 1.549
v -0.137 -0.796 1.478
v -0.137 -1.09 1.549
v -0.137 -1.09 1.478

f -12 -15 -14
f -14 -13 -12
f -10 -9 -8
f -8 -9 -7
f -8 -7 -6
f -6 -7 -5
f -6 -5 -4
f -4 -5 -3
f -4 -3 -2
f -2 -3 -1

o 2 b521
usemtl 0xC850A0
v 0.463 -1.09 1.549
v 0.757 -1.09 1.549
v 0.757 -0.796 1.549
v 0.463 -0.796 1.549
v 0.463 -1.09 1.549
v 0.463 -1.09 1.549
v 0.463 -1.09 1.478
v 0.757 -1.09 1.549
v 0.757 -1.09 1.478
v 0.757 -0.796 1.549
v 0.757 -0.796 1.478
v 0.463 -0.796 1.549
v 0.463 -0.796 1.478
v 0.463 -1.09 1.549
v 0.463 -1.09 1.478

f -12 -15 -14
f -14 -13 -12
f -10 -9 -8
f -8 -9 -7
f -8 -7 -6
f -6 -7 -5
f -6 -5 -4
f -4 -5 -3
f -4 -3 -2
f -2 -3 -1

o 2 b523
usemtl 0xC850A0
v 0.763 -1.09 1.549
v 1.057 -1.09 1.549
v 1.057 -0.796 1.549
v 0.763 -0.796 1.549
v 0.763 -1.09 1.549
v 0.763 -1.09 1.549
v 0.763 -1.09 1.478
v 1.057 -1.09 1.549
v 1.057 -1.09 1.478
v 1.057 -0.796 1.549
v 1.057 -0.796 1.478
v 0.763 -0.796 1.549
v 0.763 -0.796 1.478
v 0.763 -1.09 1.549
v 0.763 -1.09 1.478

f -12 -15 -14
f -14 -13 -12
f -10 -9 -8
f -8 -9 -7
f -8 -7 -6
f -6 -7 -5
f -6 -5 -4
f -4 -5 -3
f -4 -3 -2
f -2 -3 -1

o 2 b520
usemtl 0xC850A0
v 0.463 -0.79 1.549
v 0.757 -0.79 1.549
v 0.757 -0.496 1.549
v 0.463 -0.496 1.549
v 0.463 -0.79 1.549
v 0.463 -0.79 1.549
v 0.463 -0.79 1.478
v 0.757 -0.79 1.549
v 0.757 -0.79 1.478
v 0.757 -0.496 1.549
v 0.757 -0.496 1.478
v 0.463 -0.496 1.549
v 0.463 -0.496 1.478
v 0.463 -0.79 1.549
v 0.463 -0.79 1.478

f -12 -15 -14
f -14 -13 -12
f -10 -9 -8
f -8 -9 -7
f -8 -7 -6
f -6 -7 -5
f -6 -5 -4
f -4 -5 -3
f -4 -3 -2
f -2 -3 -1

o 2 b522
usemtl 0xC850A0
v 0.763 -0.79 1.549
v 1.057 -0.79 1.549
v 1.057 -0.496 1.549
v 0.763 -0.496 1.549
v 0.763 -0.79 1.549
v 0.763 -0.79 1.549
v 0.763 -0.79 1.478
v 1.057 -0.79 1.549
v 1.057 -0.79 1.478
v 1.057 -0.496 1.549
v 1.057 -0.496 1.478
v 0.763 -0.496 1.549
v 0.763 -0.496 1.478
v 0.763 -0.79 1.549
v 0.763 -0.79 1.478

f -12 -15 -14
f -14 -13 -12
f -10 -9 -8
f -8 -9 -7
f -8 -7 -6
f -6 -7 -5
f -6 -5 -4
f -4 -5 -3
f -4 -3 -2
f -2 -3 -1

o 2 b527
usemtl 0xC850A0
v 1.366 -1.09 1.549
v 1.954 -1.09 1.549
v 1.954 -0.796 1.549
v 1.366 -0.796 1.549
v 1.366 -1.09 1.549
v 1.366 -1.09 1.549
v 1.366 -1.09 1.478
v 1.954 -1.09 1.549
v 1.954 -1.09 1.478
v 1.954 -0.796 1.549
v 1.954 -0.796 1.478
v 1.366 -0.796 1.549
v 1.366 -0.796 1.478
v 1.366 -1.09 1.549
v 1.366 -1.09 1.478

f -12 -15 -14
f -14 -13 -12
f -10 -9 -8
f -8 -9 -7
f -8 -7 -6
f -6 -7 -5
f -6 -5 -4
f -4 -5 -3
f -4 -3 -2
f -2 -3 -1

o 2 b532
usemtl 0xC850A0
v 2.266 -1.087 1.549
v 2.854 -1.087 1.549
v 2.854 -0.499 1.549
v 2.266 -0.499 1.549
v 2.266 -1.087 1.549
v 2.266 -1.087 1.549
v 2.266 -1.087 1.478
v 2.854 -1.087 1.549
v 2.854 -1.087 1.478
v 2.854 -0.499 1.549
v 2.854 -0.499 1.478
v 2.266 -0.499 1.549
v 2.266 -0.499 1.478
v 2.266 -1.087 1.549
v 2.266 -1.087 1.478

f -12 -15 -14
f -14 -13 -12
f -10 -9 -8
f -8 -9 -7
f -8 -7 -6
f -6 -7 -5
f -6 -5 -4
f -4 -5 -3
f -4 -3 -2
f -2 -3 -1

o 2 b538
usemtl 0xC850A0
v 3.172 -1.681 1.549
v 4.348 -1.681 1.549
v 4.348 -0.505 1.549
v 3.172 -0.505 1.549
v 3.172 -1.681 1.549
v 3.172 -1.681 1.549
v 3.172 -1.681 1.478
v 4.348 -1.681 1.549
v 4.348 -1.681 1.478
v 4.348 -0.505 1.549
v 4.348 -0.505 1.478
v 3.172 -0.505 1.549
v 3.172 -0.505 1.478
v 3.172 -1.681 1.549
v 3.172 -1.681 1.478

f -12 -15 -14
f -14 -13 -12
f -10 -9 -8
f -8 -9 -7
f -8 -7 -6
f -6 -7 -5
f -6 -5 -4
f -4 -5 -3
f -4 -3 -2
f -2 -3 -1

o 2 b401
usemtl 0xC850A0
v -2.537 -0.19 1.549
v -2.243 -0.19 1.549
v -2.243 0.104 1.549
v -2.537 0.104 1.549
v -2.537 -0.19 1.549
v -2.537 -0.19 1.549
v -2.537 -0.19 1.478
v -2.243 -0.19 1.549
v -2.243 -0.19 1.478
v -2.243 0.104 1.549
v -2.243 0.104 1.478
v -2.537 0.104 1.549
v -2.537 0.104 1.478
v -2.537 -0.19 1.549
v -2.537 -0.19 1.478

f -12 -15 -14
f -14 -13 -12
f -10 -9 -8
f -8 -9 -7
f -8 -7 -6
f -6 -7 -5
f -6 -5 -4
f -4 -5 -3
f -4 -3 -2
f -2 -3 -1

o 2 b403
usemtl 0xC850A0
v -2.237 -0.19 1.549
v -1.943 -0.19 1.549
v -1.943 0.104 1.549
v -2.237 0.104 1.549
v -2.237 -0.19 1.549
v -2.237 -0.19 1.549
v -2.237 -0.19 1.478
v -1.943 -0.19 1.549
v -1.943 -0.19 1.478
v -1.943 0.104 1.549
v -1.943 0.104 1.478
v -2.237 0.104 1.549
v -2.237 0.104 1.478
v -2.237 -0.19 1.549
v -2.237 -0.19 1.478

f -12 -15 -14
f -14 -13 -12
f -10 -9 -8
f -8 -9 -7
f -8 -7 -6
f -6 -7 -5
f -6 -5 -4
f -4 -5 -3
f -4 -3 -2
f -2 -3 -1

o 2 b400
usemtl 0xC850A0
v -2.534 0.11 1.549
v -1.946 0.11 1.549
v -1.946 0.404 1.549
v -2.534 0.404 1.549
v -2.534 0.11 1.549
v -2.534 0.11 1.549
v -2.534 0.11 1.478
v -1.946 0.11 1.549
v -1.946 0.11 1.478
v -1.946 0.404 1.549
v -1.946 0.404 1.478
v -2.534 0.404 1.549
v -2.534 0.404 1.478
v -2.534 0.11 1.549
v -2.534 0.11 1.478

f -12 -15 -14
f -14 -13 -12
f -10 -9 -8
f -8 -9 -7
f -8 -7 -6
f -6 -7 -5
f -6 -5 -4
f -4 -5 -3
f -4 -3 -2
f -2 -3 -1

o 2 b405
usemtl 0xC850A0
v -1.937 -0.19 1.549
v -1.643 -0.19 1.549
v -1.643 0.104 1.549
v -1.937 0.104 1.549
v -1.937 -0.19 1.549
v -1.937 -0.19 1.549
v -1.937 -0.19 1.478
v -1.643 -0.19 1.549
v -1.643 -0.19 1.478
v -1.643 0.104 1.549
v -1.643 0.104 1.478
v -1.937 0.104 1.549
v -1.937 0.104 1.478
v -1.937 -0.19 1.549
v -1.937 -0.19 1.478

f -12 -15 -14
f -14 -13 -12
f -10 -9 -8
f -8 -9 -7
f -8 -7 -6
f -6 -7 -5
f -6 -5 -4
f -4 -5 -3
f -4 -3 -2
f -2 -3 -1

o 2 b404
usemtl 0xC850A0
v -1.937 0.11 1.549
v -1.643 0.11 1.549
v -1.643 0.404 1.549
v -1.937 0.404 1.549
v -1.937 0.11 1.549
v -1.937 0.11 1.549
v -1.937 0.11 1.478
v -1.643 0.11 1.549
v -1.643 0.11 1.478
v -1.643 0.404 1.549
v -1.643 0.404 1.478
v -1.937 0.404 1.549
v -1.937 0.404 1.478
v -1.937 0.11 1.549
v -1.937 0.11 1.478

f -12 -15 -14
f -14 -13 -12
f -10 -9 -8
f -8 -9 -7
f -8 -7 -6
f -6 -7 -5
f -6 -5 -4
f -4 -5 -3
f -4 -3 -2
f -2 -3 -1

o 2 b409
usemtl 0xC850A0
v -1.334 -0.187 1.549
v -0.746 -0.187 1.549
v -0.746 0.401 1.549
v -1.334 0.401 1.549
v -1.334 -0.187 1.549
v -1.334 -0.187 1.549
v -1.334 -0.187 1.478
v -0.746 -0.187 1.549
v -0.746 -0.187 1.478
v -0.746 0.401 1.549
v -0.746 0.401 1.478
v -1.334 0.401 1.549
v -1.334 0.401 1.478
v -1.334 -0.187 1.549
v -1.334 -0.187 1.478

f -12 -15 -14
f -14 -13 -12
f -10 -9 -8
f -8 -9 -7
f -8 -7 -6
f -6 -7 -5
f -6 -5 -4
f -4 -5 -3
f -4 -3 -2
f -2 -3 -1

o 2 b415
usemtl 0xC850A0
v -0.434 -0.19 1.549
v 0.154 -0.19 1.549
v 0.154 0.104 1.549
v -0.434 0.104 1.549
v -0.434 -0.19 1.549
v -0.434 -0.19 1.549
v -0.434 -0.19 1.478
v 0.154 -0.19 1.549
v 0.154 -0.19 1.478
v 0.154 0.104 1.549
v 0.154 0.104 1.478
v -0.434 0.104 1.549
v -0.434 0.104 1.478
v -0.434 -0.19 1.549
v -0.434 -0.19 1.478

f -12 -15 -14
f -14 -13 -12
f -10 -9 -8
f -8 -9 -7
f -8 -7 -6
f -6 -7 -5
f -6 -5 -4
f -4 -5 -3
f -4 -3 -2
f -2 -3 -1

o 2 b421
usemtl 0xC850A0
v 0.466 -0.19 1.549
v 1.054 -0.19 1.549
v 1.054 0.104 1.549
v 0.466 0.104 1.549
v 0.466 -0.19 1.549
v 0.466 -0.19 1.549
v 0.466 -0.19 1.478
v 1.054 -0.19 1.549
v 1.054 -0.19 1.478
v 1.054 0.104 1.549
v 1.054 0.104 1.478
v 0.466 0.104 1.549
v 0.466 0.104 1.478
v 0.466 -0.19 1.549
v 0.466 -0.19 1.478

f -12 -15 -14
f -14 -13 -12
f -10 -9 -8
f -8 -9 -7
f -8 -7 -6
f -6 -7 -5
f -6 -5 -4
f -4 -5 -3
f -4 -3 -2
f -2 -3 -1

o 2 b414
usemtl 0xC850A0
v -0.437 0.11 1.549
v -0.143 0.11 1.549
v -0.143 0.404 1.549
v -0.437 0.404 1.549
v -0.437 0.11 1.549
v -0.437 0.11 1.549
v -0.437 0.11 1.478
v -0.143 0.11 1.549
v -0.143 0.11 1.478
v -0.143 0.404 1.549
v -0.143 0.404 1.478
v -0.437 0.404 1.549
v -0.437 0.404 1.478
v -0.437 0.11 1.549
v -0.437 0.11 1.478

f -12 -15 -14
f -14 -13 -12
f -10 -9 -8
f -8 -9 -7
f -8 -7 -6
f -6 -7 -5
f -6 -5 -4
f -4 -5 -3
f -4 -3 -2
f -2 -3 -1

o 2 b416
usemtl 0xC850A0
v -0.137 0.11 1.549
v 0.157 0.11 1.549
v 0.157 0.404 1.549
v -0.137 0.404 1.549
v -0.137 0.11 1.549
v -0.137 0.11 1.549
v -0.137 0.11 1.478
v 0.157 0.11 1.549
v 0.157 0.11 1.478
v 0.157 0.404 1.549
v 0.157 0.404 1.478
v -0.137 0.404 1.549
v -0.137 0.404 1.478
v -0.137 0.11 1.549
v -0.137 0.11 1.478

f -12 -15 -14
f -14 -13 -12
f -10 -9 -8
f -8 -9 -7
f -8 -7 -6
f -6 -7 -5
f -6 -5 -4
f -4 -5 -3
f -4 -3 -2
f -2 -3 -1

o 2 b420
usemtl 0xC850A0
v 0.466 0.11 1.549
v 1.054 0.11 1.549
v 1.054 0.404 1.549
v 0.466 0.404 1.549
v 0.466 0.11 1.549
v 0.466 0.11 1.549
v 0.466 0.11 1.478
v 1.054 0.11 1.549
v 1.054 0.11 1.478
v 1.054 0.404 1.549
v 1.054 0.404 1.478
v 0.466 0.404 1.549
v 0.466 0.404 1.478
v 0.466 0.11 1.549
v 0.466 0.11 1.478

f -12 -15 -14
f -14 -13 -12
f -10 -9 -8
f -8 -9 -7
f -8 -7 -6
f -6 -7 -5
f -6 -5 -4
f -4 -5 -3
f -4 -3 -2
f -2 -3 -1

o 2 b427
usemtl 0xC850A0
v 1.363 -0.19 1.549
v 1.657 -0.19 1.549
v 1.657 0.104 1.549
v 1.363 0.104 1.549
v 1.363 -0.19 1.549
v 1.363 -0.19 1.549
v 1.363 -0.19 1.478
v 1.657 -0.19 1.549
v 1.657 -0.19 1.478
v 1.657 0.104 1.549
v 1.657 0.104 1.478
v 1.363 0.104 1.549
v 1.363 0.104 1.478
v 1.363 -0.19 1.549
v 1.363 -0.19 1.478

f -12 -15 -14
f -14 -13 -12
f -10 -9 -8
f -8 -9 -7
f -8 -7 -6
f -6 -7 -5
f -6 -5 -4
f -4 -5 -3
f -4 -3 -2
f -2 -3 -1

o 2 b429
usemtl 0xC850A0
v 1.663 -0.19 1.549
v 1.957 -0.19 1.549
v 1.957 0.104 1.549
v 1.663 0.104 1.549
v 1.663 -0.19 1.549
v 1.663 -0.19 1.549
v 1.663 -0.19 1.478
v 1.957 -0.19 1.549
v 1.957 -0.19 1.478
v 1.957 0.104 1.549
v 1.957 0.104 1.478
v 1.663 0.104 1.549
v 1.663 0.104 1.478
v 1.663 -0.19 1.549
v 1.663 -0.19 1.478

f -12 -15 -14
f -14 -13 -12
f -10 -9 -8
f -8 -9 -7
f -8 -7 -6
f -6 -7 -5
f -6 -5 -4
f -4 -5 -3
f -4 -3 -2
f -2 -3 -1

o 2 b426
usemtl 0xC850A0
v 1.363 0.11 1.549
v 1.657 0.11 1.549
v 1.657 0.404 1.549
v 1.363 0.404 1.549
v 1.363 0.11 1.549
v 1.363 0.11 1.549
v 1.363 0.11 1.478
v 1.657 0.11 1.549
v 1.657 0.11 1.478
v 1.657 0.404 1.549
v 1.657 0.404 1.478
v 1.363 0.404 1.549
v 1.363 0.404 1.478
v 1.363 0.11 1.549
v 1.363 0.11 1.478

f -12 -15 -14
f -14 -13 -12
f -10 -9 -8
f -8 -9 -7
f -8 -7 -6
f -6 -7 -5
f -6 -5 -4
f -4 -5 -3
f -4 -3 -2
f -2 -3 -1

o 2 b428
usemtl 0xC850A0
v 1.663 0.11 1.549
v 1.957 0.11 1.549
v 1.957 0.404 1.549
v 1.663 0.404 1.549
v 1.663 0.11 1.549
v 1.663 0.11 1.549
v 1.663 0.11 1.478
v 1.957 0.11 1.549
v 1.957 0.11 1.478
v 1.957 0.404 1.549
v 1.957 0.404 1.478
v 1.663 0.404 1.549
v 1.663 0.404 1.478
v 1.663 0.11 1.549
v 1.663 0.11 1.478

f -12 -15 -14
f -14 -13 -12
f -10 -9 -8
f -8 -9 -7
f -8 -7 -6
f -6 -7 -5
f -6 -5 -4
f -4 -5 -3
f -4 -3 -2
f -2 -3 -1

o 2 b433
usemtl 0xC850A0
v 2.266 -0.187 1.549
v 2.854 -0.187 1.549
v 2.854 0.401 1.549
v 2.266 0.401 1.549
v 2.266 -0.187 1.549
v 2.266 -0.187 1.549
v 2.266 -0.187 1.478
v 2.854 -0.187 1.549
v 2.854 -0.187 1.478
v 2.854 0.401 1.549
v 2.854 0.401 1.478
v 2.266 0.401 1.549
v 2.266 0.401 1.478
v 2.266 -0.187 1.549
v 2.266 -0.187 1.478

f -12 -15 -14
f -14 -13 -12
f -10 -9 -8
f -8 -9 -7
f -8 -7 -6
f -6 -7 -5
f -6 -5 -4
f -4 -5 -3
f -4 -3 -2
f -2 -3 -1

o 2 b439
usemtl 0xC850A0
v 3.163 -0.19 1.549
v 3.457 -0.19 1.549
v 3.457 0.104 1.549
v 3.163 0.104 1.549
v 3.163 -0.19 1.549
v 3.163 -0.19 1.549
v 3.163 -0.19 1.478
v 3.457 -0.19 1.549
v 3.457 -0.19 1.478
v 3.457 0.104 1.549
v 3.457 0.104 1.478
v 3.163 0.104 1.549
v 3.163 0.104 1.478
v 3.163 -0.19 1.549
v 3.163 -0.19 1.478

f -12 -15 -14
f -14 -13 -12
f -10 -9 -8
f -8 -9 -7
f -8 -7 -6
f -6 -7 -5
f -6 -5 -4
f -4 -5 -3
f -4 -3 -2
f -2 -3 -1

o 2 b441
usemtl 0xC850A0
v 3.466 -0.19 1.549
v 4.054 -0.19 1.549
v 4.054 0.104 1.549
v 3.466 0.104 1.549
v 3.466 -0.19 1.549
v 3.466 -0.19 1.549
v 3.466 -0.19 1.478
v 4.054 -0.19 1.549
v 4.054 -0.19 1.478
v 4.054 0.104 1.549
v 4.054 0.104 1.478
v 3.466 0.104 1.549
v 3.466 0.104 1.478
v 3.466 -0.19 1.549
v 3.466 -0.19 1.478

f -12 -15 -14
f -14 -13 -12
f -10 -9 -8
f -8 -9 -7
f -8 -7 -6
f -6 -7 -5
f -6 -5 -4
f -4 -5 -3
f -4 -3 -2
f -2 -3 -1

o 2 b445
usemtl 0xC850A0
v 4.063 -0.19 1.549
v 4.357 -0.19 1.549
v 4.357 0.104 1.549
v 4.063 0.104 1.549
v 4.063 -0.19 1.549
v 4.063 -0.19 1.549
v 4.063 -0.19 1.478
v 4.357 -0.19 1.549
v 4.357 -0.19 1.478
v 4.357 0.104 1.549
v 4.357 0.104 1.478
v 4.063 0.104 1.549
v 4.063 0.104 1.478
v 4.063 -0.19 1.549
v 4.063 -0.19 1.478

f -12 -15 -14
f -14 -13 -12
f -10 -9 -8
f -8 -9 -7
f -8 -7 -6
f -6 -7 -5
f -6 -5 -4
f -4 -5 -3
f -4 -3 -2
f -2 -3 -1

o 2 b438
usemtl 0xC850A0
v 3.166 0.11 1.549
v 3.754 0.11 1.549
v 3.754 0.404 1.549
v 3.166 0.404 1.549
v 3.166 0.11 1.549
v 3.166 0.11 1.549
v 3.166 0.11 1.478
v 3.754 0.11 1.549
v 3.754 0.11 1.478
v 3.754 0.404 1.549
v 3.754 0.404 1.478
v 3.166 0.404 1.549
v 3.166 0.404 1.478
v 3.166 0.11 1.549
v 3.166 0.11 1.478

f -12 -15 -14
f -14 -13 -12
f -10 -9 -8
f -8 -9 -7
f -8 -7 -6
f -6 -7 -5
f -6 -5 -4
f -4 -5 -3
f -4 -3 -2
f -2 -3 -1

o 2 b442
usemtl 0xC850A0
v 3.766 0.11 1.549
v 4.354 0.11 1.549
v 4.354 0.404 1.549
v 3.766 0.404 1.549
v 3.766 0.11 1.549
v 3.766 0.11 1.549
v 3.766 0.11 1.478
v 4.354 0.11 1.549
v 4.354 0.11 1.478
v 4.354 0.404 1.549
v 4.354 0.404 1.478
v 3.766 0.404 1.549
v 3.766 0.404 1.478
v 3.766 0.11 1.549
v 3.766 0.11 1.478

f -12 -15 -14
f -14 -13 -12
f -10 -9 -8
f -8 -9 -7
f -8 -7 -6
f -6 -7 -5
f -6 -5 -4
f -4 -5 -3
f -4 -3 -2
f -2 -3 -1

o 2 b452
usemtl 0xC850A0
v 5.263 0.11 1.549
v 5.557 0.11 1.549
v 5.557 0.404 1.549
v 5.263 0.404 1.549
v 5.263 0.11 1.549
v 5.263 0.11 1.549
v 5.263 0.11 1.478
v 5.557 0.11 1.549
v 5.557 0.11 1.478
v 5.557 0.404 1.549
v 5.557 0.404 1.478
v 5.263 0.404 1.549
v 5.263 0.404 1.478
v 5.263 0.11 1.549
v 5.263 0.11 1.478

f -12 -15 -14
f -14 -13 -12
f -10 -9 -8
f -8 -9 -7
f -8 -7 -6
f -6 -7 -5
f -6 -5 -4
f -4 -5 -3
f -4 -3 -2
f -2 -3 -1

o 2 b454
usemtl 0xC850A0
v 5.563 0.11 1.549
v 5.857 0.11 1.549
v 5.857 0.404 1.549
v 5.563 0.404 1.549
v 5.563 0.11 1.549
v 5.563 0.11 1.549
v 5.563 0.11 1.478
v 5.857 0.11 1.549
v 5.857 0.11 1.478
v 5.857 0.404 1.549
v 5.857 0.404 1.478
v 5.563 0.404 1.549
v 5.563 0.404 1.478
v 5.563 0.11 1.549
v 5.563 0.11 1.478

f -12 -15 -14
f -14 -13 -12
f -10 -9 -8
f -8 -9 -7
f -8 -7 -6
f -6 -7 -5
f -6 -5 -4
f -4 -5 -3
f -4 -3 -2
f -2 -3 -1

o 2 b458
usemtl 0xC850A0
v 6.163 0.11 1.549
v 6.457 0.11 1.549
v 6.457 0.404 1.549
v 6.163 0.404 1.549
v 6.163 0.11 1.549
v 6.163 0.11 1.549
v 6.163 0.11 1.478
v 6.457 0.11 1.549
v 6.457 0.11 1.478
v 6.457 0.404 1.549
v 6.457 0.404 1.478
v 6.163 0.404 1.549
v 6.163 0.404 1.478
v 6.163 0.11 1.549
v 6.163 0.11 1.478

f -12 -15 -14
f -14 -13 -12
f -10 -9 -8
f -8 -9 -7
f -8 -7 -6
f -6 -7 -5
f -6 -5 -4
f -4 -5 -3
f -4 -3 -2
f -2 -3 -1

o 2 b460
usemtl 0xC850A0
v 6.466 0.11 1.549
v 7.054 0.11 1.549
v 7.054 0.404 1.549
v 6.466 0.404 1.549
v 6.466 0.11 1.549
v 6.466 0.11 1.549
v 6.466 0.11 1.478
v 7.054 0.11 1.549
v 7.054 0.11 1.478
v 7.054 0.404 1.549
v 7.054 0.404 1.478
v 6.466 0.404 1.549
v 6.466 0.404 1.478
v 6.466 0.11 1.549
v 6.466 0.11 1.478

f -12 -15 -14
f -14 -13 -12
f -10 -9 -8
f -8 -9 -7
f -8 -7 -6
f -6 -7 -5
f -6 -5 -4
f -4 -5 -3
f -4 -3 -2
f -2 -3 -1

o 2 b466
usemtl 0xC850A0
v 7.363 0.41 1.549
v 7.657 0.41 1.549
v 7.657 0.704 1.549
v 7.363 0.704 1.549
v 7.363 0.41 1.549
v 7.363 0.41 1.549
v 7.363 0.41 1.478
v 7.657 0.41 1.549
v 7.657 0.41 1.478
v 7.657 0.704 1.549
v 7.657 0.704 1.478
v 7.363 0.704 1.549
v 7.363 0.704 1.478
v 7.363 0.41 1.549
v 7.363 0.41 1.478

f -12 -15 -14
f -14 -13 -12
f -10 -9 -8
f -8 -9 -7
f -8 -7 -6
f -6 -7 -5
f -6 -5 -4
f -4 -5 -3
f -4 -3 -2
f -2 -3 -1

o 2 b367
usemtl 0xC850A0
v 7.363 0.71 1.549
v 7.657 0.71 1.549
v 7.657 1.004 1.549
v 7.363 1.004 1.549
v 7.363 0.71 1.549
v 7.363 0.71 1.549
v 7.363 0.71 1.478
v 7.657 0.71 1.549
v 7.657 0.71 1.478
v 7.657 1.004 1.549
v 7.657 1.004 1.478
v 7.363 1.004 1.549
v 7.363 1.004 1.478
v 7.363 0.71 1.549
v 7.363 0.71 1.478

f -12 -15 -14
f -14 -13 -12
f -10 -9 -8
f -8 -9 -7
f -8 -7 -6
f -6 -7 -5
f -6 -5 -4
f -4 -5 -3
f -4 -3 -2
f -2 -3 -1

o 2 b368
usemtl 0xC850A0
v 7.363 1.01 1.549
v 7.657 1.01 1.549
v 7.657 1.304 1.549
v 7.363 1.304 1.549
v 7.363 1.01 1.549
v 7.363 1.01 1.549
v 7.363 1.01 1.478
v 7.657 1.01 1.549
v 7.657 1.01 1.478
v 7.657 1.304 1.549
v 7.657 1.304 1.478
v 7.363 1.304 1.549
v 7.363 1.304 1.478
v 7.363 1.01 1.549
v 7.363 1.01 1.478

f -12 -15 -14
f -14 -13 -12
f -10 -9 -8
f -8 -9 -7
f -8 -7 -6
f -6 -7 -5
f -6 -5 -4
f -4 -5 -3
f -4 -3 -2
f -2 -3 -1

o 2 b267
usemtl 0xC850A0
v 7.363 1.313 1.549
v 7.657 1.313 1.549
v 7.657 1.901 1.549
v 7.363 1.901 1.549
v 7.363 1.313 1.549
v 7.363 1.313 1.549
v 7.363 1.313 1.478
v 7.657 1.313 1.549
v 7.657 1.313 1.478
v 7.657 1.901 1.549
v 7.657 1.901 1.478
v 7.363 1.901 1.549
v 7.363 1.901 1.478
v 7.363 1.313 1.549
v 7.363 1.313 1.478

f -12 -15 -14
f -14 -13 -12
f -10 -9 -8
f -8 -9 -7
f -8 -7 -6
f -6 -7 -5
f -6 -5 -4
f -4 -5 -3
f -4 -3 -2
f -2 -3 -1

o 2 b268
usemtl 0xC850A0
v 7.363 1.91 1.549
v 7.657 1.91 1.549
v 7.657 2.204 1.549
v 7.363 2.204 1.549
v 7.363 1.91 1.549
v 7.363 1.91 1.549
v 7.363 1.91 1.478
v 7.657 1.91 1.549
v 7.657 1.91 1.478
v 7.657 2.204 1.549
v 7.657 2.204 1.478
v 7.363 2.204 1.549
v 7.363 2.204 1.478
v 7.363 1.91 1.549
v 7.363 1.91 1.478

f -12 -15 -14
f -14 -13 -12
f -10 -9 -8
f -8 -9 -7
f -8 -7 -6
f -6 -7 -5
f -6 -5 -4
f -4 -5 -3
f -4 -3 -2
f -2 -3 -1

o 2 b266
usemtl 0xC850A0
v 7.363 2.21 1.549
v 7.657 2.21 1.549
v 7.657 2.504 1.549
v 7.363 2.504 1.549
v 7.363 2.21 1.549
v 7.363 2.21 1.549
v 7.363 2.21 1.478
v 7.657 2.21 1.549
v 7.657 2.21 1.478
v 7.657 2.504 1.549
v 7.657 2.504 1.478
v 7.363 2.504 1.549
v 7.363 2.504 1.478
v 7.363 2.21 1.549
v 7.363 2.21 1.478

f -12 -15 -14
f -14 -13 -12
f -10 -9 -8
f -8 -9 -7
f -8 -7 -6
f -6 -7 -5
f -6 -5 -4
f -4 -5 -3
f -4 -3 -2
f -2 -3 -1

o 2 b168
usemtl 0xC850A0
v 7.363 2.513 1.549
v 7.657 2.513 1.549
v 7.657 3.101 1.549
v 7.363 3.101 1.549
v 7.363 2.513 1.549
v 7.363 2.513 1.549
v 7.363 2.513 1.478
v 7.657 2.513 1.549
v 7.657 2.513 1.478
v 7.657 3.101 1.549
v 7.657 3.101 1.478
v 7.363 3.101 1.549
v 7.363 3.101 1.478
v 7.363 2.513 1.549
v 7.363 2.513 1.478

f -12 -15 -14
f -14 -13 -12
f -10 -9 -8
f -8 -9 -7
f -8 -7 -6
f -6 -7 -5
f -6 -5 -4
f -4 -5 -3
f -4 -3 -2
f -2 -3 -1

o 2 b166
usemtl 0xC850A0
v 7.363 3.11 1.549
v 7.657 3.11 1.549
v 7.657 3.404 1.549
v 7.363 3.404 1.549
v 7.363 3.11 1.549
v 7.363 3.11 1.549
v 7.363 3.11 1.478
v 7.657 3.11 1.549
v 7.657 3.11 1.478
v 7.657 3.404 1.549
v 7.657 3.404 1.478
v 7.363 3.404 1.549
v 7.363 3.404 1.478
v 7.363 3.11 1.549
v 7.363 3.11 1.478

f -12 -15 -14
f -14 -13 -12
f -10 -9 -8
f -8 -9 -7
f -8 -7 -6
f -6 -7 -5
f -6 -5 -4
f -4 -5 -3
f -4 -3 -2
f -2 -3 -1

o 2 b309
usemtl 0xC850A0
v -1.334 0.713 1.549
v -0.746 0.713 1.549
v -0.746 1.301 1.549
v -1.334 1.301 1.549
v -1.334 0.713 1.549
v -1.334 0.713 1.549
v -1.334 0.713 1.478
v -0.746 0.713 1.549
v -0.746 0.713 1.478
v -0.746 1.301 1.549
v -0.746 1.301 1.478
v -1.334 1.301 1.549
v -1.334 1.301 1.478
v -1.334 0.713 1.549
v -1.334 0.713 1.478

f -12 -15 -14
f -14 -13 -12
f -10 -9 -8
f -8 -9 -7
f -8 -7 -6
f -6 -7 -5
f -6 -5 -4
f -4 -5 -3
f -4 -3 -2
f -2 -3 -1

o 2 b209
usemtl 0xC850A0
v -1.334 1.613 1.549
v -0.746 1.613 1.549
v -0.746 2.201 1.549
v -1.334 2.201 1.549
v -1.334 1.613 1.549
v -1.334 1.613 1.549
v -1.334 1.613 1.478
v -0.746 1.613 1.549
v -0.746 1.613 1.478
v -0.746 2.201 1.549
v -0.746 2.201 1.478
v -1.334 2.201 1.549
v -1.334 2.201 1.478
v -1.334 1.613 1.549
v -1.334 1.613 1.478

f -12 -15 -14
f -14 -13 -12
f -10 -9 -8
f -8 -9 -7
f -8 -7 -6
f -6 -7 -5
f -6 -5 -4
f -4 -5 -3
f -4 -3 -2
f -2 -3 -1

o 2 b315
usemtl 0xC850A0
v -0.434 0.713 1.549
v 0.154 0.713 1.549
v 0.154 1.301 1.549
v -0.434 1.301 1.549
v -0.434 0.713 1.549
v -0.434 0.713 1.549
v -0.434 0.713 1.478
v 0.154 0.713 1.549
v 0.154 0.713 1.478
v 0.154 1.301 1.549
v 0.154 1.301 1.478
v -0.434 1.301 1.549
v -0.434 1.301 1.478
v -0.434 0.713 1.549
v -0.434 0.713 1.478

f -12 -15 -14
f -14 -13 -12
f -10 -9 -8
f -8 -9 -7
f -8 -7 -6
f -6 -7 -5
f -6 -5 -4
f -4 -5 -3
f -4 -3 -2
f -2 -3 -1

o 2 b319
usemtl 0xC850A0
v 0.169 0.713 1.549
v 1.051 0.713 1.549
v 1.051 1.301 1.549
v 0.169 1.301 1.549
v 0.169 0.713 1.549
v 0.169 0.713 1.549
v 0.169 0.713 1.478
v 1.051 0.713 1.549
v 1.051 0.713 1.478
v 1.051 1.301 1.549
v 1.051 1.301 1.478
v 0.169 1.301 1.549
v 0.169 1.301 1.478
v 0.169 0.713 1.549
v 0.169 0.713 1.478

f -12 -15 -14
f -14 -13 -12
f -10 -9 -8
f -8 -9 -7
f -8 -7 -6
f -6 -7 -5
f -6 -5 -4
f -4 -5 -3
f -4 -3 -2
f -2 -3 -1

o 2 b327
usemtl 0xC850A0
v 1.366 0.713 1.549
v 1.954 0.713 1.549
v 1.954 1.301 1.549
v 1.366 1.301 1.549
v 1.366 0.713 1.549
v 1.366 0.713 1.549
v 1.366 0.713 1.478
v 1.954 0.713 1.549
v 1.954 0.713 1.478
v 1.954 1.301 1.549
v 1.954 1.301 1.478
v 1.366 1.301 1.549
v 1.366 1.301 1.478
v 1.366 0.713 1.549
v 1.366 0.713 1.478

f -12 -15 -14
f -14 -13 -12
f -10 -9 -8
f -8 -9 -7
f -8 -7 -6
f -6 -7 -5
f -6 -5 -4
f -4 -5 -3
f -4 -3 -2
f -2 -3 -1

o 2 b227
usemtl 0xC850A0
v 1.366 1.613 1.549
v 1.954 1.613 1.549
v 1.954 2.201 1.549
v 1.366 2.201 1.549
v 1.366 1.613 1.549
v 1.366 1.613 1.549
v 1.366 1.613 1.478
v 1.954 1.613 1.549
v 1.954 1.613 1.478
v 1.954 2.201 1.549
v 1.954 2.201 1.478
v 1.366 2.201 1.549
v 1.366 2.201 1.478
v 1.366 1.613 1.549
v 1.366 1.613 1.478

f -12 -15 -14
f -14 -13 -12
f -10 -9 -8
f -8 -9 -7
f -8 -7 -6
f -6 -7 -5
f -6 -5 -4
f -4 -5 -3
f -4 -3 -2
f -2 -3 -1

o 2 b301
usemtl 0xC850A0
v -2.534 0.71 1.549
v -1.946 0.71 1.549
v -1.946 1.004 1.549
v -2.534 1.004 1.549
v -2.534 0.71 1.549
v -2.534 0.71 1.549
v -2.534 0.71 1.478
v -1.946 0.71 1.549
v -1.946 0.71 1.478
v -1.946 1.004 1.549
v -1.946 1.004 1.478
v -2.534 1.004 1.549
v -2.534 1.004 1.478
v -2.534 0.71 1.549
v -2.534 0.71 1.478

f -12 -15 -14
f -14 -13 -12
f -10 -9 -8
f -8 -9 -7
f -8 -7 -6
f -6 -7 -5
f -6 -5 -4
f -4 -5 -3
f -4 -3 -2
f -2 -3 -1

o 2 b305
usemtl 0xC850A0
v -1.937 0.71 1.549
v -1.643 0.71 1.549
v -1.643 1.004 1.549
v -1.937 1.004 1.549
v -1.937 0.71 1.549
v -1.937 0.71 1.549
v -1.937 0.71 1.478
v -1.643 0.71 1.549
v -1.643 0.71 1.478
v -1.643 1.004 1.549
v -1.643 1.004 1.478
v -1.937 1.004 1.549
v -1.937 1.004 1.478
v -1.937 0.71 1.549
v -1.937 0.71 1.478

f -12 -15 -14
f -14 -13 -12
f -10 -9 -8
f -8 -9 -7
f -8 -7 -6
f -6 -7 -5
f -6 -5 -4
f -4 -5 -3
f -4 -3 -2
f -2 -3 -1

o 2 b300
usemtl 0xC850A0
v -2.537 1.01 1.549
v -2.243 1.01 1.549
v -2.243 1.304 1.549
v -2.537 1.304 1.549
v -2.537 1.01 1.549
v -2.537 1.01 1.549
v -2.537 1.01 1.478
v -2.243 1.01 1.549
v -2.243 1.01 1.478
v -2.243 1.304 1.549
v -2.243 1.304 1.478
v -2.537 1.304 1.549
v -2.537 1.304 1.478
v -2.537 1.01 1.549
v -2.537 1.01 1.478

f -12 -15 -14
f -14 -13 -12
f -10 -9 -8
f -8 -9 -7
f -8 -7 -6
f -6 -7 -5
f -6 -5 -4
f -4 -5 -3
f -4 -3 -2
f -2 -3 -1

o 2 b302
usemtl 0xC850A0
v -2.234 1.01 1.549
v -1.646 1.01 1.549
v -1.646 1.304 1.549
v -2.234 1.304 1.549
v -2.234 1.01 1.549
v -2.234 1.01 1.549
v -2.234 1.01 1.478
v -1.646 1.01 1.549
v -1.646 1.01 1.478
v -1.646 1.304 1.549
v -1.646 1.304 1.478
v -2.234 1.304 1.549
v -2.234 1.304 1.478
v -2.234 1.01 1.549
v -2.234 1.01 1.478

f -12 -15 -14
f -14 -13 -12
f -10 -9 -8
f -8 -9 -7
f -8 -7 -6
f -6 -7 -5
f -6 -5 -4
f -4 -5 -3
f -4 -3 -2
f -2 -3 -1

o 2 b201
usemtl 0xC850A0
v -2.537 1.61 1.549
v -2.243 1.61 1.549
v -2.243 1.904 1.549
v -2.537 1.904 1.549
v -2.537 1.61 1.549
v -2.537 1.61 1.549
v -2.537 1.61 1.478
v -2.243 1.61 1.549
v -2.243 1.61 1.478
v -2.243 1.904 1.549
v -2.243 1.904 1.478
v -2.537 1.904 1.549
v -2.537 1.904 1.478
v -2.537 1.61 1.549
v -2.537 1.61 1.478

f -12 -15 -14
f -14 -13 -12
f -10 -9 -8
f -8 -9 -7
f -8 -7 -6
f -6 -7 -5
f -6 -5 -4
f -4 -5 -3
f -4 -3 -2
f -2 -3 -1

o 2 b203
usemtl 0xC850A0
v -2.237 1.61 1.549
v -1.943 1.61 1.549
v -1.943 1.904 1.549
v -2.237 1.904 1.549
v -2.237 1.61 1.549
v -2.237 1.61 1.549
v -2.237 1.61 1.478
v -1.943 1.61 1.549
v -1.943 1.61 1.478
v -1.943 1.904 1.549
v -1.943 1.904 1.478
v -2.237 1.904 1.549
v -2.237 1.904 1.478
v -2.237 1.61 1.549
v -2.237 1.61 1.478

f -12 -15 -14
f -14 -13 -12
f -10 -9 -8
f -8 -9 -7
f -8 -7 -6
f -6 -7 -5
f -6 -5 -4
f -4 -5 -3
f -4 -3 -2
f -2 -3 -1

o 2 b205
usemtl 0xC850A0
v -1.937 1.61 1.549
v -1.643 1.61 1.549
v -1.643 1.904 1.549
v -1.937 1.904 1.549
v -1.937 1.61 1.549
v -1.937 1.61 1.549
v -1.937 1.61 1.478
v -1.643 1.61 1.549
v -1.643 1.61 1.478
v -1.643 1.904 1.549
v -1.643 1.904 1.478
v -1.937 1.904 1.549
v -1.937 1.904 1.478
v -1.937 1.61 1.549
v -1.937 1.61 1.478

f -12 -15 -14
f -14 -13 -12
f -10 -9 -8
f -8 -9 -7
f -8 -7 -6
f -6 -7 -5
f -6 -5 -4
f -4 -5 -3
f -4 -3 -2
f -2 -3 -1

o 2 b200
usemtl 0xC850A0
v -2.537 1.91 1.549
v -2.243 1.91 1.549
v -2.243 2.204 1.549
v -2.537 2.204 1.549
v -2.537 1.91 1.549
v -2.537 1.91 1.549
v -2.537 1.91 1.478
v -2.243 1.91 1.549
v -2.243 1.91 1.478
v -2.243 2.204 1.549
v -2.243 2.204 1.478
v -2.537 2.204 1.549
v -2.537 2.204 1.478
v -2.537 1.91 1.549
v -2.537 1.91 1.478

f -12 -15 -14
f -14 -13 -12
f -10 -9 -8
f -8 -9 -7
f -8 -7 -6
f -6 -7 -5
f -6 -5 -4
f -4 -5 -3
f -4 -3 -2
f -2 -3 -1

o 2 b202
usemtl 0xC850A0
v -2.234 1.91 1.549
v -1.646 1.91 1.549
v -1.646 2.204 1.549
v -2.234 2.204 1.549
v -2.234 1.91 1.549
v -2.234 1.91 1.549
v -2.234 1.91 1.478
v -1.646 1.91 1.549
v -1.646 1.91 1.478
v -1.646 2.204 1.549
v -1.646 2.204 1.478
v -2.234 2.204 1.549
v -2.234 2.204 1.478
v -2.234 1.91 1.549
v -2.234 1.91 1.478

f -12 -15 -14
f -14 -13 -12
f -10 -9 -8
f -8 -9 -7
f -8 -7 -6
f -6 -7 -5
f -6 -5 -4
f -4 -5 -3
f -4 -3 -2
f -2 -3 -1

o 2 b100
usemtl 0xC850A0
v -2.531 2.516 1.549
v -1.649 2.516 1.549
v -1.649 3.398 1.549
v -2.531 3.398 1.549
v -2.531 2.516 1.549
v -2.531 2.516 1.549
v -2.531 2.516 1.478
v -1.649 2.516 1.549
v -1.649 2.516 1.478
v -1.649 3.398 1.549
v -1.649 3.398 1.478
v -2.531 3.398 1.549
v -2.531 3.398 1.478
v -2.531 2.516 1.549
v -2.531 2.516 1.478

f -12 -15 -14
f -14 -13 -12
f -10 -9 -8
f -8 -9 -7
f -8 -7 -6
f -6 -7 -5
f -6 -5 -4
f -4 -5 -3
f -4 -3 -2
f -2 -3 -1

o 2 b102
usemtl 0xC850A0
v -1.337 3.11 1.549
v -1.043 3.11 1.549
v -1.043 3.404 1.549
v -1.337 3.404 1.549
v -1.337 3.11 1.549
v -1.337 3.11 1.549
v -1.337 3.11 1.478
v -1.043 3.11 1.549
v -1.043 3.11 1.478
v -1.043 3.404 1.549
v -1.043 3.404 1.478
v -1.337 3.404 1.549
v -1.337 3.404 1.478
v -1.337 3.11 1.549
v -1.337 3.11 1.478

f -12 -15 -14
f -14 -13 -12
f -10 -9 -8
f -8 -9 -7
f -8 -7 -6
f -6 -7 -5
f -6 -5 -4
f -4 -5 -3
f -4 -3 -2
f -2 -3 -1

o 2 b215
usemtl 0xC850A0
v -0.437 1.61 1.549
v -0.143 1.61 1.549
v -0.143 1.904 1.549
v -0.437 1.904 1.549
v -0.437 1.61 1.549
v -0.437 1.61 1.549
v -0.437 1.61 1.478
v -0.143 1.61 1.549
v -0.143 1.61 1.478
v -0.143 1.904 1.549
v -0.143 1.904 1.478
v -0.437 1.904 1.549
v -0.437 1.904 1.478
v -0.437 1.61 1.549
v -0.437 1.61 1.478

f -12 -15 -14
f -14 -13 -12
f -10 -9 -8
f -8 -9 -7
f -8 -7 -6
f -6 -7 -5
f -6 -5 -4
f -4 -5 -3
f -4 -3 -2
f -2 -3 -1

o 2 b217
usemtl 0xC850A0
v -0.137 1.61 1.549
v 0.157 1.61 1.549
v 0.157 1.904 1.549
v -0.137 1.904 1.549
v -0.137 1.61 1.549
v -0.137 1.61 1.549
v -0.137 1.61 1.478
v 0.157 1.61 1.549
v 0.157 1.61 1.478
v 0.157 1.904 1.549
v 0.157 1.904 1.478
v -0.137 1.904 1.549
v -0.137 1.904 1.478
v -0.137 1.61 1.549
v -0.137 1.61 1.478

f -12 -15 -14
f -14 -13 -12
f -10 -9 -8
f -8 -9 -7
f -8 -7 -6
f -6 -7 -5
f -6 -5 -4
f -4 -5 -3
f -4 -3 -2
f -2 -3 -1

o 2 b221
usemtl 0xC850A0
v 0.466 1.61 1.549
v 1.054 1.61 1.549
v 1.054 1.904 1.549
v 0.466 1.904 1.549
v 0.466 1.61 1.549
v 0.466 1.61 1.549
v 0.466 1.61 1.478
v 1.054 1.61 1.549
v 1.054 1.61 1.478
v 1.054 1.904 1.549
v 1.054 1.904 1.478
v 0.466 1.904 1.549
v 0.466 1.904 1.478
v 0.466 1.61 1.549
v 0.466 1.61 1.478

f -12 -15 -14
f -14 -13 -12
f -10 -9 -8
f -8 -9 -7
f -8 -7 -6
f -6 -7 -5
f -6 -5 -4
f -4 -5 -3
f -4 -3 -2
f -2 -3 -1

o 2 b214
usemtl 0xC850A0
v -0.437 1.91 1.549
v -0.143 1.91 1.549
v -0.143 2.204 1.549
v -0.437 2.204 1.549
v -0.437 1.91 1.549
v -0.437 1.91 1.549
v -0.437 1.91 1.478
v -0.143 1.91 1.549
v -0.143 1.91 1.478
v -0.143 2.204 1.549
v -0.143 2.204 1.478
v -0.437 2.204 1.549
v -0.437 2.204 1.478
v -0.437 1.91 1.549
v -0.437 1.91 1.478

f -12 -15 -14
f -14 -13 -12
f -10 -9 -8
f -8 -9 -7
f -8 -7 -6
f -6 -7 -5
f -6 -5 -4
f -4 -5 -3
f -4 -3 -2
f -2 -3 -1

o 2 b216
usemtl 0xC850A0
v -0.137 1.91 1.549
v 0.157 1.91 1.549
v 0.157 2.204 1.549
v -0.137 2.204 1.549
v -0.137 1.91 1.549
v -0.137 1.91 1.549
v -0.137 1.91 1.478
v 0.157 1.91 1.549
v 0.157 1.91 1.478
v 0.157 2.204 1.549
v 0.157 2.204 1.478
v -0.137 2.204 1.549
v -0.137 2.204 1.478
v -0.137 1.91 1.549
v -0.137 1.91 1.478

f -12 -15 -14
f -14 -13 -12
f -10 -9 -8
f -8 -9 -7
f -8 -7 -6
f -6 -7 -5
f -6 -5 -4
f -4 -5 -3
f -4 -3 -2
f -2 -3 -1

o 2 b220
usemtl 0xC850A0
v 0.463 1.91 1.549
v 0.757 1.91 1.549
v 0.757 2.204 1.549
v 0.463 2.204 1.549
v 0.463 1.91 1.549
v 0.463 1.91 1.549
v 0.463 1.91 1.478
v 0.757 1.91 1.549
v 0.757 1.91 1.478
v 0.757 2.204 1.549
v 0.757 2.204 1.478
v 0.463 2.204 1.549
v 0.463 2.204 1.478
v 0.463 1.91 1.549
v 0.463 1.91 1.478

f -12 -15 -14
f -14 -13 -12
f -10 -9 -8
f -8 -9 -7
f -8 -7 -6
f -6 -7 -5
f -6 -5 -4
f -4 -5 -3
f -4 -3 -2
f -2 -3 -1

o 2 b222
usemtl 0xC850A0
v 0.763 1.91 1.549
v 1.057 1.91 1.549
v 1.057 2.204 1.549
v 0.763 2.204 1.549
v 0.763 1.91 1.549
v 0.763 1.91 1.549
v 0.763 1.91 1.478
v 1.057 1.91 1.549
v 1.057 1.91 1.478
v 1.057 2.204 1.549
v 1.057 2.204 1.478
v 0.763 2.204 1.549
v 0.763 2.204 1.478
v 0.763 1.91 1.549
v 0.763 1.91 1.478

f -12 -15 -14
f -14 -13 -12
f -10 -9 -8
f -8 -9 -7
f -8 -7 -6
f -6 -7 -5
f -6 -5 -4
f -4 -5 -3
f -4 -3 -2
f -2 -3 -1

o 2 b112
usemtl 0xC850A0
v 0.763 2.51 1.549
v 1.057 2.51 1.549
v 1.057 2.804 1.549
v 0.763 2.804 1.549
v 0.763 2.51 1.549
v 0.763 2.51 1.549
v 0.763 2.51 1.478
v 1.057 2.51 1.549
v 1.057 2.51 1.478
v 1.057 2.804 1.549
v 1.057 2.804 1.478
v 0.763 2.804 1.549
v 0.763 2.804 1.478
v 0.763 2.51 1.549
v 0.763 2.51 1.478

f -12 -15 -14
f -14 -13 -12
f -10 -9 -8
f -8 -9 -7
f -8 -7 -6
f -6 -7 -5
f -6 -5 -4
f -4 -5 -3
f -4 -3 -2
f -2 -3 -1

o 2 b110
usemtl 0xC850A0
v 0.463 2.513 1.549
v 0.757 2.513 1.549
v 0.757 3.101 1.549
v 0.463 3.101 1.549
v 0.463 2.513 1.549
v 0.463 2.513 1.549
v 0.463 2.513 1.478
v 0.757 2.513 1.549
v 0.757 2.513 1.478
v 0.757 3.101 1.549
v 0.757 3.101 1.478
v 0.463 3.101 1.549
v 0.463 3.101 1.478
v 0.463 2.513 1.549
v 0.463 2.513 1.478

f -12 -15 -14
f -14 -13 -12
f -10 -9 -8
f -8 -9 -7
f -8 -7 -6
f -6 -7 -5
f -6 -5 -4
f -4 -5 -3
f -4 -3 -2
f -2 -3 -1

o 2 b113
usemtl 0xC850A0
v 0.763 2.81 1.549
v 1.057 2.81 1.549
v 1.057 3.104 1.549
v 0.763 3.104 1.549
v 0.763 2.81 1.549
v 0.763 2.81 1.549
v 0.763 2.81 1.478
v 1.057 2.81 1.549
v 1.057 2.81 1.478
v 1.057 3.104 1.549
v 1.057 3.104 1.478
v 0.763 3.104 1.549
v 0.763 3.104 1.478
v 0.763 2.81 1.549
v 0.763 2.81 1.478

f -12 -15 -14
f -14 -13 -12
f -10 -9 -8
f -8 -9 -7
f -8 -7 -6
f -6 -7 -5
f -6 -5 -4
f -4 -5 -3
f -4 -3 -2
f -2 -3 -1

o 2 b109
usemtl 0xC850A0
v 0.463 3.11 1.549
v 0.757 3.11 1.549
v 0.757 3.404 1.549
v 0.463 3.404 1.549
v 0.463 3.11 1.549
v 0.463 3.11 1.549
v 0.463 3.11 1.478
v 0.757 3.11 1.549
v 0.757 3.11 1.478
v 0.757 3.404 1.549
v 0.757 3.404 1.478
v 0.463 3.404 1.549
v 0.463 3.404 1.478
v 0.463 3.11 1.549
v 0.463 3.11 1.478

f -12 -15 -14
f -14 -13 -12
f -10 -9 -8
f -8 -9 -7
f -8 -7 -6
f -6 -7 -5
f -6 -5 -4
f -4 -5 -3
f -4 -3 -2
f -2 -3 -1

o 2 b114
usemtl 0xC850A0
v 0.763 3.11 1.549
v 1.057 3.11 1.549
v 1.057 3.404 1.549
v 0.763 3.404 1.549
v 0.763 3.11 1.549
v 0.763 3.11 1.549
v 0.763 3.11 1.478
v 1.057 3.11 1.549
v 1.057 3.11 1.478
v 1.057 3.404 1.549
v 1.057 3.404 1.478
v 0.763 3.404 1.549
v 0.763 3.404 1.478
v 0.763 3.11 1.549
v 0.763 3.11 1.478

f -12 -15 -14
f -14 -13 -12
f -10 -9 -8
f -8 -9 -7
f -8 -7 -6
f -6 -7 -5
f -6 -5 -4
f -4 -5 -3
f -4 -3 -2
f -2 -3 -1

o 2 b108
usemtl 0xC850A0
v -0.434 2.516 1.549
v 0.154 2.516 1.549
v 0.154 3.398 1.549
v -0.434 3.398 1.549
v -0.434 2.516 1.549
v -0.434 2.516 1.549
v -0.434 2.516 1.478
v 0.154 2.516 1.549
v 0.154 2.516 1.478
v 0.154 3.398 1.549
v 0.154 3.398 1.478
v -0.434 3.398 1.549
v -0.434 3.398 1.478
v -0.434 2.516 1.549
v -0.434 2.516 1.478

f -12 -15 -14
f -14 -13 -12
f -10 -9 -8
f -8 -9 -7
f -8 -7 -6
f -6 -7 -5
f -6 -5 -4
f -4 -5 -3
f -4 -3 -2
f -2 -3 -1

o 2 b115
usemtl 0xC850A0
v 1.366 2.516 1.549
v 1.954 2.516 1.549
v 1.954 3.398 1.549
v 1.366 3.398 1.549
v 1.366 2.516 1.549
v 1.366 2.516 1.549
v 1.366 2.516 1.478
v 1.954 2.516 1.549
v 1.954 2.516 1.478
v 1.954 3.398 1.549
v 1.954 3.398 1.478
v 1.366 3.398 1.549
v 1.366 3.398 1.478
v 1.366 2.516 1.549
v 1.366 2.516 1.478

f -12 -15 -14
f -14 -13 -12
f -10 -9 -8
f -8 -9 -7
f -8 -7 -6
f -6 -7 -5
f -6 -5 -4
f -4 -5 -3
f -4 -3 -2
f -2 -3 -1

o 2 b333
usemtl 0xC850A0
v 2.266 0.71 1.549
v 2.854 0.71 1.549
v 2.854 1.004 1.549
v 2.266 1.004 1.549
v 2.266 0.71 1.549
v 2.266 0.71 1.549
v 2.266 0.71 1.478
v 2.854 0.71 1.549
v 2.854 0.71 1.478
v 2.854 1.004 1.549
v 2.854 1.004 1.478
v 2.266 1.004 1.549
v 2.266 1.004 1.478
v 2.266 0.71 1.549
v 2.266 0.71 1.478

f -12 -15 -14
f -14 -13 -12
f -10 -9 -8
f -8 -9 -7
f -8 -7 -6
f -6 -7 -5
f -6 -5 -4
f -4 -5 -3
f -4 -3 -2
f -2 -3 -1

o 2 b332
usemtl 0xC850A0
v 2.266 1.01 1.549
v 2.854 1.01 1.549
v 2.854 1.304 1.549
v 2.266 1.304 1.549
v 2.266 1.01 1.549
v 2.266 1.01 1.549
v 2.266 1.01 1.478
v 2.854 1.01 1.549
v 2.854 1.01 1.478
v 2.854 1.304 1.549
v 2.854 1.304 1.478
v 2.266 1.304 1.549
v 2.266 1.304 1.478
v 2.266 1.01 1.549
v 2.266 1.01 1.478

f -12 -15 -14
f -14 -13 -12
f -10 -9 -8
f -8 -9 -7
f -8 -7 -6
f -6 -7 -5
f -6 -5 -4
f -4 -5 -3
f -4 -3 -2
f -2 -3 -1

o 2 b233
usemtl 0xC850A0
v 2.263 1.61 1.549
v 2.557 1.61 1.549
v 2.557 1.904 1.549
v 2.263 1.904 1.549
v 2.263 1.61 1.549
v 2.263 1.61 1.549
v 2.263 1.61 1.478
v 2.557 1.61 1.549
v 2.557 1.61 1.478
v 2.557 1.904 1.549
v 2.557 1.904 1.478
v 2.263 1.904 1.549
v 2.263 1.904 1.478
v 2.263 1.61 1.549
v 2.263 1.61 1.478

f -12 -15 -14
f -14 -13 -12
f -10 -9 -8
f -8 -9 -7
f -8 -7 -6
f -6 -7 -5
f -6 -5 -4
f -4 -5 -3
f -4 -3 -2
f -2 -3 -1

o 2 b235
usemtl 0xC850A0
v 2.563 1.61 1.549
v 2.857 1.61 1.549
v 2.857 1.904 1.549
v 2.563 1.904 1.549
v 2.563 1.61 1.549
v 2.563 1.61 1.549
v 2.563 1.61 1.478
v 2.857 1.61 1.549
v 2.857 1.61 1.478
v 2.857 1.904 1.549
v 2.857 1.904 1.478
v 2.563 1.904 1.549
v 2.563 1.904 1.478
v 2.563 1.61 1.549
v 2.563 1.61 1.478

f -12 -15 -14
f -14 -13 -12
f -10 -9 -8
f -8 -9 -7
f -8 -7 -6
f -6 -7 -5
f -6 -5 -4
f -4 -5 -3
f -4 -3 -2
f -2 -3 -1

o 2 b232
usemtl 0xC850A0
v 2.263 1.91 1.549
v 2.557 1.91 1.549
v 2.557 2.204 1.549
v 2.263 2.204 1.549
v 2.263 1.91 1.549
v 2.263 1.91 1.549
v 2.263 1.91 1.478
v 2.557 1.91 1.549
v 2.557 1.91 1.478
v 2.557 2.204 1.549
v 2.557 2.204 1.478
v 2.263 2.204 1.549
v 2.263 2.204 1.478
v 2.263 1.91 1.549
v 2.263 1.91 1.478

f -12 -15 -14
f -14 -13 -12
f -10 -9 -8
f -8 -9 -7
f -8 -7 -6
f -6 -7 -5
f -6 -5 -4
f -4 -5 -3
f -4 -3 -2
f -2 -3 -1

o 2 b234
usemtl 0xC850A0
v 2.563 1.91 1.549
v 2.857 1.91 1.549
v 2.857 2.204 1.549
v 2.563 2.204 1.549
v 2.563 1.91 1.549
v 2.563 1.91 1.549
v 2.563 1.91 1.478
v 2.857 1.91 1.549
v 2.857 1.91 1.478
v 2.857 2.204 1.549
v 2.857 2.204 1.478
v 2.563 2.204 1.549
v 2.563 2.204 1.478
v 2.563 1.91 1.549
v 2.563 1.91 1.478

f -12 -15 -14
f -14 -13 -12
f -10 -9 -8
f -8 -9 -7
f -8 -7 -6
f -6 -7 -5
f -6 -5 -4
f -4 -5 -3
f -4 -3 -2
f -2 -3 -1

o 2 b121
usemtl 0xC850A0
v 2.266 2.516 1.549
v 2.854 2.516 1.549
v 2.854 3.398 1.549
v 2.266 3.398 1.549
v 2.266 2.516 1.549
v 2.266 2.516 1.549
v 2.266 2.516 1.478
v 2.854 2.516 1.549
v 2.854 2.516 1.478
v 2.854 3.398 1.549
v 2.854 3.398 1.478
v 2.266 3.398 1.549
v 2.266 3.398 1.478
v 2.266 2.516 1.549
v 2.266 2.516 1.478

f -12 -15 -14
f -14 -13 -12
f -10 -9 -8
f -8 -9 -7
f -8 -7 -6
f -6 -7 -5
f -6 -5 -4
f -4 -5 -3
f -4 -3 -2
f -2 -3 -1

o 2 b339
usemtl 0xC850A0
v 3.166 0.713 1.549
v 3.754 0.713 1.549
v 3.754 1.301 1.549
v 3.166 1.301 1.549
v 3.166 0.713 1.549
v 3.166 0.713 1.549
v 3.166 0.713 1.478
v 3.754 0.713 1.549
v 3.754 0.713 1.478
v 3.754 1.301 1.549
v 3.754 1.301 1.478
v 3.166 1.301 1.549
v 3.166 1.301 1.478
v 3.166 0.713 1.549
v 3.166 0.713 1.478

f -12 -15 -14
f -14 -13 -12
f -10 -9 -8
f -8 -9 -7
f -8 -7 -6
f -6 -7 -5
f -6 -5 -4
f -4 -5 -3
f -4 -3 -2
f -2 -3 -1

o 2 b239
usemtl 0xC850A0
v 3.166 1.613 1.549
v 3.754 1.613 1.549
v 3.754 2.201 1.549
v 3.166 2.201 1.549
v 3.166 1.613 1.549
v 3.166 1.613 1.549
v 3.166 1.613 1.478
v 3.754 1.613 1.549
v 3.754 1.613 1.478
v 3.754 2.201 1.549
v 3.754 2.201 1.478
v 3.166 2.201 1.549
v 3.166 2.201 1.478
v 3.166 1.613 1.549
v 3.166 1.613 1.478

f -12 -15 -14
f -14 -13 -12
f -10 -9 -8
f -8 -9 -7
f -8 -7 -6
f -6 -7 -5
f -6 -5 -4
f -4 -5 -3
f -4 -3 -2
f -2 -3 -1

o 2 b123
usemtl 0xC850A0
v 3.163 2.513 1.549
v 3.457 2.513 1.549
v 3.457 3.101 1.549
v 3.163 3.101 1.549
v 3.163 2.513 1.549
v 3.163 2.513 1.549
v 3.163 2.513 1.478
v 3.457 2.513 1.549
v 3.457 2.513 1.478
v 3.457 3.101 1.549
v 3.457 3.101 1.478
v 3.163 3.101 1.549
v 3.163 3.101 1.478
v 3.163 2.513 1.549
v 3.163 2.513 1.478

f -12 -15 -14
f -14 -13 -12
f -10 -9 -8
f -8 -9 -7
f -8 -7 -6
f -6 -7 -5
f -6 -5 -4
f -4 -5 -3
f -4 -3 -2
f -2 -3 -1

o 2 b122
usemtl 0xC850A0
v 3.163 3.11 1.549
v 3.457 3.11 1.549
v 3.457 3.404 1.549
v 3.163 3.404 1.549
v 3.163 3.11 1.549
v 3.163 3.11 1.549
v 3.163 3.11 1.478
v 3.457 3.11 1.549
v 3.457 3.11 1.478
v 3.457 3.404 1.549
v 3.457 3.404 1.478
v 3.163 3.404 1.549
v 3.163 3.404 1.478
v 3.163 3.11 1.549
v 3.163 3.11 1.478

f -12 -15 -14
f -14 -13 -12
f -10 -9 -8
f -8 -9 -7
f -8 -7 -6
f -6 -7 -5
f -6 -5 -4
f -4 -5 -3
f -4 -3 -2
f -2 -3 -1

o 2 b125
usemtl 0xC850A0
v 3.463 2.51 1.549
v 3.757 2.51 1.549
v 3.757 2.804 1.549
v 3.463 2.804 1.549
v 3.463 2.51 1.549
v 3.463 2.51 1.549
v 3.463 2.51 1.478
v 3.757 2.51 1.549
v 3.757 2.51 1.478
v 3.757 2.804 1.549
v 3.757 2.804 1.478
v 3.463 2.804 1.549
v 3.463 2.804 1.478
v 3.463 2.51 1.549
v 3.463 2.51 1.478

f -12 -15 -14
f -14 -13 -12
f -10 -9 -8
f -8 -9 -7
f -8 -7 -6
f -6 -7 -5
f -6 -5 -4
f -4 -5 -3
f -4 -3 -2
f -2 -3 -1

o 2 b126
usemtl 0xC850A0
v 3.463 2.81 1.549
v 3.757 2.81 1.549
v 3.757 3.104 1.549
v 3.463 3.104 1.549
v 3.463 2.81 1.549
v 3.463 2.81 1.549
v 3.463 2.81 1.478
v 3.757 2.81 1.549
v 3.757 2.81 1.478
v 3.757 3.104 1.549
v 3.757 3.104 1.478
v 3.463 3.104 1.549
v 3.463 3.104 1.478
v 3.463 2.81 1.549
v 3.463 2.81 1.478

f -12 -15 -14
f -14 -13 -12
f -10 -9 -8
f -8 -9 -7
f -8 -7 -6
f -6 -7 -5
f -6 -5 -4
f -4 -5 -3
f -4 -3 -2
f -2 -3 -1

o 2 b127
usemtl 0xC850A0
v 3.463 3.11 1.549
v 3.757 3.11 1.549
v 3.757 3.404 1.549
v 3.463 3.404 1.549
v 3.463 3.11 1.549
v 3.463 3.11 1.549
v 3.463 3.11 1.478
v 3.757 3.11 1.549
v 3.757 3.11 1.478
v 3.757 3.404 1.549
v 3.757 3.404 1.478
v 3.463 3.404 1.549
v 3.463 3.404 1.478
v 3.463 3.11 1.549
v 3.463 3.11 1.478

f -12 -15 -14
f -14 -13 -12
f -10 -9 -8
f -8 -9 -7
f -8 -7 -6
f -6 -7 -5
f -6 -5 -4
f -4 -5 -3
f -4 -3 -2
f -2 -3 -1

o 2 b345
usemtl 0xC850A0
v 4.066 0.71 1.549
v 4.654 0.71 1.549
v 4.654 1.004 1.549
v 4.066 1.004 1.549
v 4.066 0.71 1.549
v 4.066 0.71 1.549
v 4.066 0.71 1.478
v 4.654 0.71 1.549
v 4.654 0.71 1.478
v 4.654 1.004 1.549
v 4.654 1.004 1.478
v 4.066 1.004 1.549
v 4.066 1.004 1.478
v 4.066 0.71 1.549
v 4.066 0.71 1.478

f -12 -15 -14
f -14 -13 -12
f -10 -9 -8
f -8 -9 -7
f -8 -7 -6
f -6 -7 -5
f -6 -5 -4
f -4 -5 -3
f -4 -3 -2
f -2 -3 -1

o 2 b349
usemtl 0xC850A0
v 4.663 0.71 1.549
v 4.957 0.71 1.549
v 4.957 1.004 1.549
v 4.663 1.004 1.549
v 4.663 0.71 1.549
v 4.663 0.71 1.549
v 4.663 0.71 1.478
v 4.957 0.71 1.549
v 4.957 0.71 1.478
v 4.957 1.004 1.549
v 4.957 1.004 1.478
v 4.663 1.004 1.549
v 4.663 1.004 1.478
v 4.663 0.71 1.549
v 4.663 0.71 1.478

f -12 -15 -14
f -14 -13 -12
f -10 -9 -8
f -8 -9 -7
f -8 -7 -6
f -6 -7 -5
f -6 -5 -4
f -4 -5 -3
f -4 -3 -2
f -2 -3 -1

o 2 b344
usemtl 0xC850A0
v 4.066 1.01 1.549
v 4.654 1.01 1.549
v 4.654 1.304 1.549
v 4.066 1.304 1.549
v 4.066 1.01 1.549
v 4.066 1.01 1.549
v 4.066 1.01 1.478
v 4.654 1.01 1.549
v 4.654 1.01 1.478
v 4.654 1.304 1.549
v 4.654 1.304 1.478
v 4.066 1.304 1.549
v 4.066 1.304 1.478
v 4.066 1.01 1.549
v 4.066 1.01 1.478

f -12 -15 -14
f -14 -13 -12
f -10 -9 -8
f -8 -9 -7
f -8 -7 -6
f -6 -7 -5
f -6 -5 -4
f -4 -5 -3
f -4 -3 -2
f -2 -3 -1

o 2 b348
usemtl 0xC850A0
v 4.663 1.01 1.549
v 4.957 1.01 1.549
v 4.957 1.304 1.549
v 4.663 1.304 1.549
v 4.663 1.01 1.549
v 4.663 1.01 1.549
v 4.663 1.01 1.478
v 4.957 1.01 1.549
v 4.957 1.01 1.478
v 4.957 1.304 1.549
v 4.957 1.304 1.478
v 4.663 1.304 1.549
v 4.663 1.304 1.478
v 4.663 1.01 1.549
v 4.663 1.01 1.478

f -12 -15 -14
f -14 -13 -12
f -10 -9 -8
f -8 -9 -7
f -8 -7 -6
f -6 -7 -5
f -6 -5 -4
f -4 -5 -3
f -4 -3 -2
f -2 -3 -1

o 2 b353
usemtl 0xC850A0
v 5.263 0.71 1.549
v 5.557 0.71 1.549
v 5.557 1.004 1.549
v 5.263 1.004 1.549
v 5.263 0.71 1.549
v 5.263 0.71 1.549
v 5.263 0.71 1.478
v 5.557 0.71 1.549
v 5.557 0.71 1.478
v 5.557 1.004 1.549
v 5.557 1.004 1.478
v 5.263 1.004 1.549
v 5.263 1.004 1.478
v 5.263 0.71 1.549
v 5.263 0.71 1.478

f -12 -15 -14
f -14 -13 -12
f -10 -9 -8
f -8 -9 -7
f -8 -7 -6
f -6 -7 -5
f -6 -5 -4
f -4 -5 -3
f -4 -3 -2
f -2 -3 -1

o 2 b245
usemtl 0xC850A0
v 4.063 1.61 1.549
v 4.357 1.61 1.549
v 4.357 1.904 1.549
v 4.063 1.904 1.549
v 4.063 1.61 1.549
v 4.063 1.61 1.549
v 4.063 1.61 1.478
v 4.357 1.61 1.549
v 4.357 1.61 1.478
v 4.357 1.904 1.549
v 4.357 1.904 1.478
v 4.063 1.904 1.549
v 4.063 1.904 1.478
v 4.063 1.61 1.549
v 4.063 1.61 1.478

f -12 -15 -14
f -14 -13 -12
f -10 -9 -8
f -8 -9 -7
f -8 -7 -6
f -6 -7 -5
f -6 -5 -4
f -4 -5 -3
f -4 -3 -2
f -2 -3 -1

o 2 b247
usemtl 0xC850A0
v 4.363 1.61 1.549
v 4.657 1.61 1.549
v 4.657 1.904 1.549
v 4.363 1.904 1.549
v 4.363 1.61 1.549
v 4.363 1.61 1.549
v 4.363 1.61 1.478
v 4.657 1.61 1.549
v 4.657 1.61 1.478
v 4.657 1.904 1.549
v 4.657 1.904 1.478
v 4.363 1.904 1.549
v 4.363 1.904 1.478
v 4.363 1.61 1.549
v 4.363 1.61 1.478

f -12 -15 -14
f -14 -13 -12
f -10 -9 -8
f -8 -9 -7
f -8 -7 -6
f -6 -7 -5
f -6 -5 -4
f -4 -5 -3
f -4 -3 -2
f -2 -3 -1

o 2 b249
usemtl 0xC850A0
v 4.663 1.61 1.549
v 4.957 1.61 1.549
v 4.957 1.904 1.549
v 4.663 1.904 1.549
v 4.663 1.61 1.549
v 4.663 1.61 1.549
v 4.663 1.61 1.478
v 4.957 1.61 1.549
v 4.957 1.61 1.478
v 4.957 1.904 1.549
v 4.957 1.904 1.478
v 4.663 1.904 1.549
v 4.663 1.904 1.478
v 4.663 1.61 1.549
v 4.663 1.61 1.478

f -12 -15 -14
f -14 -13 -12
f -10 -9 -8
f -8 -9 -7
f -8 -7 -6
f -6 -7 -5
f -6 -5 -4
f -4 -5 -3
f -4 -3 -2
f -2 -3 -1

o 2 b244
usemtl 0xC850A0
v 4.063 1.91 1.549
v 4.357 1.91 1.549
v 4.357 2.204 1.549
v 4.063 2.204 1.549
v 4.063 1.91 1.549
v 4.063 1.91 1.549
v 4.063 1.91 1.478
v 4.357 1.91 1.549
v 4.357 1.91 1.478
v 4.357 2.204 1.549
v 4.357 2.204 1.478
v 4.063 2.204 1.549
v 4.063 2.204 1.478
v 4.063 1.91 1.549
v 4.063 1.91 1.478

f -12 -15 -14
f -14 -13 -12
f -10 -9 -8
f -8 -9 -7
f -8 -7 -6
f -6 -7 -5
f -6 -5 -4
f -4 -5 -3
f -4 -3 -2
f -2 -3 -1

o 2 b246
usemtl 0xC850A0
v 4.363 1.91 1.549
v 4.657 1.91 1.549
v 4.657 2.204 1.549
v 4.363 2.204 1.549
v 4.363 1.91 1.549
v 4.363 1.91 1.549
v 4.363 1.91 1.478
v 4.657 1.91 1.549
v 4.657 1.91 1.478
v 4.657 2.204 1.549
v 4.657 2.204 1.478
v 4.363 2.204 1.549
v 4.363 2.204 1.478
v 4.363 1.91 1.549
v 4.363 1.91 1.478

f -12 -15 -14
f -14 -13 -12
f -10 -9 -8
f -8 -9 -7
f -8 -7 -6
f -6 -7 -5
f -6 -5 -4
f -4 -5 -3
f -4 -3 -2
f -2 -3 -1

o 2 b248
usemtl 0xC850A0
v 4.663 1.91 1.549
v 4.957 1.91 1.549
v 4.957 2.204 1.549
v 4.663 2.204 1.549
v 4.663 1.91 1.549
v 4.663 1.91 1.549
v 4.663 1.91 1.478
v 4.957 1.91 1.549
v 4.957 1.91 1.478
v 4.957 2.204 1.549
v 4.957 2.204 1.478
v 4.663 2.204 1.549
v 4.663 2.204 1.478
v 4.663 1.91 1.549
v 4.663 1.91 1.478

f -12 -15 -14
f -14 -13 -12
f -10 -9 -8
f -8 -9 -7
f -8 -7 -6
f -6 -7 -5
f -6 -5 -4
f -4 -5 -3
f -4 -3 -2
f -2 -3 -1

o 2 b128
usemtl 0xC850A0
v 4.069 2.516 1.549
v 4.951 2.516 1.549
v 4.951 3.398 1.549
v 4.069 3.398 1.549
v 4.069 2.516 1.549
v 4.069 2.516 1.549
v 4.069 2.516 1.478
v 4.951 2.516 1.549
v 4.951 2.516 1.478
v 4.951 3.398 1.549
v 4.951 3.398 1.478
v 4.069 3.398 1.549
v 4.069 3.398 1.478
v 4.069 2.516 1.549
v 4.069 2.516 1.478

f -12 -15 -14
f -14 -13 -12
f -10 -9 -8
f -8 -9 -7
f -8 -7 -6
f -6 -7 -5
f -6 -5 -4
f -4 -5 -3
f -4 -3 -2
f -2 -3 -1

o 2 b352
usemtl 0xC850A0
v 5.263 1.01 1.549
v 5.557 1.01 1.549
v 5.557 1.304 1.549
v 5.263 1.304 1.549
v 5.263 1.01 1.549
v 5.263 1.01 1.549
v 5.263 1.01 1.478
v 5.557 1.01 1.549
v 5.557 1.01 1.478
v 5.557 1.304 1.549
v 5.557 1.304 1.478
v 5.263 1.304 1.549
v 5.263 1.304 1.478
v 5.263 1.01 1.549
v 5.263 1.01 1.478

f -12 -15 -14
f -14 -13 -12
f -10 -9 -8
f -8 -9 -7
f -8 -7 -6
f -6 -7 -5
f -6 -5 -4
f -4 -5 -3
f -4 -3 -2
f -2 -3 -1

o 2 b354
usemtl 0xC850A0
v 5.563 0.713 1.549
v 5.857 0.713 1.549
v 5.857 1.301 1.549
v 5.563 1.301 1.549
v 5.563 0.713 1.549
v 5.563 0.713 1.549
v 5.563 0.713 1.478
v 5.857 0.713 1.549
v 5.857 0.713 1.478
v 5.857 1.301 1.549
v 5.857 1.301 1.478
v 5.563 1.301 1.549
v 5.563 1.301 1.478
v 5.563 0.713 1.549
v 5.563 0.713 1.478

f -12 -15 -14
f -14 -13 -12
f -10 -9 -8
f -8 -9 -7
f -8 -7 -6
f -6 -7 -5
f -6 -5 -4
f -4 -5 -3
f -4 -3 -2
f -2 -3 -1

o 2 b253
usemtl 0xC850A0
v 5.266 1.61 1.549
v 5.854 1.61 1.549
v 5.854 1.904 1.549
v 5.266 1.904 1.549
v 5.266 1.61 1.549
v 5.266 1.61 1.549
v 5.266 1.61 1.478
v 5.854 1.61 1.549
v 5.854 1.61 1.478
v 5.854 1.904 1.549
v 5.854 1.904 1.478
v 5.266 1.904 1.549
v 5.266 1.904 1.478
v 5.266 1.61 1.549
v 5.266 1.61 1.478

f -12 -15 -14
f -14 -13 -12
f -10 -9 -8
f -8 -9 -7
f -8 -7 -6
f -6 -7 -5
f -6 -5 -4
f -4 -5 -3
f -4 -3 -2
f -2 -3 -1

o 2 b257
usemtl 0xC850A0
v 5.863 1.61 1.549
v 6.157 1.61 1.549
v 6.157 1.904 1.549
v 5.863 1.904 1.549
v 5.863 1.61 1.549
v 5.863 1.61 1.549
v 5.863 1.61 1.478
v 6.157 1.61 1.549
v 6.157 1.61 1.478
v 6.157 1.904 1.549
v 6.157 1.904 1.478
v 5.863 1.904 1.549
v 5.863 1.904 1.478
v 5.863 1.61 1.549
v 5.863 1.61 1.478

f -12 -15 -14
f -14 -13 -12
f -10 -9 -8
f -8 -9 -7
f -8 -7 -6
f -6 -7 -5
f -6 -5 -4
f -4 -5 -3
f -4 -3 -2
f -2 -3 -1

o 2 b259
usemtl 0xC850A0
v 6.163 1.61 1.549
v 6.457 1.61 1.549
v 6.457 1.904 1.549
v 6.163 1.904 1.549
v 6.163 1.61 1.549
v 6.163 1.61 1.549
v 6.163 1.61 1.478
v 6.457 1.61 1.549
v 6.457 1.61 1.478
v 6.457 1.904 1.549
v 6.457 1.904 1.478
v 6.163 1.904 1.549
v 6.163 1.904 1.478
v 6.163 1.61 1.549
v 6.163 1.61 1.478

f -12 -15 -14
f -14 -13 -12
f -10 -9 -8
f -8 -9 -7
f -8 -7 -6
f -6 -7 -5
f -6 -5 -4
f -4 -5 -3
f -4 -3 -2
f -2 -3 -1

o 2 b261
usemtl 0xC850A0
v 6.466 1.61 1.549
v 7.054 1.61 1.549
v 7.054 1.904 1.549
v 6.466 1.904 1.549
v 6.466 1.61 1.549
v 6.466 1.61 1.549
v 6.466 1.61 1.478
v 7.054 1.61 1.549
v 7.054 1.61 1.478
v 7.054 1.904 1.549
v 7.054 1.904 1.478
v 6.466 1.904 1.549
v 6.466 1.904 1.478
v 6.466 1.61 1.549
v 6.466 1.61 1.478

f -12 -15 -14
f -14 -13 -12
f -10 -9 -8
f -8 -9 -7
f -8 -7 -6
f -6 -7 -5
f -6 -5 -4
f -4 -5 -3
f -4 -3 -2
f -2 -3 -1

o 2 b252
usemtl 0xC850A0
v 5.263 1.91 1.549
v 5.557 1.91 1.549
v 5.557 2.204 1.549
v 5.263 2.204 1.549
v 5.263 1.91 1.549
v 5.263 1.91 1.549
v 5.263 1.91 1.478
v 5.557 1.91 1.549
v 5.557 1.91 1.478
v 5.557 2.204 1.549
v 5.557 2.204 1.478
v 5.263 2.204 1.549
v 5.263 2.204 1.478
v 5.263 1.91 1.549
v 5.263 1.91 1.478

f -12 -15 -14
f -14 -13 -12
f -10 -9 -8
f -8 -9 -7
f -8 -7 -6
f -6 -7 -5
f -6 -5 -4
f -4 -5 -3
f -4 -3 -2
f -2 -3 -1

o 2 b254
usemtl 0xC850A0
v 5.563 1.91 1.549
v 5.857 1.91 1.549
v 5.857 2.204 1.549
v 5.563 2.204 1.549
v 5.563 1.91 1.549
v 5.563 1.91 1.549
v 5.563 1.91 1.478
v 5.857 1.91 1.549
v 5.857 1.91 1.478
v 5.857 2.204 1.549
v 5.857 2.204 1.478
v 5.563 2.204 1.549
v 5.563 2.204 1.478
v 5.563 1.91 1.549
v 5.563 1.91 1.478

f -12 -15 -14
f -14 -13 -12
f -10 -9 -8
f -8 -9 -7
f -8 -7 -6
f -6 -7 -5
f -6 -5 -4
f -4 -5 -3
f -4 -3 -2
f -2 -3 -1

o 2 b256
usemtl 0xC850A0
v 5.863 1.91 1.549
v 6.157 1.91 1.549
v 6.157 2.204 1.549
v 5.863 2.204 1.549
v 5.863 1.91 1.549
v 5.863 1.91 1.549
v 5.863 1.91 1.478
v 6.157 1.91 1.549
v 6.157 1.91 1.478
v 6.157 2.204 1.549
v 6.157 2.204 1.478
v 5.863 2.204 1.549
v 5.863 2.204 1.478
v 5.863 1.91 1.549
v 5.863 1.91 1.478

f -12 -15 -14
f -14 -13 -12
f -10 -9 -8
f -8 -9 -7
f -8 -7 -6
f -6 -7 -5
f -6 -5 -4
f -4 -5 -3
f -4 -3 -2
f -2 -3 -1

o 2 b258
usemtl 0xC850A0
v 6.163 1.91 1.549
v 6.457 1.91 1.549
v 6.457 2.204 1.549
v 6.163 2.204 1.549
v 6.163 1.91 1.549
v 6.163 1.91 1.549
v 6.163 1.91 1.478
v 6.457 1.91 1.549
v 6.457 1.91 1.478
v 6.457 2.204 1.549
v 6.457 2.204 1.478
v 6.163 2.204 1.549
v 6.163 2.204 1.478
v 6.163 1.91 1.549
v 6.163 1.91 1.478

f -12 -15 -14
f -14 -13 -12
f -10 -9 -8
f -8 -9 -7
f -8 -7 -6
f -6 -7 -5
f -6 -5 -4
f -4 -5 -3
f -4 -3 -2
f -2 -3 -1

o 2 b260
usemtl 0xC850A0
v 6.466 1.91 1.549
v 7.054 1.91 1.549
v 7.054 2.204 1.549
v 6.466 2.204 1.549
v 6.466 1.91 1.549
v 6.466 1.91 1.549
v 6.466 1.91 1.478
v 7.054 1.91 1.549
v 7.054 1.91 1.478
v 7.054 2.204 1.549
v 7.054 2.204 1.478
v 6.466 2.204 1.549
v 6.466 2.204 1.478
v 6.466 1.91 1.549
v 6.466 1.91 1.478

f -12 -15 -14
f -14 -13 -12
f -10 -9 -8
f -8 -9 -7
f -8 -7 -6
f -6 -7 -5
f -6 -5 -4
f -4 -5 -3
f -4 -3 -2
f -2 -3 -1

o 2 b132
usemtl 0xC850A0
v 5.263 2.513 1.549
v 5.557 2.513 1.549
v 5.557 3.101 1.549
v 5.263 3.101 1.549
v 5.263 2.513 1.549
v 5.263 2.513 1.549
v 5.263 2.513 1.478
v 5.557 2.513 1.549
v 5.557 2.513 1.478
v 5.557 3.101 1.549
v 5.557 3.101 1.478
v 5.263 3.101 1.549
v 5.263 3.101 1.478
v 5.263 2.513 1.549
v 5.263 2.513 1.478

f -12 -15 -14
f -14 -13 -12
f -10 -9 -8
f -8 -9 -7
f -8 -7 -6
f -6 -7 -5
f -6 -5 -4
f -4 -5 -3
f -4 -3 -2
f -2 -3 -1

o 2 b130
usemtl 0xC850A0
v 5.263 3.11 1.549
v 5.557 3.11 1.549
v 5.557 3.404 1.549
v 5.263 3.404 1.549
v 5.263 3.11 1.549
v 5.263 3.11 1.549
v 5.263 3.11 1.478
v 5.557 3.11 1.549
v 5.557 3.11 1.478
v 5.557 3.404 1.549
v 5.557 3.404 1.478
v 5.263 3.404 1.549
v 5.263 3.404 1.478
v 5.263 3.11 1.549
v 5.263 3.11 1.478

f -12 -15 -14
f -14 -13 -12
f -10 -9 -8
f -8 -9 -7
f -8 -7 -6
f -6 -7 -5
f -6 -5 -4
f -4 -5 -3
f -4 -3 -2
f -2 -3 -1

o 2 b134
usemtl 0xC850A0
v 5.563 2.513 1.549
v 5.857 2.513 1.549
v 5.857 3.101 1.549
v 5.563 3.101 1.549
v 5.563 2.513 1.549
v 5.563 2.513 1.549
v 5.563 2.513 1.478
v 5.857 2.513 1.549
v 5.857 2.513 1.478
v 5.857 3.101 1.549
v 5.857 3.101 1.478
v 5.563 3.101 1.549
v 5.563 3.101 1.478
v 5.563 2.513 1.549
v 5.563 2.513 1.478

f -12 -15 -14
f -14 -13 -12
f -10 -9 -8
f -8 -9 -7
f -8 -7 -6
f -6 -7 -5
f -6 -5 -4
f -4 -5 -3
f -4 -3 -2
f -2 -3 -1

o 2 b135
usemtl 0xC850A0
v 5.563 3.11 1.549
v 5.857 3.11 1.549
v 5.857 3.404 1.549
v 5.563 3.404 1.549
v 5.563 3.11 1.549
v 5.563 3.11 1.549
v 5.563 3.11 1.478
v 5.857 3.11 1.549
v 5.857 3.11 1.478
v 5.857 3.404 1.549
v 5.857 3.404 1.478
v 5.563 3.404 1.549
v 5.563 3.404 1.478
v 5.563 3.11 1.549
v 5.563 3.11 1.478

f -12 -15 -14
f -14 -13 -12
f -10 -9 -8
f -8 -9 -7
f -8 -7 -6
f -6 -7 -5
f -6 -5 -4
f -4 -5 -3
f -4 -3 -2
f -2 -3 -1

o 2 b136
usemtl 0xC850A0
v 6.166 3.11 1.549
v 6.754 3.11 1.549
v 6.754 3.404 1.549
v 6.166 3.404 1.549
v 6.166 3.11 1.549
v 6.166 3.11 1.549
v 6.166 3.11 1.478
v 6.754 3.11 1.549
v 6.754 3.11 1.478
v 6.754 3.404 1.549
v 6.754 3.404 1.478
v 6.166 3.404 1.549
v 6.166 3.404 1.478
v 6.166 3.11 1.549
v 6.166 3.11 1.478

f -12 -15 -14
f -14 -13 -12
f -10 -9 -8
f -8 -9 -7
f -8 -7 -6
f -6 -7 -5
f -6 -5 -4
f -4 -5 -3
f -4 -3 -2
f -2 -3 -1

o 2 b138
usemtl 0xC850A0
v 6.763 3.11 1.549
v 7.057 3.11 1.549
v 7.057 3.404 1.549
v 6.763 3.404 1.549
v 6.763 3.11 1.549
v 6.763 3.11 1.549
v 6.763 3.11 1.478
v 7.057 3.11 1.549
v 7.057 3.11 1.478
v 7.057 3.404 1.549
v 7.057 3.404 1.478
v 6.763 3.404 1.549
v 6.763 3.404 1.478
v 6.763 3.11 1.549
v 6.763 3.11 1.478

f -12 -15 -14
f -14 -13 -12
f -10 -9 -8
f -8 -9 -7
f -8 -7 -6
f -6 -7 -5
f -6 -5 -4
f -4 -5 -3
f -4 -3 -2
f -2 -3 -1

o 2 bInnovation Stage
usemtl 0x2ECACA
v 5.675 -1.092 1.549
v 6.381 -1.092 1.549
v 6.381 -0.71 1.549
v 5.675 -0.71 1.549
v 5.675 -1.092 1.549
v 5.675 -1.092 1.549
v 5.675 -1.092 1.478
v 6.381 -1.092 1.549
v 6.381 -1.092 1.478
v 6.381 -0.71 1.549
v 6.381 -0.71 1.478
v 5.675 -0.71 1.549
v 5.675 -0.71 1.478
v 5.675 -1.092 1.549
v 5.675 -1.092 1.478

f -12 -15 -14
f -14 -13 -12
f -10 -9 -8
f -8 -9 -7
f -8 -7 -6
f -6 -7 -5
f -6 -5 -4
f -4 -5 -3
f -4 -3 -2
f -2 -3 -1

o 2 bTECHBar/Meeting Pool
usemtl 0x2ECACA
v 6.441 0.657 1.549
v 6.735 0.657 1.549
v 6.931 0.853 1.549
v 6.931 1.147 1.549
v 6.735 1.343 1.549
v 6.441 1.343 1.549
v 6.245 1.147 1.549
v 6.245 0.853 1.549
v 6.441 0.657 1.549
v 6.441 0.657 1.549
v 6.441 0.657 1.478
v 6.735 0.657 1.549
v 6.735 0.657 1.478
v 6.931 0.853 1.549
v 6.931 0.853 1.478
v 6.931 1.147 1.549
v 6.931 1.147 1.478
v 6.735 1.343 1.549
v 6.735 1.343 1.478
v 6.441 1.343 1.549
v 6.441 1.343 1.478
v 6.245 1.147 1.549
v 6.245 1.147 1.478
v 6.245 0.853 1.549
v 6.245 0.853 1.478
v 6.441 0.657 1.549
v 6.441 0.657 1.478

f -20 -27 -26
f -26 -25 -24
f -24 -23 -22
f -22 -21 -20
f -20 -26 -24
f -24 -22 -20
f -18 -17 -16
f -16 -17 -15
f -16 -15 -14
f -14 -15 -13
f -14 -13 -12
f -12 -13 -11
f -12 -11 -10
f -10 -11 -9
f -10 -9 -8
f -8 -9 -7
f -8 -7 -6
f -6 -7 -5
f -6 -5 -4
f -4 -5 -3
f -4 -3 -2
f -2 -3 -1

o 2 b103
usemtl 0xC6529E
v -1.337 2.513 1.549
v -1.043 2.513 1.549
v -1.043 3.101 1.549
v -1.337 3.101 1.549
v -1.337 2.513 1.549
v -1.337 2.513 1.549
v -1.337 2.513 1.478
v -1.043 2.513 1.549
v -1.043 2.513 1.478
v -1.043 3.101 1.549
v -1.043 3.101 1.478
v -1.337 3.101 1.549
v -1.337 3.101 1.478
v -1.337 2.513 1.549
v -1.337 2.513 1.478

f -12 -15 -14
f -14 -13 -12
f -10 -9 -8
f -8 -9 -7
f -8 -7 -6
f -6 -7 -5
f -6 -5 -4
f -4 -5 -3
f -4 -3 -2
f -2 -3 -1

o 2 b107
usemtl 0xC6529E
v -1.037 3.11 1.549
v -0.743 3.11 1.549
v -0.743 3.404 1.549
v -1.037 3.404 1.549
v -1.037 3.11 1.549
v -1.037 3.11 1.549
v -1.037 3.11 1.478
v -0.743 3.11 1.549
v -0.743 3.11 1.478
v -0.743 3.404 1.549
v -0.743 3.404 1.478
v -1.037 3.404 1.549
v -1.037 3.404 1.478
v -1.037 3.11 1.549
v -1.037 3.11 1.478

f -12 -15 -14
f -14 -13 -12
f -10 -9 -8
f -8 -9 -7
f -8 -7 -6
f -6 -7 -5
f -6 -5 -4
f -4 -5 -3
f -4 -3 -2
f -2 -3 -1

o 2 b106
usemtl 0xC6529E
v -1.037 2.81 1.549
v -0.743 2.81 1.549
v -0.743 3.104 1.549
v -1.037 3.104 1.549
v -1.037 2.81 1.549
v -1.037 2.81 1.549
v -1.037 2.81 1.478
v -0.743 2.81 1.549
v -0.743 2.81 1.478
v -0.743 3.104 1.549
v -0.743 3.104 1.478
v -1.037 3.104 1.549
v -1.037 3.104 1.478
v -1.037 2.81 1.549
v -1.037 2.81 1.478

f -12 -15 -14
f -14 -13 -12
f -10 -9 -8
f -8 -9 -7
f -8 -7 -6
f -6 -7 -5
f -6 -5 -4
f -4 -5 -3
f -4 -3 -2
f -2 -3 -1

o 2 b105
usemtl 0xC6529E
v -1.037 2.51 1.549
v -0.743 2.51 1.549
v -0.743 2.804 1.549
v -1.037 2.804 1.549
v -1.037 2.51 1.549
v -1.037 2.51 1.549
v -1.037 2.51 1.478
v -0.743 2.51 1.549
v -0.743 2.51 1.478
v -0.743 2.804 1.549
v -0.743 2.804 1.478
v -1.037 2.804 1.549
v -1.037 2.804 1.478
v -1.037 2.51 1.549
v -1.037 2.51 1.478

f -12 -15 -14
f -14 -13 -12
f -10 -9 -8
f -8 -9 -7
f -8 -7 -6
f -6 -7 -5
f -6 -5 -4
f -4 -5 -3
f -4 -3 -2
f -2 -3 -1

o 2 b526
usemtl 0xC6529E
v 1.363 -0.79 1.549
v 1.657 -0.79 1.549
v 1.657 -0.496 1.549
v 1.363 -0.496 1.549
v 1.363 -0.79 1.549
v 1.363 -0.79 1.549
v 1.363 -0.79 1.478
v 1.657 -0.79 1.549
v 1.657 -0.79 1.478
v 1.657 -0.496 1.549
v 1.657 -0.496 1.478
v 1.363 -0.496 1.549
v 1.363 -0.496 1.478
v 1.363 -0.79 1.549
v 1.363 -0.79 1.478

f -12 -15 -14
f -14 -13 -12
f -10 -9 -8
f -8 -9 -7
f -8 -7 -6
f -6 -7 -5
f -6 -5 -4
f -4 -5 -3
f -4 -3 -2
f -2 -3 -1

o 2 b528
usemtl 0xC6529E
v 1.663 -0.79 1.549
v 1.957 -0.79 1.549
v 1.957 -0.496 1.549
v 1.663 -0.496 1.549
v 1.663 -0.79 1.549
v 1.663 -0.79 1.549
v 1.663 -0.79 1.478
v 1.957 -0.79 1.549
v 1.957 -0.79 1.478
v 1.957 -0.496 1.549
v 1.957 -0.496 1.478
v 1.663 -0.496 1.549
v 1.663 -0.496 1.478
v 1.663 -0.79 1.549
v 1.663 -0.79 1.478

f -12 -15 -14
f -14 -13 -12
f -10 -9 -8
f -8 -9 -7
f -8 -7 -6
f -6 -7 -5
f -6 -5 -4
f -4 -5 -3
f -4 -3 -2
f -2 -3 -1

o 2 b219
usemtl 0xC850A0
v 0.163 1.61 1.549
v 0.457 1.61 1.549
v 0.457 1.904 1.549
v 0.163 1.904 1.549
v 0.163 1.61 1.549
v 0.163 1.61 1.549
v 0.163 1.61 1.478
v 0.457 1.61 1.549
v 0.457 1.61 1.478
v 0.457 1.904 1.549
v 0.457 1.904 1.478
v 0.163 1.904 1.549
v 0.163 1.904 1.478
v 0.163 1.61 1.549
v 0.163 1.61 1.478

f -12 -15 -14
f -14 -13 -12
f -10 -9 -8
f -8 -9 -7
f -8 -7 -6
f -6 -7 -5
f -6 -5 -4
f -4 -5 -3
f -4 -3 -2
f -2 -3 -1

o 2 b218
usemtl 0xC850A0
v 0.163 1.91 1.549
v 0.457 1.91 1.549
v 0.457 2.204 1.549
v 0.163 2.204 1.549
v 0.163 1.91 1.549
v 0.163 1.91 1.549
v 0.163 1.91 1.478
v 0.457 1.91 1.549
v 0.457 1.91 1.478
v 0.457 2.204 1.549
v 0.457 2.204 1.478
v 0.163 2.204 1.549
v 0.163 2.204 1.478
v 0.163 1.91 1.549
v 0.163 1.91 1.478

f -12 -15 -14
f -14 -13 -12
f -10 -9 -8
f -8 -9 -7
f -8 -7 -6
f -6 -7 -5
f -6 -5 -4
f -4 -5 -3
f -4 -3 -2
f -2 -3 -1

o 2 b419
usemtl 0xC850A0
v 0.163 -0.19 1.549
v 0.457 -0.19 1.549
v 0.457 0.104 1.549
v 0.163 0.104 1.549
v 0.163 -0.19 1.549
v 0.163 -0.19 1.549
v 0.163 -0.19 1.478
v 0.457 -0.19 1.549
v 0.457 -0.19 1.478
v 0.457 0.104 1.549
v 0.457 0.104 1.478
v 0.163 0.104 1.549
v 0.163 0.104 1.478
v 0.163 -0.19 1.549
v 0.163 -0.19 1.478

f -12 -15 -14
f -14 -13 -12
f -10 -9 -8
f -8 -9 -7
f -8 -7 -6
f -6 -7 -5
f -6 -5 -4
f -4 -5 -3
f -4 -3 -2
f -2 -3 -1

o 2 b418
usemtl 0xC850A0
v 0.163 0.11 1.549
v 0.457 0.11 1.549
v 0.457 0.404 1.549
v 0.163 0.404 1.549
v 0.163 0.11 1.549
v 0.163 0.11 1.549
v 0.163 0.11 1.478
v 0.457 0.11 1.549
v 0.457 0.11 1.478
v 0.457 0.404 1.549
v 0.457 0.404 1.478
v 0.163 0.404 1.549
v 0.163 0.404 1.478
v 0.163 0.11 1.549
v 0.163 0.11 1.478

f -12 -15 -14
f -14 -13 -12
f -10 -9 -8
f -8 -9 -7
f -8 -7 -6
f -6 -7 -5
f -6 -5 -4
f -4 -5 -3
f -4 -3 -2
f -2 -3 -1

o 2 b467
usemtl 0xC850A0
v 7.363 0.11 1.549
v 7.657 0.11 1.549
v 7.657 0.404 1.549
v 7.363 0.404 1.549
v 7.363 0.11 1.549
v 7.363 0.11 1.549
v 7.363 0.11 1.478
v 7.657 0.11 1.549
v 7.657 0.11 1.478
v 7.657 0.404 1.549
v 7.657 0.404 1.478
v 7.363 0.404 1.549
v 7.363 0.404 1.478
v 7.363 0.11 1.549
v 7.363 0.11 1.478

f -12 -15 -14
f -14 -13 -12
f -10 -9 -8
f -8 -9 -7
f -8 -7 -6
f -6 -7 -5
f -6 -5 -4
f -4 -5 -3
f -4 -3 -2
f -2 -3 -1

o 2 b518
usemtl 0xC850A0
v 0.163 -0.79 1.549
v 0.457 -0.79 1.549
v 0.457 -0.496 1.549
v 0.163 -0.496 1.549
v 0.163 -0.79 1.549
v 0.163 -0.79 1.549
v 0.163 -0.79 1.478
v 0.457 -0.79 1.549
v 0.457 -0.79 1.478
v 0.457 -0.496 1.549
v 0.457 -0.496 1.478
v 0.163 -0.496 1.549
v 0.163 -0.496 1.478
v 0.163 -0.79 1.549
v 0.163 -0.79 1.478

f -12 -15 -14
f -14 -13 -12
f -10 -9 -8
f -8 -9 -7
f -8 -7 -6
f -6 -7 -5
f -6 -5 -4
f -4 -5 -3
f -4 -3 -2
f -2 -3 -1

o 2 b519
usemtl 0xC850A0
v 0.163 -1.09 1.549
v 0.457 -1.09 1.549
v 0.457 -0.796 1.549
v 0.163 -0.796 1.549
v 0.163 -1.09 1.549
v 0.163 -1.09 1.549
v 0.163 -1.09 1.478
v 0.457 -1.09 1.549
v 0.457 -1.09 1.478
v 0.457 -0.796 1.549
v 0.457 -0.796 1.478
v 0.163 -0.796 1.549
v 0.163 -0.796 1.478
v 0.163 -1.09 1.549
v 0.163 -1.09 1.478

f -12 -15 -14
f -14 -13 -12
f -10 -9 -8
f -8 -9 -7
f -8 -7 -6
f -6 -7 -5
f -6 -5 -4
f -4 -5 -3
f -4 -3 -2
f -2 -3 -1

o 2 b618
usemtl 0xC850A0
v 0.163 -1.69 1.549
v 0.457 -1.69 1.549
v 0.457 -1.396 1.549
v 0.163 -1.396 1.549
v 0.163 -1.69 1.549
v 0.163 -1.69 1.549
v 0.163 -1.69 1.478
v 0.457 -1.69 1.549
v 0.457 -1.69 1.478
v 0.457 -1.396 1.549
v 0.457 -1.396 1.478
v 0.163 -1.396 1.549
v 0.163 -1.396 1.478
v 0.163 -1.69 1.549
v 0.163 -1.69 1.478

f -12 -15 -14
f -14 -13 -12
f -10 -9 -8
f -8 -9 -7
f -8 -7 -6
f -6 -7 -5
f -6 -5 -4
f -4 -5 -3
f -4 -3 -2
f -2 -3 -1

o 2 bEntrance
usemtl 0x1E0039
v 4.281 4.318 1.549
v 3.938 4.318 1.549
v 4.109 4.11 1.549
v 4.281 4.318 1.549
v 4.281 4.318 1.549
v 4.281 4.318 1.478
v 3.938 4.318 1.549
v 3.938 4.318 1.478
v 4.109 4.11 1.549
v 4.109 4.11 1.478
v 4.281 4.318 1.549
v 4.281 4.318 1.478

f -10 -12 -11
f -8 -7 -6
f -6 -7 -5
f -6 -5 -4
f -4 -5 -3
f -4 -3 -2
f -2 -3 -1

o 2 bEntrance
usemtl 0x1E0039
v 4.039 4.239 1.549
v 4.181 4.239 1.549
v 4.181 4.504 1.549
v 4.039 4.504 1.549
v 4.039 4.239 1.549
v 4.039 4.239 1.549
v 4.039 4.239 1.478
v 4.181 4.239 1.549
v 4.181 4.239 1.478
v 4.181 4.504 1.549
v 4.181 4.504 1.478
v 4.039 4.504 1.549
v 4.039 4.504 1.478
v 4.039 4.239 1.549
v 4.039 4.239 1.478

f -12 -15 -14
f -14 -13 -12
f -10 -9 -8
f -8 -9 -7
f -8 -7 -6
f -6 -7 -5
f -6 -5 -4
f -4 -5 -3
f -4 -3 -2
f -2 -3 -1

o 2 2_0
usemtl 2_0.webp
v -8.5087 -6.284271 1.4783121150000003
v 8.824927 -6.284389 1.4783121150000003
v 8.824838 6.723999 1.4783121150000003
v -8.50876 6.723892 1.4783121150000003
vt 0 0 0
vt 1 0 0
vt 0 1 0
vt 1 1 0
f -4/4 -3/3 -2/1 -1/2

mtllib nweventshow2023.mtl

o 1 bRegistration 1
usemtl 0x2ECACA
v -2.165 0.868 2.253
v -2.165 1.986 2.253
v -2.655 1.986 2.253
v -2.655 0.868 2.253
v -2.165 0.868 2.253
v -2.165 0.868 2.253
v -2.165 0.868 2.182
v -2.165 1.986 2.253
v -2.165 1.986 2.182
v -2.655 1.986 2.253
v -2.655 1.986 2.182
v -2.655 0.868 2.253
v -2.655 0.868 2.182
v -2.165 0.868 2.253
v -2.165 0.868 2.182

f -12 -15 -14
f -14 -13 -12
f -10 -9 -8
f -8 -9 -7
f -8 -7 -6
f -6 -7 -5
f -6 -5 -4
f -4 -5 -3
f -4 -3 -2
f -2 -3 -1

o 1 bRegistration 2
usemtl 0x2ECACA
v -2.165 -0.332 2.253
v -2.165 0.776 2.253
v -2.655 0.776 2.253
v -2.655 -0.332 2.253
v -2.165 -0.332 2.253
v -2.165 -0.332 2.253
v -2.165 -0.332 2.182
v -2.165 0.776 2.253
v -2.165 0.776 2.182
v -2.655 0.776 2.253
v -2.655 0.776 2.182
v -2.655 -0.332 2.253
v -2.655 -0.332 2.182
v -2.165 -0.332 2.253
v -2.165 -0.332 2.182

f -12 -15 -14
f -14 -13 -12
f -10 -9 -8
f -8 -9 -7
f -8 -7 -6
f -6 -7 -5
f -6 -5 -4
f -4 -5 -3
f -4 -3 -2
f -2 -3 -1

o 1 b1200
usemtl 0xC6529E
v -1.897 3.799 2.253
v -1.73 3.965 2.253
v -1.772 4.007 2.253
v -1.938 3.841 2.253
v -1.897 3.799 2.253
v -1.897 3.799 2.253
v -1.897 3.799 2.182
v -1.73 3.965 2.253
v -1.73 3.965 2.182
v -1.772 4.007 2.253
v -1.772 4.007 2.182
v -1.938 3.841 2.253
v -1.938 3.841 2.182
v -1.897 3.799 2.253
v -1.897 3.799 2.182

f -12 -15 -14
f -14 -13 -12
f -10 -9 -8
f -8 -9 -7
f -8 -7 -6
f -6 -7 -5
f -6 -5 -4
f -4 -5 -3
f -4 -3 -2
f -2 -3 -1

o 1 bInformation Desk
usemtl 0x2ECACA
v -2.019 4.853 2.253
v -1.754 4.853 2.253
v -1.754 5.117 2.253
v -2.019 5.117 2.253
v -2.019 4.853 2.253
v -2.019 4.853 2.253
v -2.019 4.853 2.182
v -1.754 4.853 2.253
v -1.754 4.853 2.182
v -1.754 5.117 2.253
v -1.754 5.117 2.182
v -2.019 5.117 2.253
v -2.019 5.117 2.182
v -2.019 4.853 2.253
v -2.019 4.853 2.182

f -12 -15 -14
f -14 -13 -12
f -10 -9 -8
f -8 -9 -7
f -8 -7 -6
f -6 -7 -5
f -6 -5 -4
f -4 -5 -3
f -4 -3 -2
f -2 -3 -1

o 1 1_0
usemtl 1_0.webp
v -8.569399 -6.284266 2.182270265
v 8.744225 -6.284216 2.182270265
v 8.744124 6.27575 2.182270265
v -8.569345 6.275611 2.182270265
vt 0 0 0
vt 1 0 0
vt 0 1 0
vt 1 1 0
f -4/4 -3/3 -2/1 -1/2

mtllib nweventshow2023.mtl

o EXHIBITHALL bFirst Aid
usemtl 0x2ECACA
v -5.877 5.305 2.957
v -5.387 5.305 2.957
v -5.387 5.795 2.957
v -5.877 5.795 2.957
v -5.877 5.305 2.957
v -5.877 5.305 2.957
v -5.877 5.305 2.886
v -5.387 5.305 2.957
v -5.387 5.305 2.886
v -5.387 5.795 2.957
v -5.387 5.795 2.886
v -5.877 5.795 2.957
v -5.877 5.795 2.886
v -5.877 5.305 2.957
v -5.877 5.305 2.886

f -12 -15 -14
f -14 -13 -12
f -10 -9 -8
f -8 -9 -7
f -8 -7 -6
f -6 -7 -5
f -6 -5 -4
f -4 -5 -3
f -4 -3 -2
f -2 -3 -1

o EXHIBITHALL b1008
usemtl 0xC6529E
v -5.948 -1.414 2.957
v -1.832 -1.414 2.957
v -1.832 -0.532 2.957
v -5.948 -0.532 2.957
v -5.948 -1.414 2.957
v -5.948 -1.414 2.957
v -5.948 -1.414 2.886
v -1.832 -1.414 2.957
v -1.832 -1.414 2.886
v -1.832 -0.532 2.957
v -1.832 -0.532 2.886
v -5.948 -0.532 2.957
v -5.948 -0.532 2.886
v -5.948 -1.414 2.957
v -5.948 -1.414 2.886

f -12 -15 -14
f -14 -13 -12
f -10 -9 -8
f -8 -9 -7
f -8 -7 -6
f -6 -7 -5
f -6 -5 -4
f -4 -5 -3
f -4 -3 -2
f -2 -3 -1

o EXHIBITHALL b903
usemtl 0xC6529E
v -6.884 -0.217 2.957
v -6.296 -0.217 2.957
v -6.296 0.371 2.957
v -6.884 0.371 2.957
v -6.884 -0.217 2.957
v -6.884 -0.217 2.957
v -6.884 -0.217 2.886
v -6.296 -0.217 2.957
v -6.296 -0.217 2.886
v -6.296 0.371 2.957
v -6.296 0.371 2.886
v -6.884 0.371 2.957
v -6.884 0.371 2.886
v -6.884 -0.217 2.957
v -6.884 -0.217 2.886

f -12 -15 -14
f -14 -13 -12
f -10 -9 -8
f -8 -9 -7
f -8 -7 -6
f -6 -7 -5
f -6 -5 -4
f -4 -5 -3
f -4 -3 -2
f -2 -3 -1

o EXHIBITHALL b909
usemtl 0xC6529E
v -5.978 -0.22 2.957
v -4.802 -0.22 2.957
v -4.802 0.074 2.957
v -5.978 0.074 2.957
v -5.978 -0.22 2.957
v -5.978 -0.22 2.957
v -5.978 -0.22 2.886
v -4.802 -0.22 2.957
v -4.802 -0.22 2.886
v -4.802 0.074 2.957
v -4.802 0.074 2.886
v -5.978 0.074 2.957
v -5.978 0.074 2.886
v -5.978 -0.22 2.957
v -5.978 -0.22 2.886

f -12 -15 -14
f -14 -13 -12
f -10 -9 -8
f -8 -9 -7
f -8 -7 -6
f -6 -7 -5
f -6 -5 -4
f -4 -5 -3
f -4 -3 -2
f -2 -3 -1

o EXHIBITHALL b902
usemtl 0xC6529E
v -6.884 0.386 2.957
v -6.296 0.386 2.957
v -6.296 1.268 2.957
v -6.884 1.268 2.957
v -6.884 0.386 2.957
v -6.884 0.386 2.957
v -6.884 0.386 2.886
v -6.296 0.386 2.957
v -6.296 0.386 2.886
v -6.296 1.268 2.957
v -6.296 1.268 2.886
v -6.884 1.268 2.957
v -6.884 1.268 2.886
v -6.884 0.386 2.957
v -6.884 0.386 2.886

f -12 -15 -14
f -14 -13 -12
f -10 -9 -8
f -8 -9 -7
f -8 -7 -6
f -6 -7 -5
f -6 -5 -4
f -4 -5 -3
f -4 -3 -2
f -2 -3 -1

o EXHIBITHALL b708
usemtl 0xC6529E
v -5.906 2.492 2.957
v -3.554 2.492 2.957
v -3.554 3.962 2.957
v -5.906 3.962 2.957
v -5.906 2.492 2.957
v -5.906 2.492 2.957
v -5.906 2.492 2.886
v -3.554 2.492 2.957
v -3.554 2.492 2.886
v -3.554 3.962 2.957
v -3.554 3.962 2.886
v -5.906 3.962 2.957
v -5.906 3.962 2.886
v -5.906 2.492 2.957
v -5.906 2.492 2.886

f -12 -15 -14
f -14 -13 -12
f -10 -9 -8
f -8 -9 -7
f -8 -7 -6
f -6 -7 -5
f -6 -5 -4
f -4 -5 -3
f -4 -3 -2
f -2 -3 -1

o EXHIBITHALL b811
usemtl 0xC6529E
v -5.687 1.58 2.957
v -5.393 1.58 2.957
v -5.393 1.874 2.957
v -5.687 1.874 2.957
v -5.687 1.58 2.957
v -5.687 1.58 2.957
v -5.687 1.58 2.886
v -5.393 1.58 2.957
v -5.393 1.58 2.886
v -5.393 1.874 2.957
v -5.393 1.874 2.886
v -5.687 1.874 2.957
v -5.687 1.874 2.886
v -5.687 1.58 2.957
v -5.687 1.58 2.886

f -12 -15 -14
f -14 -13 -12
f -10 -9 -8
f -8 -9 -7
f -8 -7 -6
f -6 -7 -5
f -6 -5 -4
f -4 -5 -3
f -4 -3 -2
f -2 -3 -1

o EXHIBITHALL b813
usemtl 0xC6529E
v -5.387 1.58 2.957
v -5.093 1.58 2.957
v -5.093 1.874 2.957
v -5.387 1.874 2.957
v -5.387 1.58 2.957
v -5.387 1.58 2.957
v -5.387 1.58 2.886
v -5.093 1.58 2.957
v -5.093 1.58 2.886
v -5.093 1.874 2.957
v -5.093 1.874 2.886
v -5.387 1.874 2.957
v -5.387 1.874 2.886
v -5.387 1.58 2.957
v -5.387 1.58 2.886

f -12 -15 -14
f -14 -13 -12
f -10 -9 -8
f -8 -9 -7
f -8 -7 -6
f -6 -7 -5
f -6 -5 -4
f -4 -5 -3
f -4 -3 -2
f -2 -3 -1

o EXHIBITHALL b809
usemtl 0xC6529E
v -5.987 1.58 2.957
v -5.693 1.58 2.957
v -5.693 1.874 2.957
v -5.987 1.874 2.957
v -5.987 1.58 2.957
v -5.987 1.58 2.957
v -5.987 1.58 2.886
v -5.693 1.58 2.957
v -5.693 1.58 2.886
v -5.693 1.874 2.957
v -5.693 1.874 2.886
v -5.987 1.874 2.957
v -5.987 1.874 2.886
v -5.987 1.58 2.957
v -5.987 1.58 2.886

f -12 -15 -14
f -14 -13 -12
f -10 -9 -8
f -8 -9 -7
f -8 -7 -6
f -6 -7 -5
f -6 -5 -4
f -4 -5 -3
f -4 -3 -2
f -2 -3 -1

o EXHIBITHALL b815
usemtl 0xC6529E
v -5.087 1.58 2.957
v -4.793 1.58 2.957
v -4.793 1.874 2.957
v -5.087 1.874 2.957
v -5.087 1.58 2.957
v -5.087 1.58 2.957
v -5.087 1.58 2.886
v -4.793 1.58 2.957
v -4.793 1.58 2.886
v -4.793 1.874 2.957
v -4.793 1.874 2.886
v -5.087 1.874 2.957
v -5.087 1.874 2.886
v -5.087 1.58 2.957
v -5.087 1.58 2.886

f -12 -15 -14
f -14 -13 -12
f -10 -9 -8
f -8 -9 -7
f -8 -7 -6
f -6 -7 -5
f -6 -5 -4
f -4 -5 -3
f -4 -3 -2
f -2 -3 -1

o EXHIBITHALL b808
usemtl 0xC6529E
v -5.987 1.88 2.957
v -5.693 1.88 2.957
v -5.693 2.174 2.957
v -5.987 2.174 2.957
v -5.987 1.88 2.957
v -5.987 1.88 2.957
v -5.987 1.88 2.886
v -5.693 1.88 2.957
v -5.693 1.88 2.886
v -5.693 2.174 2.957
v -5.693 2.174 2.886
v -5.987 2.174 2.957
v -5.987 2.174 2.886
v -5.987 1.88 2.957
v -5.987 1.88 2.886

f -12 -15 -14
f -14 -13 -12
f -10 -9 -8
f -8 -9 -7
f -8 -7 -6
f -6 -7 -5
f -6 -5 -4
f -4 -5 -3
f -4 -3 -2
f -2 -3 -1

o EXHIBITHALL b810
usemtl 0xC6529E
v -5.687 1.88 2.957
v -5.393 1.88 2.957
v -5.393 2.174 2.957
v -5.687 2.174 2.957
v -5.687 1.88 2.957
v -5.687 1.88 2.957
v -5.687 1.88 2.886
v -5.393 1.88 2.957
v -5.393 1.88 2.886
v -5.393 2.174 2.957
v -5.393 2.174 2.886
v -5.687 2.174 2.957
v -5.687 2.174 2.886
v -5.687 1.88 2.957
v -5.687 1.88 2.886

f -12 -15 -14
f -14 -13 -12
f -10 -9 -8
f -8 -9 -7
f -8 -7 -6
f -6 -7 -5
f -6 -5 -4
f -4 -5 -3
f -4 -3 -2
f -2 -3 -1

o EXHIBITHALL b929
usemtl 0xC6529E
v -2.984 -0.214 2.957
v -2.396 -0.214 2.957
v -2.396 0.668 2.957
v -2.984 0.668 2.957
v -2.984 -0.214 2.957
v -2.984 -0.214 2.957
v -2.984 -0.214 2.886
v -2.396 -0.214 2.957
v -2.396 -0.214 2.886
v -2.396 0.668 2.957
v -2.396 0.668 2.886
v -2.984 0.668 2.957
v -2.984 0.668 2.886
v -2.984 -0.214 2.957
v -2.984 -0.214 2.886

f -12 -15 -14
f -14 -13 -12
f -10 -9 -8
f -8 -9 -7
f -8 -7 -6
f -6 -7 -5
f -6 -5 -4
f -4 -5 -3
f -4 -3 -2
f -2 -3 -1

o EXHIBITHALL b928
usemtl 0xC6529E
v -2.984 0.683 2.957
v -2.396 0.683 2.957
v -2.396 1.271 2.957
v -2.984 1.271 2.957
v -2.984 0.683 2.957
v -2.984 0.683 2.957
v -2.984 0.683 2.886
v -2.396 0.683 2.957
v -2.396 0.683 2.886
v -2.396 1.271 2.957
v -2.396 1.271 2.886
v -2.984 1.271 2.957
v -2.984 1.271 2.886
v -2.984 0.683 2.957
v -2.984 0.683 2.886

f -12 -15 -14
f -14 -13 -12
f -10 -9 -8
f -8 -9 -7
f -8 -7 -6
f -6 -7 -5
f -6 -5 -4
f -4 -5 -3
f -4 -3 -2
f -2 -3 -1

o EXHIBITHALL b828
usemtl 0xC6529E
v -2.984 1.586 2.957
v -2.396 1.586 2.957
v -2.396 2.468 2.957
v -2.984 2.468 2.957
v -2.984 1.586 2.957
v -2.984 1.586 2.957
v -2.984 1.586 2.886
v -2.396 1.586 2.957
v -2.396 1.586 2.886
v -2.396 2.468 2.957
v -2.396 2.468 2.886
v -2.984 2.468 2.957
v -2.984 2.468 2.886
v -2.984 1.586 2.957
v -2.984 1.586 2.886

f -12 -15 -14
f -14 -13 -12
f -10 -9 -8
f -8 -9 -7
f -8 -7 -6
f -6 -7 -5
f -6 -5 -4
f -4 -5 -3
f -4 -3 -2
f -2 -3 -1

o EXHIBITHALL b728
usemtl 0xC6529E
v -2.984 2.783 2.957
v -2.396 2.783 2.957
v -2.396 3.371 2.957
v -2.984 3.371 2.957
v -2.984 2.783 2.957
v -2.984 2.783 2.957
v -2.984 2.783 2.886
v -2.396 2.783 2.957
v -2.396 2.783 2.886
v -2.396 3.371 2.957
v -2.396 3.371 2.886
v -2.984 3.371 2.957
v -2.984 3.371 2.886
v -2.984 2.783 2.957
v -2.984 2.783 2.886

f -12 -15 -14
f -14 -13 -12
f -10 -9 -8
f -8 -9 -7
f -8 -7 -6
f -6 -7 -5
f -6 -5 -4
f -4 -5 -3
f -4 -3 -2
f -2 -3 -1

o EXHIBITHALL b700
usemtl 0xC6529E
v -7.121 2.489 2.957
v -6.239 2.489 2.957
v -6.239 3.665 2.957
v -7.121 3.665 2.957
v -7.121 2.489 2.957
v -7.121 2.489 2.957
v -7.121 2.489 2.886
v -6.239 2.489 2.957
v -6.239 2.489 2.886
v -6.239 3.665 2.957
v -6.239 3.665 2.886
v -7.121 3.665 2.957
v -7.121 3.665 2.886
v -7.121 2.489 2.957
v -7.121 2.489 2.886

f -12 -15 -14
f -14 -13 -12
f -10 -9 -8
f -8 -9 -7
f -8 -7 -6
f -6 -7 -5
f -6 -5 -4
f -4 -5 -3
f -4 -3 -2
f -2 -3 -1

o EXHIBITHALL b800
usemtl 0xC6529E
v -7.151 1.583 2.957
v -6.269 1.583 2.957
v -6.269 2.171 2.957
v -7.151 2.171 2.957
v -7.151 1.583 2.957
v -7.151 1.583 2.957
v -7.151 1.583 2.886
v -6.269 1.583 2.957
v -6.269 1.583 2.886
v -6.269 2.171 2.957
v -6.269 2.171 2.886
v -7.151 2.171 2.957
v -7.151 2.171 2.886
v -7.151 1.583 2.957
v -7.151 1.583 2.886

f -12 -15 -14
f -14 -13 -12
f -10 -9 -8
f -8 -9 -7
f -8 -7 -6
f -6 -7 -5
f -6 -5 -4
f -4 -5 -3
f -4 -3 -2
f -2 -3 -1

o EXHIBITHALL b1002
usemtl 0xC6529E
v -6.973 -1.711 2.957
v -6.297 -1.711 2.957
v -6.297 -0.535 2.957
v -6.973 -0.535 2.957
v -6.973 -1.711 2.957
v -6.973 -1.711 2.957
v -6.973 -1.711 2.886
v -6.297 -1.711 2.957
v -6.297 -1.711 2.886
v -6.297 -0.535 2.957
v -6.297 -0.535 2.886
v -6.973 -0.535 2.957
v -6.973 -0.535 2.886
v -6.973 -1.711 2.957
v -6.973 -1.711 2.886

f -12 -15 -14
f -14 -13 -12
f -10 -9 -8
f -8 -9 -7
f -8 -7 -6
f -6 -7 -5
f -6 -5 -4
f -4 -5 -3
f -4 -3 -2
f -2 -3 -1

o EXHIBITHALL b908
usemtl 0xC6529E
v -5.978 0.386 2.957
v -4.802 0.386 2.957
v -4.802 1.268 2.957
v -5.978 1.268 2.957
v -5.978 0.386 2.957
v -5.978 0.386 2.957
v -5.978 0.386 2.886
v -4.802 0.386 2.957
v -4.802 0.386 2.886
v -4.802 1.268 2.957
v -4.802 1.268 2.886
v -5.978 1.268 2.957
v -5.978 1.268 2.886
v -5.978 0.386 2.957
v -5.978 0.386 2.886

f -12 -15 -14
f -14 -13 -12
f -10 -9 -8
f -8 -9 -7
f -8 -7 -6
f -6 -7 -5
f -6 -5 -4
f -4 -5 -3
f -4 -3 -2
f -2 -3 -1

o EXHIBITHALL b812
usemtl 0xC6529E
v -5.387 1.88 2.957
v -5.093 1.88 2.957
v -5.093 2.174 2.957
v -5.387 2.174 2.957
v -5.387 1.88 2.957
v -5.387 1.88 2.957
v -5.387 1.88 2.886
v -5.093 1.88 2.957
v -5.093 1.88 2.886
v -5.093 2.174 2.957
v -5.093 2.174 2.886
v -5.387 2.174 2.957
v -5.387 2.174 2.886
v -5.387 1.88 2.957
v -5.387 1.88 2.886

f -12 -15 -14
f -14 -13 -12
f -10 -9 -8
f -8 -9 -7
f -8 -7 -6
f -6 -7 -5
f -6 -5 -4
f -4 -5 -3
f -4 -3 -2
f -2 -3 -1

o EXHIBITHALL b814
usemtl 0xC6529E
v -5.087 1.88 2.957
v -4.793 1.88 2.957
v -4.793 2.174 2.957
v -5.087 2.174 2.957
v -5.087 1.88 2.957
v -5.087 1.88 2.957
v -5.087 1.88 2.886
v -4.793 1.88 2.957
v -4.793 1.88 2.886
v -4.793 2.174 2.957
v -4.793 2.174 2.886
v -5.087 2.174 2.957
v -5.087 2.174 2.886
v -5.087 1.88 2.957
v -5.087 1.88 2.886

f -12 -15 -14
f -14 -13 -12
f -10 -9 -8
f -8 -9 -7
f -8 -7 -6
f -6 -7 -5
f -6 -5 -4
f -4 -5 -3
f -4 -3 -2
f -2 -3 -1

o EXHIBITHALL b818
usemtl 0xC6529E
v -4.481 1.583 2.957
v -3.599 1.583 2.957
v -3.599 2.171 2.957
v -4.481 2.171 2.957
v -4.481 1.583 2.957
v -4.481 1.583 2.957
v -4.481 1.583 2.886
v -3.599 1.583 2.957
v -3.599 1.583 2.886
v -3.599 2.171 2.957
v -3.599 2.171 2.886
v -4.481 2.171 2.957
v -4.481 2.171 2.886
v -4.481 1.583 2.957
v -4.481 1.583 2.886

f -12 -15 -14
f -14 -13 -12
f -10 -9 -8
f -8 -9 -7
f -8 -7 -6
f -6 -7 -5
f -6 -5 -4
f -4 -5 -3
f -4 -3 -2
f -2 -3 -1

o EXHIBITHALL b918
usemtl 0xC6529E
v -4.481 -0.208 2.957
v -3.599 -0.208 2.957
v -3.599 1.262 2.957
v -4.481 1.262 2.957
v -4.481 -0.208 2.957
v -4.481 -0.208 2.957
v -4.481 -0.208 2.886
v -3.599 -0.208 2.957
v -3.599 -0.208 2.886
v -3.599 1.262 2.957
v -3.599 1.262 2.886
v -4.481 1.262 2.957
v -4.481 1.262 2.886
v -4.481 -0.208 2.957
v -4.481 -0.208 2.886

f -12 -15 -14
f -14 -13 -12
f -10 -9 -8
f -8 -9 -7
f -8 -7 -6
f -6 -7 -5
f -6 -5 -4
f -4 -5 -3
f -4 -3 -2
f -2 -3 -1

o EXHIBITHALL b734
usemtl 0xC6529E
v -2.384 2.783 2.957
v -1.796 2.783 2.957
v -1.796 3.371 2.957
v -2.384 3.371 2.957
v -2.384 2.783 2.957
v -2.384 2.783 2.957
v -2.384 2.783 2.886
v -1.796 2.783 2.957
v -1.796 2.783 2.886
v -1.796 3.371 2.957
v -1.796 3.371 2.886
v -2.384 3.371 2.957
v -2.384 3.371 2.886
v -2.384 2.783 2.957
v -2.384 2.783 2.886

f -12 -15 -14
f -14 -13 -12
f -10 -9 -8
f -8 -9 -7
f -8 -7 -6
f -6 -7 -5
f -6 -5 -4
f -4 -5 -3
f -4 -3 -2
f -2 -3 -1

o EXHIBITHALL b834
usemtl 0xC6529E
v -2.384 1.586 2.957
v -1.796 1.586 2.957
v -1.796 2.468 2.957
v -2.384 2.468 2.957
v -2.384 1.586 2.957
v -2.384 1.586 2.957
v -2.384 1.586 2.886
v -1.796 1.586 2.957
v -1.796 1.586 2.886
v -1.796 2.468 2.957
v -1.796 2.468 2.886
v -2.384 2.468 2.957
v -2.384 2.468 2.886
v -2.384 1.586 2.957
v -2.384 1.586 2.886

f -12 -15 -14
f -14 -13 -12
f -10 -9 -8
f -8 -9 -7
f -8 -7 -6
f -6 -7 -5
f -6 -5 -4
f -4 -5 -3
f -4 -3 -2
f -2 -3 -1

o EXHIBITHALL b934
usemtl 0xC6529E
v -2.384 0.386 2.957
v -1.796 0.386 2.957
v -1.796 1.268 2.957
v -2.384 1.268 2.957
v -2.384 0.386 2.957
v -2.384 0.386 2.957
v -2.384 0.386 2.886
v -1.796 0.386 2.957
v -1.796 0.386 2.886
v -1.796 1.268 2.957
v -1.796 1.268 2.886
v -2.384 1.268 2.957
v -2.384 1.268 2.886
v -2.384 0.386 2.957
v -2.384 0.386 2.886

f -12 -15 -14
f -14 -13 -12
f -10 -9 -8
f -8 -9 -7
f -8 -7 -6
f -6 -7 -5
f -6 -5 -4
f -4 -5 -3
f -4 -3 -2
f -2 -3 -1

o EXHIBITHALL b935
usemtl 0xC6529E
v -2.384 -0.217 2.957
v -1.796 -0.217 2.957
v -1.796 0.371 2.957
v -2.384 0.371 2.957
v -2.384 -0.217 2.957
v -2.384 -0.217 2.957
v -2.384 -0.217 2.886
v -1.796 -0.217 2.957
v -1.796 -0.217 2.886
v -1.796 0.371 2.957
v -1.796 0.371 2.886
v -2.384 0.371 2.957
v -2.384 0.371 2.886
v -2.384 -0.217 2.957
v -2.384 -0.217 2.886

f -12 -15 -14
f -14 -13 -12
f -10 -9 -8
f -8 -9 -7
f -8 -7 -6
f -6 -7 -5
f -6 -5 -4
f -4 -5 -3
f -4 -3 -2
f -2 -3 -1

o EXHIBITHALL b1038
usemtl 0xC6529E
v -1.511 -1.414 2.957
v -0.629 -1.414 2.957
v -0.629 -0.532 2.957
v -1.511 -0.532 2.957
v -1.511 -1.414 2.957
v -1.511 -1.414 2.957
v -1.511 -1.414 2.886
v -0.629 -1.414 2.957
v -0.629 -1.414 2.886
v -0.629 -0.532 2.957
v -0.629 -0.532 2.886
v -1.511 -0.532 2.957
v -1.511 -0.532 2.886
v -1.511 -1.414 2.957
v -1.511 -1.414 2.886

f -12 -15 -14
f -14 -13 -12
f -10 -9 -8
f -8 -9 -7
f -8 -7 -6
f -6 -7 -5
f -6 -5 -4
f -4 -5 -3
f -4 -3 -2
f -2 -3 -1

o EXHIBITHALL b939
usemtl 0xC6529E
v -1.511 -0.22 2.957
v -0.629 -0.22 2.957
v -0.629 0.074 2.957
v -1.511 0.074 2.957
v -1.511 -0.22 2.957
v -1.511 -0.22 2.957
v -1.511 -0.22 2.886
v -0.629 -0.22 2.957
v -0.629 -0.22 2.886
v -0.629 0.074 2.957
v -0.629 0.074 2.886
v -1.511 0.074 2.957
v -1.511 0.074 2.886
v -1.511 -0.22 2.957
v -1.511 -0.22 2.886

f -12 -15 -14
f -14 -13 -12
f -10 -9 -8
f -8 -9 -7
f -8 -7 -6
f -6 -7 -5
f -6 -5 -4
f -4 -5 -3
f -4 -3 -2
f -2 -3 -1

o EXHIBITHALL b738
usemtl 0xC6529E
v -1.508 0.413 2.957
v -0.332 0.413 2.957
v -0.332 3.941 2.957
v -1.508 3.941 2.957
v -1.508 0.413 2.957
v -1.508 0.413 2.957
v -1.508 0.413 2.886
v -0.332 0.413 2.957
v -0.332 0.413 2.886
v -0.332 3.941 2.957
v -0.332 3.941 2.886
v -1.508 3.941 2.957
v -1.508 3.941 2.886
v -1.508 0.413 2.957
v -1.508 0.413 2.886

f -12 -15 -14
f -14 -13 -12
f -10 -9 -8
f -8 -9 -7
f -8 -7 -6
f -6 -7 -5
f -6 -5 -4
f -4 -5 -3
f -4 -3 -2
f -2 -3 -1

o EXHIBITHALL b747
usemtl 0xC6529E
v -0.452 5.996 2.957
v 1.312 5.996 2.957
v 1.312 6.878 2.957
v -0.452 6.878 2.957
v -0.452 5.996 2.957
v -0.452 5.996 2.957
v -0.452 5.996 2.886
v 1.312 5.996 2.957
v 1.312 5.996 2.886
v 1.312 6.878 2.957
v 1.312 6.878 2.886
v -0.452 6.878 2.957
v -0.452 6.878 2.886
v -0.452 5.996 2.957
v -0.452 5.996 2.886

f -12 -15 -14
f -14 -13 -12
f -10 -9 -8
f -8 -9 -7
f -8 -7 -6
f -6 -7 -5
f -6 -5 -4
f -4 -5 -3
f -4 -3 -2
f -2 -3 -1

o EXHIBITHALL EXHIBITHALL_0
usemtl EXHIBITHALL_0.webp
v -9 -7 2.886228415
v 9.204223 -7 2.886228415
v 9.204302 6.9122 2.886228415
v -9 6.912304 2.886228415
vt 0 0 0
vt 1 0 0
vt 0 1 0
vt 1 1 0
f -4/4 -3/3 -2/1 -1/2

