<svg xmlns="http://www.w3.org/2000/svg" viewBox="0 0 623.87 991.78">
  <defs>
    <style>
      .cls-1 {
        fill: #bcbec0;
      }

      .cls-1, .cls-2 {
        stroke: #231f20;
        stroke-miterlimit: 10;
      }

      .cls-2 {
        fill: #fff;
      }

      .cls-3 {
        fill: #b29c88;
      }
    </style>
  </defs>
  <title>fp</title>
  <g id="BG">
    <rect class="cls-1" x="13.66" y="40.85" width="593.36" height="929.11"/>
  </g>
  <g id="Booths">
    <rect class="cls-2" x="33.66" y="100.18" width="20" height="30"/>
    <rect class="cls-2" x="33.66" y="130.18" width="20" height="30"/>
    <rect class="cls-2" x="33.66" y="160.18" width="20" height="30"/>
    <rect class="cls-2" x="33.66" y="190.18" width="20" height="30"/>
    <rect class="cls-2" x="33.66" y="220.18" width="20" height="30"/>
    <rect class="cls-2" x="33.66" y="250.18" width="20" height="30"/>
    <rect class="cls-2" x="33.66" y="280.18" width="20" height="20"/>
    <rect class="cls-2" x="33.66" y="300.18" width="20" height="20"/>
    <rect class="cls-2" x="33.66" y="320.18" width="20" height="20"/>
    <rect class="cls-2" x="33.66" y="340.18" width="20" height="20"/>
    <rect class="cls-2" x="33.66" y="360.18" width="20" height="20"/>
    <rect class="cls-2" x="33.66" y="380.18" width="20" height="20"/>
    <rect class="cls-2" x="33.66" y="400.18" width="20" height="20"/>
    <rect class="cls-2" x="33.66" y="420.18" width="20" height="20"/>
    <rect class="cls-2" x="33.66" y="440.18" width="20" height="20"/>
    <rect class="cls-2" x="33.66" y="460.18" width="20" height="20"/>
    <rect class="cls-2" x="33.66" y="480.18" width="20" height="20"/>
    <rect class="cls-2" x="33.66" y="500.18" width="20" height="20"/>
    <rect class="cls-2" x="33.66" y="520.18" width="20" height="20"/>
    <rect class="cls-2" x="33.66" y="540.18" width="20" height="20"/>
    <rect class="cls-2" x="33.66" y="560.18" width="20" height="20"/>
    <rect class="cls-2" x="33.66" y="580.18" width="20" height="20"/>
    <rect class="cls-2" x="33.66" y="600.18" width="20" height="20"/>
    <rect class="cls-2" x="33.66" y="620.18" width="20" height="20"/>
    <rect class="cls-2" x="33.66" y="640.18" width="20" height="20"/>
    <rect class="cls-2" x="33.66" y="660.18" width="20" height="20"/>
    <rect class="cls-2" x="33.66" y="680.18" width="20" height="20"/>
    <rect class="cls-2" x="53.66" y="50.18" width="30" height="20"/>
    <rect class="cls-2" x="83.66" y="50.18" width="30" height="20"/>
    <rect class="cls-2" x="113.66" y="50.18" width="30" height="20"/>
    <rect class="cls-2" x="143.66" y="50.18" width="30" height="20"/>
    <rect class="cls-2" x="83.66" y="630.18" width="20" height="30"/>
    <rect class="cls-2" x="53.66" y="700.18" width="30" height="20"/>
    <rect class="cls-2" x="83.66" y="700.18" width="30" height="20"/>
    <rect class="cls-2" x="113.66" y="700.18" width="30" height="20"/>
    <rect class="cls-2" x="143.66" y="700.18" width="30" height="20"/>
    <rect class="cls-2" x="103.66" y="630.18" width="20" height="30"/>
    <rect class="cls-2" x="83.66" y="600.18" width="20" height="30"/>
    <rect class="cls-2" x="103.66" y="600.18" width="20" height="30"/>
    <rect class="cls-2" x="83.66" y="570.18" width="20" height="30"/>
    <rect class="cls-2" x="103.66" y="570.18" width="20" height="30"/>
    <rect class="cls-2" x="83.66" y="515.18" width="20" height="30"/>
    <rect class="cls-2" x="103.66" y="515.18" width="20" height="30"/>
    <rect class="cls-2" x="83.66" y="485.18" width="20" height="30"/>
    <rect class="cls-2" x="103.66" y="485.18" width="20" height="30"/>
    <rect class="cls-2" x="83.66" y="455.18" width="20" height="30"/>
    <rect class="cls-2" x="103.66" y="455.18" width="20" height="30"/>
    <rect class="cls-2" x="83.66" y="400.18" width="20" height="30"/>
    <rect class="cls-2" x="103.66" y="400.18" width="20" height="30"/>
    <rect class="cls-2" x="83.66" y="370.18" width="20" height="30"/>
    <rect class="cls-2" x="103.66" y="370.18" width="20" height="30"/>
    <rect class="cls-2" x="83.66" y="340.18" width="20" height="30"/>
    <rect class="cls-2" x="103.66" y="340.18" width="20" height="30"/>
    <rect class="cls-2" x="83.66" y="285.18" width="20" height="30"/>
    <rect class="cls-2" x="103.66" y="285.18" width="20" height="30"/>
    <rect class="cls-2" x="83.66" y="255.18" width="20" height="30"/>
    <rect class="cls-2" x="103.66" y="255.18" width="20" height="30"/>
    <rect class="cls-2" x="83.66" y="225.18" width="20" height="30"/>
    <rect class="cls-2" x="103.66" y="225.18" width="20" height="30"/>
    <rect class="cls-2" x="83.66" y="170.68" width="20" height="30"/>
    <rect class="cls-2" x="103.66" y="170.68" width="20" height="30"/>
    <rect class="cls-2" x="83.66" y="140.68" width="20" height="30"/>
    <rect class="cls-2" x="103.66" y="140.68" width="20" height="30"/>
    <rect class="cls-2" x="83.66" y="110.68" width="20" height="30"/>
    <rect class="cls-2" x="103.66" y="110.68" width="20" height="30"/>
    <rect class="cls-2" x="33.66" y="70.18" width="20" height="30"/>
    <rect class="cls-2" x="153.66" y="630.18" width="20" height="30"/>
    <rect class="cls-2" x="173.66" y="630.18" width="20" height="30"/>
    <rect class="cls-2" x="153.66" y="600.18" width="20" height="30"/>
    <rect class="cls-2" x="173.66" y="600.18" width="20" height="30"/>
    <rect class="cls-2" x="153.66" y="570.18" width="20" height="30"/>
    <rect class="cls-2" x="173.66" y="570.18" width="20" height="30"/>
    <rect class="cls-2" x="153.66" y="515.18" width="20" height="30"/>
    <rect class="cls-2" x="173.66" y="515.18" width="20" height="30"/>
    <rect class="cls-2" x="153.66" y="485.18" width="20" height="30"/>
    <rect class="cls-2" x="173.66" y="485.18" width="20" height="30"/>
    <rect class="cls-2" x="153.66" y="455.18" width="20" height="30"/>
    <rect class="cls-2" x="173.66" y="455.18" width="20" height="30"/>
    <rect class="cls-2" x="153.66" y="400.18" width="20" height="30"/>
    <rect class="cls-2" x="173.66" y="400.18" width="20" height="30"/>
    <rect class="cls-2" x="153.66" y="370.18" width="20" height="30"/>
    <rect class="cls-2" x="173.66" y="370.18" width="20" height="30"/>
    <rect class="cls-2" x="153.66" y="340.18" width="20" height="30"/>
    <rect class="cls-2" x="173.66" y="340.18" width="20" height="30"/>
    <rect class="cls-2" x="153.66" y="285.18" width="20" height="30"/>
    <rect class="cls-2" x="173.66" y="285.18" width="20" height="30"/>
    <rect class="cls-2" x="153.66" y="255.18" width="20" height="30"/>
    <rect class="cls-2" x="173.66" y="255.18" width="20" height="30"/>
    <rect class="cls-2" x="153.66" y="225.18" width="20" height="30"/>
    <rect class="cls-2" x="173.66" y="225.18" width="20" height="30"/>
    <rect class="cls-2" x="153.66" y="170.68" width="20" height="30"/>
    <rect class="cls-2" x="173.66" y="170.68" width="20" height="30"/>
    <rect class="cls-2" x="153.66" y="140.68" width="20" height="30"/>
    <rect class="cls-2" x="173.66" y="140.68" width="20" height="30"/>
    <rect class="cls-2" x="153.66" y="110.68" width="20" height="30"/>
    <rect class="cls-2" x="173.66" y="110.68" width="20" height="30"/>
    <rect class="cls-2" x="223.66" y="630.18" width="20" height="30"/>
    <rect class="cls-2" x="243.66" y="630.18" width="20" height="30"/>
    <rect class="cls-2" x="223.66" y="600.18" width="20" height="30"/>
    <rect class="cls-2" x="243.66" y="600.18" width="20" height="30"/>
    <rect class="cls-2" x="223.66" y="570.18" width="20" height="30"/>
    <rect class="cls-2" x="243.66" y="570.18" width="20" height="30"/>
    <rect class="cls-2" x="223.66" y="515.18" width="20" height="30"/>
    <rect class="cls-2" x="243.66" y="515.18" width="20" height="30"/>
    <rect class="cls-2" x="223.66" y="485.18" width="20" height="30"/>
    <rect class="cls-2" x="243.66" y="485.18" width="20" height="30"/>
    <rect class="cls-2" x="223.66" y="455.18" width="20" height="30"/>
    <rect class="cls-2" x="243.66" y="455.18" width="20" height="30"/>
    <rect class="cls-2" x="223.66" y="400.18" width="20" height="30"/>
    <rect class="cls-2" x="243.66" y="400.18" width="20" height="30"/>
    <rect class="cls-2" x="223.66" y="370.18" width="20" height="30"/>
    <rect class="cls-2" x="243.66" y="370.18" width="20" height="30"/>
    <rect class="cls-2" x="223.66" y="340.18" width="20" height="30"/>
    <rect class="cls-2" x="243.66" y="340.18" width="20" height="30"/>
    <rect class="cls-2" x="223.66" y="285.18" width="20" height="30"/>
    <rect class="cls-2" x="243.66" y="285.18" width="20" height="30"/>
    <rect class="cls-2" x="223.66" y="255.18" width="20" height="30"/>
    <rect class="cls-2" x="243.66" y="255.18" width="20" height="30"/>
    <rect class="cls-2" x="223.66" y="225.18" width="20" height="30"/>
    <rect class="cls-2" x="243.66" y="225.18" width="20" height="30"/>
    <rect class="cls-2" x="223.66" y="170.68" width="20" height="30"/>
    <rect class="cls-2" x="243.66" y="170.68" width="20" height="30"/>
    <rect class="cls-2" x="223.66" y="140.68" width="20" height="30"/>
    <rect class="cls-2" x="243.66" y="140.68" width="20" height="30"/>
    <rect class="cls-2" x="223.66" y="110.68" width="20" height="30"/>
    <rect class="cls-2" x="243.66" y="110.68" width="20" height="30"/>
    <rect class="cls-2" x="293.66" y="630.18" width="20" height="30"/>
    <rect class="cls-2" x="313.66" y="630.18" width="20" height="30"/>
    <rect class="cls-2" x="293.66" y="600.18" width="20" height="30"/>
    <rect class="cls-2" x="313.66" y="600.18" width="20" height="30"/>
    <rect class="cls-2" x="293.66" y="570.18" width="20" height="30"/>
    <rect class="cls-2" x="313.66" y="570.18" width="20" height="30"/>
    <rect class="cls-2" x="293.66" y="515.18" width="20" height="30"/>
    <rect class="cls-2" x="313.66" y="515.18" width="20" height="30"/>
    <rect class="cls-2" x="293.66" y="485.18" width="20" height="30"/>
    <rect class="cls-2" x="313.66" y="485.18" width="20" height="30"/>
    <rect class="cls-2" x="293.66" y="455.18" width="20" height="30"/>
    <rect class="cls-2" x="313.66" y="455.18" width="20" height="30"/>
    <rect class="cls-2" x="293.66" y="400.18" width="20" height="30"/>
    <rect class="cls-2" x="313.66" y="400.18" width="20" height="30"/>
    <rect class="cls-2" x="293.66" y="370.18" width="20" height="30"/>
    <rect class="cls-2" x="313.66" y="370.18" width="20" height="30"/>
    <rect class="cls-2" x="293.66" y="340.18" width="20" height="30"/>
    <rect class="cls-2" x="313.66" y="340.18" width="20" height="30"/>
    <rect class="cls-2" x="293.66" y="285.18" width="20" height="30"/>
    <rect class="cls-2" x="313.66" y="285.18" width="20" height="30"/>
    <rect class="cls-2" x="293.66" y="255.18" width="20" height="30"/>
    <rect class="cls-2" x="313.66" y="255.18" width="20" height="30"/>
    <rect class="cls-2" x="293.66" y="225.18" width="20" height="30"/>
    <rect class="cls-2" x="313.66" y="225.18" width="20" height="30"/>
    <rect class="cls-2" x="293.66" y="170.68" width="20" height="30"/>
    <rect class="cls-2" x="313.66" y="170.68" width="20" height="30"/>
    <rect class="cls-2" x="293.66" y="140.68" width="20" height="30"/>
    <rect class="cls-2" x="313.66" y="140.68" width="20" height="30"/>
    <rect class="cls-2" x="293.66" y="110.68" width="20" height="30"/>
    <rect class="cls-2" x="313.66" y="110.68" width="20" height="30"/>
    <rect class="cls-2" x="363.66" y="630.18" width="20" height="30"/>
    <rect class="cls-2" x="383.66" y="630.18" width="20" height="30"/>
    <rect class="cls-2" x="363.66" y="600.18" width="20" height="30"/>
    <rect class="cls-2" x="383.66" y="600.18" width="20" height="30"/>
    <rect class="cls-2" x="363.66" y="570.18" width="20" height="30"/>
    <rect class="cls-2" x="383.66" y="570.18" width="20" height="30"/>
    <rect class="cls-2" x="363.66" y="515.18" width="20" height="30"/>
    <rect class="cls-2" x="383.66" y="515.18" width="20" height="30"/>
    <rect class="cls-2" x="363.66" y="485.18" width="20" height="30"/>
    <rect class="cls-2" x="383.66" y="485.18" width="20" height="30"/>
    <rect class="cls-2" x="363.66" y="455.18" width="20" height="30"/>
    <rect class="cls-2" x="383.66" y="455.18" width="20" height="30"/>
    <rect class="cls-2" x="363.66" y="400.18" width="20" height="30"/>
    <rect class="cls-2" x="383.66" y="400.18" width="20" height="30"/>
    <rect class="cls-2" x="363.66" y="370.18" width="20" height="30"/>
    <rect class="cls-2" x="383.66" y="370.18" width="20" height="30"/>
    <rect class="cls-2" x="363.66" y="340.18" width="20" height="30"/>
    <rect class="cls-2" x="383.66" y="340.18" width="20" height="30"/>
    <rect class="cls-2" x="363.66" y="285.18" width="20" height="30"/>
    <rect class="cls-2" x="383.66" y="285.18" width="20" height="30"/>
    <rect class="cls-2" x="363.66" y="255.18" width="20" height="30"/>
    <rect class="cls-2" x="383.66" y="255.18" width="20" height="30"/>
    <rect class="cls-2" x="363.66" y="225.18" width="20" height="30"/>
    <rect class="cls-2" x="383.66" y="225.18" width="20" height="30"/>
    <rect class="cls-2" x="363.66" y="170.68" width="20" height="30"/>
    <rect class="cls-2" x="383.66" y="170.68" width="20" height="30"/>
    <rect class="cls-2" x="363.66" y="140.68" width="20" height="30"/>
    <rect class="cls-2" x="383.66" y="140.68" width="20" height="30"/>
    <rect class="cls-2" x="363.66" y="110.68" width="20" height="30"/>
    <rect class="cls-2" x="383.66" y="110.68" width="20" height="30"/>
    <rect class="cls-2" x="433.68" y="630.18" width="20" height="30"/>
    <rect class="cls-2" x="453.68" y="630.18" width="20" height="30"/>
    <rect class="cls-2" x="433.68" y="600.18" width="20" height="30"/>
    <rect class="cls-2" x="453.68" y="600.18" width="20" height="30"/>
    <rect class="cls-2" x="433.68" y="570.18" width="20" height="30"/>
    <rect class="cls-2" x="453.68" y="570.18" width="20" height="30"/>
    <rect class="cls-2" x="433.68" y="515.18" width="20" height="30"/>
    <rect class="cls-2" x="453.68" y="515.18" width="20" height="30"/>
    <rect class="cls-2" x="433.68" y="485.18" width="20" height="30"/>
    <rect class="cls-2" x="453.68" y="485.18" width="20" height="30"/>
    <rect class="cls-2" x="433.68" y="455.18" width="20" height="30"/>
    <rect class="cls-2" x="453.68" y="455.18" width="20" height="30"/>
    <rect class="cls-2" x="433.68" y="400.18" width="20" height="30"/>
    <rect class="cls-2" x="453.68" y="400.18" width="20" height="30"/>
    <rect class="cls-2" x="433.68" y="370.18" width="20" height="30"/>
    <rect class="cls-2" x="453.68" y="370.18" width="20" height="30"/>
    <rect class="cls-2" x="433.68" y="340.18" width="20" height="30"/>
    <rect class="cls-2" x="453.68" y="340.18" width="20" height="30"/>
    <rect class="cls-2" x="433.68" y="285.18" width="20" height="30"/>
    <rect class="cls-2" x="453.68" y="285.18" width="20" height="30"/>
    <rect class="cls-2" x="433.68" y="255.18" width="20" height="30"/>
    <rect class="cls-2" x="453.68" y="255.18" width="20" height="30"/>
    <rect class="cls-2" x="433.68" y="225.18" width="20" height="30"/>
    <rect class="cls-2" x="453.68" y="225.18" width="20" height="30"/>
    <rect class="cls-2" x="433.68" y="170.68" width="20" height="30"/>
    <rect class="cls-2" x="453.68" y="170.68" width="20" height="30"/>
    <rect class="cls-2" x="433.68" y="140.68" width="20" height="30"/>
    <rect class="cls-2" x="453.68" y="140.68" width="20" height="30"/>
    <rect class="cls-2" x="433.68" y="110.68" width="20" height="30"/>
    <rect class="cls-2" x="453.68" y="110.68" width="20" height="30"/>
    <rect class="cls-2" x="503.68" y="630.18" width="20" height="30"/>
    <rect class="cls-2" x="523.68" y="630.18" width="20" height="30"/>
    <rect class="cls-2" x="503.68" y="600.18" width="20" height="30"/>
    <rect class="cls-2" x="523.68" y="600.18" width="20" height="30"/>
    <rect class="cls-2" x="503.68" y="570.18" width="20" height="30"/>
    <rect class="cls-2" x="523.68" y="570.18" width="20" height="30"/>
    <rect class="cls-2" x="503.68" y="515.18" width="20" height="30"/>
    <rect class="cls-2" x="523.68" y="515.18" width="20" height="30"/>
    <rect class="cls-2" x="503.68" y="485.18" width="20" height="30"/>
    <rect class="cls-2" x="523.68" y="485.18" width="20" height="30"/>
    <rect class="cls-2" x="503.68" y="455.18" width="20" height="30"/>
    <rect class="cls-2" x="523.68" y="455.18" width="20" height="30"/>
    <rect class="cls-2" x="503.68" y="400.18" width="20" height="30"/>
    <rect class="cls-2" x="523.68" y="400.18" width="20" height="30"/>
    <rect class="cls-2" x="503.68" y="370.18" width="20" height="30"/>
    <rect class="cls-2" x="523.68" y="370.18" width="20" height="30"/>
    <rect class="cls-2" x="503.68" y="340.18" width="20" height="30"/>
    <rect class="cls-2" x="523.68" y="340.18" width="20" height="30"/>
    <rect class="cls-2" x="503.68" y="285.18" width="20" height="30"/>
    <rect class="cls-2" x="523.68" y="285.18" width="20" height="30"/>
    <rect class="cls-2" x="503.68" y="255.18" width="20" height="30"/>
    <rect class="cls-2" x="523.68" y="255.18" width="20" height="30"/>
    <rect class="cls-2" x="503.68" y="225.18" width="20" height="30"/>
    <rect class="cls-2" x="523.68" y="225.18" width="20" height="30"/>
    <rect class="cls-2" x="503.68" y="170.68" width="20" height="30"/>
    <rect class="cls-2" x="523.68" y="170.68" width="20" height="30"/>
    <rect class="cls-2" x="503.68" y="140.68" width="20" height="30"/>
    <rect class="cls-2" x="523.68" y="140.68" width="20" height="30"/>
    <rect class="cls-2" x="503.68" y="110.68" width="20" height="30"/>
    <rect class="cls-2" x="523.68" y="110.68" width="20" height="30"/>
    <rect class="cls-2" x="569.06" y="100.18" width="20" height="30"/>
    <rect class="cls-2" x="569.06" y="130.18" width="20" height="30"/>
    <rect class="cls-2" x="569.06" y="160.18" width="20" height="30"/>
    <rect class="cls-2" x="569.06" y="190.18" width="20" height="30"/>
    <rect class="cls-2" x="569.06" y="220.18" width="20" height="30"/>
    <rect class="cls-2" x="569.06" y="250.18" width="20" height="30"/>
    <rect class="cls-2" x="569.06" y="280.18" width="20" height="20"/>
    <rect class="cls-2" x="569.06" y="300.18" width="20" height="20"/>
    <rect class="cls-2" x="569.06" y="320.18" width="20" height="20"/>
    <rect class="cls-2" x="569.06" y="340.18" width="20" height="20"/>
    <rect class="cls-2" x="569.06" y="360.18" width="20" height="20"/>
    <rect class="cls-2" x="569.06" y="380.18" width="20" height="20"/>
    <rect class="cls-2" x="569.06" y="400.18" width="20" height="20"/>
    <rect class="cls-2" x="569.06" y="420.18" width="20" height="20"/>
    <rect class="cls-2" x="569.06" y="440.18" width="20" height="20"/>
    <rect class="cls-2" x="569.06" y="460.18" width="20" height="20"/>
    <rect class="cls-2" x="569.06" y="480.18" width="20" height="20"/>
    <rect class="cls-2" x="569.06" y="500.18" width="20" height="20"/>
    <rect class="cls-2" x="569.06" y="520.18" width="20" height="20"/>
    <rect class="cls-2" x="569.06" y="540.18" width="20" height="20"/>
    <rect class="cls-2" x="569.06" y="560.18" width="20" height="20"/>
    <rect class="cls-2" x="569.06" y="580.18" width="20" height="20"/>
    <rect class="cls-2" x="569.06" y="600.18" width="20" height="20"/>
    <rect class="cls-2" x="569.06" y="620.18" width="20" height="20"/>
    <rect class="cls-2" x="569.06" y="640.18" width="20" height="20"/>
    <rect class="cls-2" x="569.06" y="660.18" width="20" height="20"/>
    <rect class="cls-2" x="569.06" y="680.18" width="20" height="20"/>
    <rect class="cls-2" x="203.66" y="700.18" width="30" height="20"/>
    <rect class="cls-2" x="233.66" y="700.18" width="30" height="20"/>
    <rect class="cls-2" x="263.66" y="700.18" width="30" height="20"/>
    <rect class="cls-2" x="293.66" y="700.18" width="30" height="20"/>
    <rect class="cls-2" x="363.66" y="700.18" width="30" height="20"/>
    <rect class="cls-2" x="393.66" y="700.18" width="30" height="20"/>
    <rect class="cls-2" x="423.66" y="700.18" width="30" height="20"/>
    <rect class="cls-2" x="453.66" y="700.18" width="30" height="20"/>
    <rect class="cls-2" x="483.66" y="700.18" width="30" height="20"/>
    <rect class="cls-2" x="513.66" y="700.18" width="30" height="20"/>
    <rect class="cls-2" x="223.66" y="50.18" width="30" height="20"/>
    <rect class="cls-2" x="253.66" y="50.18" width="30" height="20"/>
    <rect class="cls-2" x="283.66" y="50.18" width="30" height="20"/>
    <rect class="cls-2" x="313.66" y="50.18" width="30" height="20"/>
  </g>
  <g id="Icons">
    <rect id="ENTER" class="cls-3" x="454.66" y="21.18" width="58" height="58"/>
  </g>
</svg>
