<svg xmlns="http://www.w3.org/2000/svg" viewBox="0 0 899.62 625.02">
  <title>fp</title>
  <g id="BG">
    <rect x="12.75" y="12.64" width="873.85" height="538.85" style="fill: #d6d6d6;stroke: #000;stroke-miterlimit: 10"/>
    <rect x="12.75" y="551.3" width="220.64" height="57.6" style="fill: #d6d6d6;stroke: #000;stroke-miterlimit: 10"/>
    <rect x="277.82" y="551.3" width="60.95" height="16.33" style="fill: #d6d6d6;stroke: #000;stroke-miterlimit: 10"/>
    <rect x="566.77" y="551.3" width="60.95" height="16.33" style="fill: #d6d6d6;stroke: #000;stroke-miterlimit: 10"/>
    <rect x="665.97" y="551.3" width="220.64" height="57.6" style="fill: #d6d6d6;stroke: #000;stroke-miterlimit: 10"/>
    <rect x="267.27" y="176.07" width="115.76" height="115.76" style="fill: #c1c1c1;stroke: #9c0;stroke-miterlimit: 10"/>
    <rect x="300.93" y="39.82" width="230.77" height="129.2" style="fill: #c1c1c1;stroke: #9c0;stroke-miterlimit: 10"/>
    <g id="GroupOrig">
      <g>
        <path d="M392,599.83l-3-9.43h2.33l1.15,4c.32,1.14.62,2.2.84,3.38h0c.24-1.14.53-2.26.86-3.33l1.2-4h2.27l-3.18,9.43Z" style="fill: #48484a"/>
        <path d="M400.82,590.4v9.43H398.7V590.4Z" style="fill: #48484a"/>
        <path d="M402.74,597.63a5.42,5.42,0,0,0,2.36.59c1,0,1.5-.41,1.5-1s-.45-.93-1.58-1.32c-1.57-.56-2.6-1.43-2.6-2.8,0-1.6,1.35-2.82,3.56-2.82a5.62,5.62,0,0,1,2.41.47l-.47,1.71a4.46,4.46,0,0,0-2-.45c-.93,0-1.37.44-1.37.91s.51.87,1.74,1.33c1.67.62,2.44,1.48,2.44,2.81,0,1.58-1.2,2.93-3.79,2.93a6.18,6.18,0,0,1-2.67-.59Z" style="fill: #48484a"/>
        <path d="M412.36,590.4v9.43h-2.12V590.4Z" style="fill: #48484a"/>
        <path d="M416,592.19H413.5V590.4h7.24v1.79h-2.57v7.64H416Z" style="fill: #48484a"/>
        <path d="M430.1,595c0,3.11-1.86,5-4.63,5s-4.43-2.11-4.43-4.81,1.81-4.94,4.58-4.94S430.1,592.4,430.1,595Zm-6.81.12c0,1.86.87,3.16,2.29,3.16s2.27-1.37,2.27-3.21-.8-3.16-2.27-3.16S423.29,593.29,423.29,595.13Z" style="fill: #48484a"/>
        <path d="M431.5,590.52a19,19,0,0,1,2.84-.19,4.82,4.82,0,0,1,3.05.74,2.41,2.41,0,0,1,.88,2,2.49,2.49,0,0,1-1.66,2.3v0a2.33,2.33,0,0,1,1.25,1.74c.3,1.08.58,2.31.76,2.68h-2.18a12.93,12.93,0,0,1-.65-2.2c-.26-1.19-.67-1.5-1.55-1.51h-.63v3.71H431.5Zm2.11,4.06h.84c1.06,0,1.69-.53,1.69-1.36s-.58-1.3-1.56-1.3a4.44,4.44,0,0,0-1,.07Z" style="fill: #48484a"/>
        <path d="M439.86,597.63a5.47,5.47,0,0,0,2.37.59c1,0,1.5-.41,1.5-1s-.45-.93-1.59-1.32c-1.56-.56-2.6-1.43-2.6-2.8,0-1.6,1.36-2.82,3.57-2.82a5.62,5.62,0,0,1,2.41.47l-.48,1.71a4.42,4.42,0,0,0-2-.45c-.92,0-1.37.44-1.37.91s.52.87,1.75,1.33c1.66.62,2.43,1.48,2.43,2.81,0,1.58-1.2,2.93-3.79,2.93a6.21,6.21,0,0,1-2.67-.59Z" style="fill: #48484a"/>
        <path d="M455.78,595.84h-3.47v2.24h3.88v1.75h-6V590.4H456v1.75h-3.68v2h3.47Z" style="fill: #48484a"/>
        <path d="M457.64,599.83V590.4h2.49l2,3.45a29.84,29.84,0,0,1,1.54,3.23h0a37.53,37.53,0,0,1-.17-3.94V590.4h2v9.43h-2.24l-2-3.64a32.17,32.17,0,0,1-1.64-3.33h-.06c.07,1.26.1,2.59.1,4.13v2.84Z" style="fill: #48484a"/>
        <path d="M469.13,592.19h-2.55V590.4h7.25v1.79h-2.58v7.64h-2.12Z" style="fill: #48484a"/>
        <path d="M475,590.52a19,19,0,0,1,2.84-.19,4.82,4.82,0,0,1,3.05.74,2.41,2.41,0,0,1,.88,2,2.49,2.49,0,0,1-1.66,2.3v0a2.34,2.34,0,0,1,1.26,1.74c.29,1.08.57,2.31.75,2.68H479.9a12.32,12.32,0,0,1-.64-2.2c-.27-1.19-.68-1.5-1.56-1.51h-.63v3.71H475Zm2.11,4.06h.84c1.07,0,1.7-.53,1.7-1.36s-.59-1.3-1.57-1.3a4.44,4.44,0,0,0-1,.07Z" style="fill: #48484a"/>
        <path d="M485.58,597.41l-.67,2.42h-2.2l2.87-9.43h2.8l2.93,9.43H489l-.73-2.42Zm2.39-1.6-.59-2c-.16-.56-.33-1.26-.47-1.82h0c-.14.56-.28,1.28-.43,1.82l-.56,2Z" style="fill: #48484a"/>
        <path d="M492.56,599.83V590.4h2.49l2,3.45a31.84,31.84,0,0,1,1.54,3.23h0c-.12-1.24-.16-2.51-.16-3.94V590.4h1.95v9.43h-2.23l-2-3.64a30.22,30.22,0,0,1-1.63-3.33h-.06c.07,1.26.1,2.59.1,4.13v2.84Z" style="fill: #48484a"/>
        <path d="M509.12,599.57a6.07,6.07,0,0,1-2.4.41c-3.26,0-4.94-2-4.94-4.73,0-3.22,2.29-5,5.15-5a5.35,5.35,0,0,1,2.32.42l-.45,1.68A4.35,4.35,0,0,0,507,592a3.1,3.1,0,0,0,0,6.19,5.1,5.1,0,0,0,1.79-.3Z" style="fill: #48484a"/>
        <path d="M516.14,595.84h-3.47v2.24h3.88v1.75h-6V590.4h5.8v1.75h-3.68v2h3.47Z" style="fill: #48484a"/>
      </g>
      <path d="M513.55,579.17l-15.34-13a2.44,2.44,0,0,0-3.06,0l-15.34,13c-.84.71-.63,1.29.47,1.29h3.58v3.07a1,1,0,0,0,1,1H508.5a1,1,0,0,0,1-1v-3.07h3.58C514.18,580.46,514.39,579.88,513.55,579.17Z" style="fill: #48484a"/>
      <path d="M469.55,579.17l-15.34-13a2.44,2.44,0,0,0-3.06,0l-15.34,13c-.84.71-.63,1.29.47,1.29h3.58v3.07a1,1,0,0,0,1,1H464.5a1,1,0,0,0,1-1v-3.07h3.58C470.18,580.46,470.39,579.88,469.55,579.17Z" style="fill: #48484a"/>
      <path d="M425.55,579.17l-15.34-13a2.44,2.44,0,0,0-3.06,0l-15.34,13c-.84.71-.63,1.29.47,1.29h3.58v3.07a1,1,0,0,0,1,1H420.5a1,1,0,0,0,1-1v-3.07h3.58C426.18,580.46,426.39,579.88,425.55,579.17Z" style="fill: #48484a"/>
    </g>
    <g id="T1Orig">
      <path d="M59.57,556H43.1a2.05,2.05,0,0,0-2.05,2.05v16.46a2.05,2.05,0,0,0,2.05,2.05H59.57a2,2,0,0,0,2-2.05V558.09A2,2,0,0,0,59.57,556Zm0,25.53H43.1a2.05,2.05,0,0,0-2.05,2v16.46a2.05,2.05,0,0,0,2.05,2H59.57a2,2,0,0,0,2-2V583.62A2,2,0,0,0,59.57,581.57Z" style="fill: #8e8e8e"/>
      <path d="M52.48,585.47a1.15,1.15,0,1,1-1.15-1.12A1.13,1.13,0,0,1,52.48,585.47Zm2.31,6.33L53.65,588a2,2,0,0,0-.52-.64,2.52,2.52,0,0,0-.73-.34H50.28a2.16,2.16,0,0,0-.74.3A1.94,1.94,0,0,0,49,588l-1.16,3.75a.6.6,0,0,0,.37.66.5.5,0,0,0,.64-.36l1-3.27h.24l-1.64,5.76H50l0,4.34a.53.53,0,0,0,.57.47c.58,0,.58-.47.58-.47v-4.37h.34v4.37a.55.55,0,0,0,.57.47.57.57,0,0,0,.6-.47v-4.33H54.2l-1.67-5.77h.29l1,3.37s.24.47.66.28A.54.54,0,0,0,54.79,591.8Z" style="fill: #fff"/>
      <path d="M50.26,573.8a.73.73,0,0,1-.49-.46c0-.08,0-1.69,0-5v-4.89h-.25v1.85c0,1.81,0,1.85-.06,2a.49.49,0,0,1-.35.25.56.56,0,0,1-.65-.3c-.07-.16-.06-4.29,0-4.54a1.63,1.63,0,0,1,1.21-1.17,29,29,0,0,1,3.36,0,1.53,1.53,0,0,1,.79.44,1.54,1.54,0,0,1,.44.76,12.79,12.79,0,0,1,.06,2.31,13.37,13.37,0,0,1,0,2.18.47.47,0,0,1-.28.29.58.58,0,0,1-.69-.16l-.07-.1v-3.77h-.25v4.92c0,5.39,0,5-.17,5.23a.68.68,0,0,1-.56.22.67.67,0,0,1-.56-.22c-.19-.19-.18,0-.18-3.2V567.5h-.25v2.89a28.34,28.34,0,0,1,0,3,.75.75,0,0,1-.33.37,1.07,1.07,0,0,1-.58.06ZM52.52,560a1.2,1.2,0,1,1-1.19-1.16A1.17,1.17,0,0,1,52.52,560Z" style="fill: #fff"/>
      <path d="M855.93,556H839.46a2,2,0,0,0-2,2.05v16.46a2,2,0,0,0,2,2.05h16.47a2.05,2.05,0,0,0,2.05-2.05V558.09A2.05,2.05,0,0,0,855.93,556Zm0,25.53H839.46a2,2,0,0,0-2,2v16.46a2,2,0,0,0,2,2h16.47a2.05,2.05,0,0,0,2.05-2V583.62A2.05,2.05,0,0,0,855.93,581.57Z" style="fill: #8e8e8e"/>
      <path d="M848.85,585.47a1.15,1.15,0,1,1-1.15-1.12A1.14,1.14,0,0,1,848.85,585.47Zm2.31,6.33L850,588a2.12,2.12,0,0,0-.51-.64,2.64,2.64,0,0,0-.74-.34h-2.12a2.07,2.07,0,0,0-.73.3,2,2,0,0,0-.52.67l-1.16,3.75a.6.6,0,0,0,.37.66.5.5,0,0,0,.64-.36l1-3.27h.24l-1.63,5.76h1.53v4.34a.54.54,0,0,0,.57.47.51.51,0,0,0,.59-.47v-4.37h.34v4.37a.56.56,0,0,0,.58.47.57.57,0,0,0,.6-.47v-4.33h1.54l-1.67-5.77h.28l1,3.37s.24.47.66.28A.55.55,0,0,0,851.16,591.8Z" style="fill: #fff"/>
      <path d="M846.62,573.8a.75.75,0,0,1-.49-.46c0-.08,0-1.69,0-5v-4.89h-.25v1.85c0,1.81,0,1.85-.06,2a.49.49,0,0,1-.35.25.56.56,0,0,1-.65-.3c-.06-.16-.06-4.29,0-4.54a1.62,1.62,0,0,1,1.2-1.17,29,29,0,0,1,3.36,0,1.52,1.52,0,0,1,.8.44,1.46,1.46,0,0,1,.43.76,11.58,11.58,0,0,1,.06,2.31,13.37,13.37,0,0,1,0,2.18.48.48,0,0,1-.27.29.59.59,0,0,1-.7-.16l-.07-.1v-3.77h-.24v4.92c0,5.39,0,5-.18,5.23a.67.67,0,0,1-.56.22.68.68,0,0,1-.56-.22c-.19-.19-.18,0-.18-3.2V567.5h-.24v2.89c0,2.35,0,2.9,0,3a.82.82,0,0,1-.34.37,1.07,1.07,0,0,1-.58.06ZM848.88,560a1.19,1.19,0,1,1-1.19-1.16A1.17,1.17,0,0,1,848.88,560Z" style="fill: #fff"/>
    </g>
    <g>
      <path d="M299.43,184.05a2.76,2.76,0,0,0,1.46.42c.84,0,1.33-.44,1.33-1.09s-.34-.93-1.2-1.25c-1-.38-1.67-.92-1.67-1.81a1.82,1.82,0,0,1,2-1.72,2.89,2.89,0,0,1,1.4.31l-.23.67a2.27,2.27,0,0,0-1.2-.31c-.86,0-1.19.52-1.19,1,0,.59.38.88,1.26,1.22,1.07.42,1.61.94,1.61,1.87s-.71,1.84-2.21,1.84a3.25,3.25,0,0,1-1.63-.42Z" style="fill: #fff"/>
      <path d="M309.54,182.26c-.05-.88-.11-2-.11-2.74h0c-.22.73-.48,1.54-.8,2.41L307.49,185h-.62l-1-3c-.3-.91-.54-1.72-.72-2.47h0c0,.79-.07,1.85-.13,2.81l-.16,2.72H304l.45-6.35h1l1.09,3.07c.26.78.47,1.48.64,2.14h0c.17-.64.39-1.34.67-2.14l1.14-3.07h1l.4,6.35h-.81Z" style="fill: #fff"/>
      <path d="M316.61,184.77a5.82,5.82,0,0,1-2,.35,3,3,0,0,1-3.27-3.21,3.18,3.18,0,0,1,3.44-3.28,3.86,3.86,0,0,1,1.6.3l-.21.66a3.15,3.15,0,0,0-1.4-.27,2.38,2.38,0,0,0-2.56,2.56,2.32,2.32,0,0,0,2.45,2.56,2.78,2.78,0,0,0,1.1-.17v-1.89h-1.29v-.66h2.1Z" style="fill: #fff"/>
      <path d="M319.85,178.77a10.13,10.13,0,0,1,1.57-.12,2.59,2.59,0,0,1,1.78.53,1.73,1.73,0,0,1,.56,1.33,1.89,1.89,0,0,1-.49,1.36,2.64,2.64,0,0,1-1.94.69,3.28,3.28,0,0,1-.66-.05v2.54h-.82Zm.82,3.07a2.63,2.63,0,0,0,.68.06c1,0,1.59-.49,1.59-1.34s-.6-1.26-1.5-1.26a3.2,3.2,0,0,0-.77.07Z" style="fill: #fff"/>
      <path d="M327.8,184a7.22,7.22,0,0,0,.06,1.09h-.74l-.07-.57h0a1.68,1.68,0,0,1-1.39.68,1.3,1.3,0,0,1-1.4-1.31c0-1.11,1-1.71,2.75-1.7v-.09a.94.94,0,0,0-1-1.05,2.17,2.17,0,0,0-1.2.34l-.19-.56a3,3,0,0,1,1.51-.39,1.61,1.61,0,0,1,1.74,1.85Zm-.81-1.24c-.9,0-1.93.15-1.93,1a.72.72,0,0,0,.77.79,1.16,1.16,0,0,0,1.13-.76,1.3,1.3,0,0,0,0-.26Z" style="fill: #fff"/>
      <path d="M329.38,180.49l.89,2.56a11.9,11.9,0,0,1,.37,1.17h0c.1-.37.24-.75.39-1.17l.88-2.56h.87L331,185.05h-.79l-1.74-4.56Z" style="fill: #fff"/>
      <path d="M334.52,179.21a.5.5,0,0,1-.53.51.49.49,0,0,1-.5-.51.51.51,0,0,1,.52-.52A.5.5,0,0,1,334.52,179.21Zm-.93,5.84v-4.56h.83v4.56Z" style="fill: #fff"/>
      <path d="M335.8,178.36h.83v6.69h-.83Z" style="fill: #fff"/>
      <path d="M339,179.21a.5.5,0,0,1-.53.51.49.49,0,0,1-.5-.51.51.51,0,0,1,.52-.52A.5.5,0,0,1,339,179.21Zm-.93,5.84v-4.56h.83v4.56Z" style="fill: #fff"/>
      <path d="M344.36,182.73a2.24,2.24,0,0,1-2.28,2.43,2.18,2.18,0,0,1-2.18-2.35,2.23,2.23,0,0,1,2.26-2.41A2.16,2.16,0,0,1,344.36,182.73Zm-3.61.05c0,1,.56,1.75,1.37,1.75s1.39-.74,1.39-1.77c0-.77-.39-1.74-1.37-1.74S340.75,181.92,340.75,182.78Z" style="fill: #fff"/>
      <path d="M345.4,181.72c0-.48,0-.85,0-1.23h.73l0,.75h0a1.68,1.68,0,0,1,1.5-.84c.64,0,1.62.37,1.62,1.94v2.71h-.83v-2.63c0-.73-.28-1.35-1.06-1.35a1.23,1.23,0,0,0-1.17,1.24v2.74h-.83Z" style="fill: #fff"/>
    </g>
    <g>
      <path d="M391.54,91.15h-2.2v-.8h5.35v.8h-2.21v6.43h-.94Z" style="fill: #fff"/>
      <path d="M395.23,95.16A1.66,1.66,0,0,0,397,97a3.4,3.4,0,0,0,1.44-.27l.17.67a4.19,4.19,0,0,1-1.74.34,2.42,2.42,0,0,1-2.55-2.63,2.51,2.51,0,0,1,2.43-2.79,2.19,2.19,0,0,1,2.15,2.44,2.51,2.51,0,0,1,0,.44Zm2.77-.68A1.34,1.34,0,0,0,396.69,93a1.55,1.55,0,0,0-1.45,1.52Z" style="fill: #fff"/>
      <path d="M403.78,97.4a3.79,3.79,0,0,1-1.49.3,2.47,2.47,0,0,1-2.59-2.65,2.65,2.65,0,0,1,2.79-2.77,3,3,0,0,1,1.31.28l-.21.72a2.31,2.31,0,0,0-1.1-.25,2,2,0,0,0,0,3.91,2.67,2.67,0,0,0,1.16-.25Z" style="fill: #fff"/>
      <path d="M404.89,90h.94v3.24h0a1.82,1.82,0,0,1,.68-.67,1.91,1.91,0,0,1,1-.26c.7,0,1.81.43,1.81,2.21v3.09h-.94v-3c0-.84-.31-1.54-1.2-1.54a1.38,1.38,0,0,0-1.27.94,1.29,1.29,0,0,0-.06.45v3.13h-.94Z" style="fill: #fff"/>
      <path d="M413,96.44a3.15,3.15,0,0,0,1.66.47c.95,0,1.51-.5,1.51-1.23s-.38-1.06-1.36-1.42c-1.18-.43-1.91-1.06-1.91-2.06a2.08,2.08,0,0,1,2.34-2,3.29,3.29,0,0,1,1.59.36l-.26.76a2.69,2.69,0,0,0-1.36-.34c-1,0-1.37.59-1.37,1.08,0,.67.44,1,1.44,1.39,1.22.47,1.84,1.06,1.84,2.13s-.82,2.09-2.52,2.09a3.73,3.73,0,0,1-1.85-.48Z" style="fill: #fff"/>
      <path d="M419.51,91.15v1.24h1.35v.72h-1.35v2.8c0,.64.18,1,.7,1a1.9,1.9,0,0,0,.55-.06l0,.72a2.66,2.66,0,0,1-.83.13,1.33,1.33,0,0,1-1-.4,2,2,0,0,1-.37-1.36V93.11h-.8v-.72h.8v-1Z" style="fill: #fff"/>
      <path d="M425.57,96.34a9.33,9.33,0,0,0,.07,1.24h-.84l-.08-.66h0a1.94,1.94,0,0,1-1.59.78,1.48,1.48,0,0,1-1.59-1.49c0-1.26,1.12-1.94,3.12-1.93v-.11A1.06,1.06,0,0,0,423.45,93a2.57,2.57,0,0,0-1.36.38l-.21-.63a3.33,3.33,0,0,1,1.71-.45c1.59,0,2,1.08,2,2.11Zm-.91-1.41c-1,0-2.2.16-2.2,1.17a.83.83,0,0,0,.88.9,1.31,1.31,0,0,0,1.27-.87,1.17,1.17,0,0,0,.05-.3Z" style="fill: #fff"/>
      <path d="M427.09,94c0-.61,0-1.14,0-1.62h.82l.05,1h0a1.57,1.57,0,0,1,1.45-1.14l.25,0v.89a1.52,1.52,0,0,0-.32,0,1.32,1.32,0,0,0-1.26,1.2,3,3,0,0,0,0,.44v2.77h-1Z" style="fill: #fff"/>
      <path d="M432,91.15v1.24h1.36v.72H432v2.8c0,.64.19,1,.71,1a1.9,1.9,0,0,0,.55-.06l0,.72a2.66,2.66,0,0,1-.83.13,1.33,1.33,0,0,1-1-.4,2,2,0,0,1-.37-1.36V93.11h-.8v-.72h.8v-1Z" style="fill: #fff"/>
      <path d="M438.75,96.15c0,.55,0,1,0,1.43H438l-.06-.85h0a1.92,1.92,0,0,1-1.71,1c-.82,0-1.79-.46-1.79-2.28v-3h.94v2.86c0,1,.31,1.66,1.16,1.66a1.36,1.36,0,0,0,1.24-.86,1.19,1.19,0,0,0,.09-.49V92.39h.94Z" style="fill: #fff"/>
      <path d="M440.32,94.08c0-.66,0-1.2,0-1.69h.83l.06.89h0a2,2,0,0,1,1.84-1,2.35,2.35,0,0,1,2.21,2.63c0,1.86-1.15,2.79-2.37,2.79a1.82,1.82,0,0,1-1.6-.82h0V99.7h-.93Zm.93,1.39a1.17,1.17,0,0,0,.05.38A1.45,1.45,0,0,0,442.71,97c1,0,1.58-.82,1.58-2,0-1-.55-1.92-1.55-1.92a1.48,1.48,0,0,0-1.42,1.16,1.27,1.27,0,0,0-.07.38Z" style="fill: #fff"/>
    </g>
    <g>
      <path d="M400.54,106.45a11.38,11.38,0,0,1,1.79-.14,3,3,0,0,1,2,.6,2,2,0,0,1,.63,1.51,2.12,2.12,0,0,1-.56,1.55,3,3,0,0,1-2.21.79,3.45,3.45,0,0,1-.75-.06v2.89h-.93Zm.93,3.49a3.37,3.37,0,0,0,.77.07c1.13,0,1.82-.56,1.82-1.53s-.69-1.43-1.71-1.43a3.45,3.45,0,0,0-.88.08Z" style="fill: #fff"/>
      <path d="M409.58,112.35a7.75,7.75,0,0,0,.08,1.24h-.85l-.07-.65h0a1.91,1.91,0,0,1-1.58.77,1.48,1.48,0,0,1-1.59-1.49c0-1.25,1.11-1.94,3.12-1.93v-.11a1.06,1.06,0,0,0-1.18-1.19,2.47,2.47,0,0,0-1.36.39l-.22-.63a3.37,3.37,0,0,1,1.72-.45c1.59,0,2,1.08,2,2.11Zm-.91-1.41c-1,0-2.2.16-2.2,1.17a.83.83,0,0,0,.88.9,1.32,1.32,0,0,0,1.28-.86,1.2,1.2,0,0,0,0-.31Z" style="fill: #fff"/>
      <path d="M411.39,108.4l1,2.91a12.51,12.51,0,0,1,.41,1.34h0c.11-.43.26-.86.43-1.34l1-2.91h1l-2,5.19h-.9l-2-5.19Z" style="fill: #fff"/>
      <path d="M417.23,106.94a.59.59,0,0,1-1.17,0,.57.57,0,0,1,.59-.58A.56.56,0,0,1,417.23,106.94Zm-1.05,6.65V108.4h.95v5.19Z" style="fill: #fff"/>
      <path d="M418.69,106h.95v7.61h-.95Z" style="fill: #fff"/>
      <path d="M422.27,106.94a.56.56,0,0,1-.6.58.55.55,0,0,1-.56-.58.56.56,0,0,1,.59-.58A.55.55,0,0,1,422.27,106.94Zm-1,6.65V108.4h.95v5.19Z" style="fill: #fff"/>
      <path d="M428.43,111a2.54,2.54,0,0,1-2.58,2.75,2.47,2.47,0,0,1-2.49-2.67,2.53,2.53,0,0,1,2.57-2.74A2.45,2.45,0,0,1,428.43,111Zm-4.11.05c0,1.14.65,2,1.57,2s1.58-.84,1.58-2c0-.88-.44-2-1.56-2S424.32,110,424.32,111Z" style="fill: #fff"/>
      <path d="M429.62,109.81c0-.55,0-1,0-1.41h.84l.05.86h0a1.93,1.93,0,0,1,1.72-1c.72,0,1.83.42,1.83,2.2v3.09h-.94v-3c0-.84-.31-1.53-1.2-1.53a1.37,1.37,0,0,0-1.27,1,1.46,1.46,0,0,0-.06.44v3.12h-.95Z" style="fill: #fff"/>
    </g>
    <rect x="739.94" y="116.43" width="115.76" height="91.98" style="fill: #c1c1c1;stroke: #9c0;stroke-miterlimit: 10"/>
    <rect x="715.89" y="86.94" width="105.99" height="29.49" style="fill: #c1c1c1;stroke: #9c0;stroke-miterlimit: 10"/>
    <g>
      <path d="M763.86,120.7v5.39h-.71V120.7Z" style="fill: #fff"/>
      <path d="M765.13,123.27c0-.41,0-.73,0-1h.62l0,.64h0a1.43,1.43,0,0,1,1.28-.72c.53,0,1.36.32,1.36,1.65v2.3h-.7v-2.23c0-.63-.23-1.14-.9-1.14a1,1,0,0,0-.94.71,1.09,1.09,0,0,0,0,.33v2.33h-.7Z" style="fill: #fff"/>
      <path d="M770.39,121.29v.93h1v.54h-1v2.08c0,.48.13.75.52.75a1.44,1.44,0,0,0,.41,0l0,.53a1.8,1.8,0,0,1-.62.1,1,1,0,0,1-.76-.3,1.51,1.51,0,0,1-.27-1v-2.11h-.6v-.54h.6v-.72Z" style="fill: #fff"/>
      <path d="M772.53,124.28a1.24,1.24,0,0,0,1.33,1.35,2.57,2.57,0,0,0,1.07-.2l.13.5a3.2,3.2,0,0,1-1.3.25,1.8,1.8,0,0,1-1.9-2,1.87,1.87,0,0,1,1.81-2.08,1.63,1.63,0,0,1,1.6,1.81,2.5,2.5,0,0,1,0,.33Zm2.06-.5a1,1,0,0,0-1-1.14,1.15,1.15,0,0,0-1.08,1.14Z" style="fill: #fff"/>
      <path d="M776.15,123.43c0-.46,0-.85,0-1.21h.62l0,.77h0a1.16,1.16,0,0,1,1.07-.85l.2,0v.66a.93.93,0,0,0-.24,0,1,1,0,0,0-1,.9,3.08,3.08,0,0,0,0,.33v2.06h-.7Z" style="fill: #fff"/>
      <path d="M778.79,123.27c0-.41,0-.73,0-1h.63l0,.64h0a1.43,1.43,0,0,1,1.28-.72c.54,0,1.37.32,1.37,1.65v2.3h-.71v-2.23c0-.63-.23-1.14-.89-1.14a1,1,0,0,0-.94.71.85.85,0,0,0,0,.33v2.33h-.71Z" style="fill: #fff"/>
      <path d="M786,125.16a6.41,6.41,0,0,0,.06.93h-.63l-.06-.49h0a1.45,1.45,0,0,1-1.19.58,1.1,1.1,0,0,1-1.18-1.11c0-.94.83-1.45,2.33-1.44v-.08a.79.79,0,0,0-.88-.89,1.82,1.82,0,0,0-1,.29l-.16-.47a2.5,2.5,0,0,1,1.28-.34,1.37,1.37,0,0,1,1.47,1.57Zm-.68-1c-.76,0-1.64.12-1.64.88a.62.62,0,0,0,.66.67,1,1,0,0,0,1-.65,1,1,0,0,0,0-.22Z" style="fill: #fff"/>
      <path d="M787.91,121.29v.93h1v.54h-1v2.08c0,.48.13.75.52.75a1.44,1.44,0,0,0,.41,0l0,.53a1.8,1.8,0,0,1-.62.1,1,1,0,0,1-.76-.3,1.51,1.51,0,0,1-.27-1v-2.11h-.6v-.54h.6v-.72Z" style="fill: #fff"/>
      <path d="M790.49,121.13a.42.42,0,0,1-.45.43.41.41,0,0,1-.42-.43.44.44,0,1,1,.87,0Zm-.78,5v-3.87h.7v3.87Z" style="fill: #fff"/>
      <path d="M795.08,124.12a1.9,1.9,0,0,1-1.93,2.06,1.84,1.84,0,0,1-1.85-2,1.89,1.89,0,0,1,1.92-2A1.83,1.83,0,0,1,795.08,124.12Zm-3.06,0c0,.85.48,1.49,1.16,1.49s1.18-.63,1.18-1.5c0-.66-.33-1.48-1.16-1.48S792,123.43,792,124.16Z" style="fill: #fff"/>
      <path d="M796,123.27c0-.41,0-.73,0-1h.62l0,.64h0a1.43,1.43,0,0,1,1.28-.72c.53,0,1.36.32,1.36,1.65v2.3h-.7v-2.23c0-.63-.23-1.14-.9-1.14a1,1,0,0,0-.94.71,1.09,1.09,0,0,0-.05.33v2.33H796Z" style="fill: #fff"/>
      <path d="M803.13,125.16a6.52,6.52,0,0,0,0,.93h-.63l0-.49h0a1.42,1.42,0,0,1-1.18.58,1.1,1.1,0,0,1-1.18-1.11c0-.94.83-1.45,2.32-1.44v-.08a.79.79,0,0,0-.88-.89,1.79,1.79,0,0,0-1,.29l-.16-.47a2.5,2.5,0,0,1,1.28-.34,1.37,1.37,0,0,1,1.47,1.57Zm-.68-1c-.77,0-1.64.12-1.64.88a.61.61,0,0,0,.65.67,1,1,0,0,0,1-.65,1,1,0,0,0,0-.22Z" style="fill: #fff"/>
      <path d="M804.26,120.41H805v5.68h-.71Z" style="fill: #fff"/>
      <path d="M807.87,120.76a9,9,0,0,1,1.34-.1,2.2,2.2,0,0,1,1.51.45,1.46,1.46,0,0,1,.47,1.13,1.56,1.56,0,0,1-.42,1.15,2.22,2.22,0,0,1-1.64.59,2.38,2.38,0,0,1-.56,0v2.16h-.7Zm.7,2.6a2.26,2.26,0,0,0,.57.06c.84,0,1.36-.42,1.36-1.14s-.52-1.07-1.28-1.07a2.94,2.94,0,0,0-.65.06Z" style="fill: #fff"/>
      <path d="M814.62,125.16a6.52,6.52,0,0,0,0,.93H814l-.06-.49h0a1.43,1.43,0,0,1-1.18.58,1.1,1.1,0,0,1-1.19-1.11c0-.94.83-1.45,2.33-1.44v-.08a.79.79,0,0,0-.88-.89,1.79,1.79,0,0,0-1,.29l-.16-.47a2.46,2.46,0,0,1,1.27-.34,1.37,1.37,0,0,1,1.48,1.57Zm-.68-1c-.77,0-1.64.12-1.64.88a.61.61,0,0,0,.65.67,1,1,0,0,0,.95-.65.64.64,0,0,0,0-.22Z" style="fill: #fff"/>
      <path d="M816,122.22l.76,2.17a10.17,10.17,0,0,1,.31,1h0c.08-.32.2-.64.32-1l.76-2.17h.73l-1.52,3.87h-.67l-1.47-3.87Z" style="fill: #fff"/>
      <path d="M820.32,121.13a.42.42,0,0,1-.45.43.41.41,0,0,1-.42-.43.43.43,0,0,1,.44-.44A.42.42,0,0,1,820.32,121.13Zm-.78,5v-3.87h.7v3.87Z" style="fill: #fff"/>
      <path d="M821.41,120.41h.7v5.68h-.7Z" style="fill: #fff"/>
      <path d="M824.08,121.13a.42.42,0,0,1-.45.43.41.41,0,0,1-.42-.43.44.44,0,1,1,.87,0Zm-.78,5v-3.87h.7v3.87Z" style="fill: #fff"/>
      <path d="M828.67,124.12a1.9,1.9,0,0,1-1.93,2.06,1.84,1.84,0,0,1-1.85-2,1.89,1.89,0,0,1,1.92-2A1.83,1.83,0,0,1,828.67,124.12Zm-3.06,0c0,.85.48,1.49,1.17,1.49s1.17-.63,1.17-1.5c0-.66-.33-1.48-1.16-1.48S825.61,123.43,825.61,124.16Z" style="fill: #fff"/>
      <path d="M829.56,123.27c0-.41,0-.73,0-1h.62l0,.64h0a1.43,1.43,0,0,1,1.28-.72c.53,0,1.36.32,1.36,1.65v2.3h-.7v-2.23c0-.63-.23-1.14-.89-1.14a1,1,0,0,0-1,.71,1.09,1.09,0,0,0,0,.33v2.33h-.7Z" style="fill: #fff"/>
    </g>
  </g>
  <g id="Booths">
    <rect id="b442" x="112.93" y="91.88" width="19.29" height="19.42" style="fill: none;stroke: #9c0;stroke-miterlimit: 10"/>
    <rect id="b643" x="209.4" y="91.88" width="38.59" height="19.42" style="fill: none;stroke: #9c0;stroke-miterlimit: 10"/>
    <rect id="b545" x="190.1" y="91.88" width="19.29" height="19.42" style="fill: none;stroke: #9c0;stroke-miterlimit: 10"/>
    <rect id="b543" x="151.52" y="91.88" width="19.29" height="19.42" style="fill: none;stroke: #9c0;stroke-miterlimit: 10"/>
    <rect id="b445" x="132.23" y="91.88" width="19.29" height="19.42" style="fill: none;stroke: #9c0;stroke-miterlimit: 10"/>
    <rect id="b972" x="309.84" y="66.39" width="19.29" height="19.42" transform="translate(-8.81 85.28) rotate(-15)" style="fill: none;stroke: #9c0;stroke-miterlimit: 10"/>
    <rect id="b645" x="247.98" y="91.88" width="38.59" height="19.42" style="fill: none;stroke: #9c0;stroke-miterlimit: 10"/>
    <rect id="b978" x="365.75" y="51.41" width="19.29" height="19.42" transform="translate(-3.03 99.24) rotate(-15)" style="fill: none;stroke: #9c0;stroke-miterlimit: 10"/>
    <rect id="b976" x="347.12" y="56.41" width="19.29" height="19.42" transform="translate(-4.96 94.59) rotate(-15)" style="fill: none;stroke: #9c0;stroke-miterlimit: 10"/>
    <rect id="b974" x="328.48" y="61.4" width="19.29" height="19.42" transform="translate(-6.88 89.94) rotate(-15)" style="fill: none;stroke: #9c0;stroke-miterlimit: 10"/>
    <rect id="b988" x="504.44" y="66.39" width="19.29" height="19.42" transform="translate(37.21 -130.46) rotate(15)" style="fill: none;stroke: #9c0;stroke-miterlimit: 10"/>
    <rect id="b986" x="485.81" y="61.4" width="19.29" height="19.42" transform="translate(35.29 -125.81) rotate(15)" style="fill: none;stroke: #9c0;stroke-miterlimit: 10"/>
    <rect id="b984" x="467.17" y="56.41" width="19.29" height="19.42" transform="translate(33.36 -121.16) rotate(15)" style="fill: none;stroke: #9c0;stroke-miterlimit: 10"/>
    <rect id="b982" x="448.54" y="51.41" width="19.29" height="19.42" transform="translate(31.43 -116.5) rotate(15)" style="fill: none;stroke: #9c0;stroke-miterlimit: 10"/>
    <rect id="b1343" x="624.19" y="91.88" width="19.29" height="19.42" style="fill: none;stroke: #9c0;stroke-miterlimit: 10"/>
    <rect id="b1245" x="604.89" y="91.88" width="19.29" height="19.42" style="fill: none;stroke: #9c0;stroke-miterlimit: 10"/>
    <rect id="b1244" x="585.6" y="91.88" width="19.29" height="19.42" style="fill: none;stroke: #9c0;stroke-miterlimit: 10"/>
    <rect id="b1145" x="547.02" y="91.88" width="38.59" height="19.42" style="fill: none;stroke: #9c0;stroke-miterlimit: 10"/>
    <rect id="b1445" x="720.65" y="91.88" width="19.29" height="19.42" style="fill: none;stroke: #9c0;stroke-miterlimit: 10"/>
    <rect id="b1443" x="682.06" y="91.88" width="19.29" height="19.42" style="fill: none;stroke: #9c0;stroke-miterlimit: 10"/>
    <rect id="b1345" x="662.77" y="91.88" width="19.29" height="19.42" style="fill: none;stroke: #9c0;stroke-miterlimit: 10"/>
    <rect id="b1344" x="643.48" y="91.88" width="19.29" height="19.42" style="fill: none;stroke: #9c0;stroke-miterlimit: 10"/>
    <rect id="b1644" x="797.82" y="91.88" width="19.29" height="19.42" style="fill: none;stroke: #9c0;stroke-miterlimit: 10"/>
    <rect id="b1545" x="778.53" y="91.88" width="19.29" height="19.42" style="fill: none;stroke: #9c0;stroke-miterlimit: 10"/>
    <rect id="b1544" x="759.23" y="91.88" width="19.29" height="19.42" style="fill: none;stroke: #9c0;stroke-miterlimit: 10"/>
    <rect id="b1543" x="739.94" y="91.88" width="19.29" height="19.42" style="fill: none;stroke: #9c0;stroke-miterlimit: 10"/>
    <rect id="b340" x="35.76" y="111.3" width="19.29" height="19.42" style="fill: none;stroke: #9c0;stroke-miterlimit: 10"/>
    <rect id="b440" x="93.64" y="130.72" width="19.29" height="19.42" style="fill: none;stroke: #9c0;stroke-miterlimit: 10"/>
    <rect id="b341" x="74.35" y="130.72" width="19.29" height="19.42" style="fill: none;stroke: #9c0;stroke-miterlimit: 10"/>
    <rect id="b342" x="35.76" y="130.72" width="19.29" height="19.42" style="fill: none;stroke: #9c0;stroke-miterlimit: 10"/>
    <rect id="b642" x="209.4" y="130.72" width="19.29" height="19.42" style="fill: none;stroke: #9c0;stroke-miterlimit: 10"/>
    <rect id="b542" x="151.52" y="130.72" width="19.29" height="19.42" style="fill: none;stroke: #9c0;stroke-miterlimit: 10"/>
    <rect id="b441" x="132.23" y="130.72" width="19.29" height="19.42" style="fill: none;stroke: #9c0;stroke-miterlimit: 10"/>
    <rect id="b971" x="312.59" y="122.24" width="19.29" height="19.42" transform="translate(-22.81 178.8) rotate(-30)" style="fill: none;stroke: #9c0;stroke-miterlimit: 10"/>
    <rect id="b975" x="346" y="102.95" width="19.29" height="19.42" transform="translate(-8.68 192.92) rotate(-30)" style="fill: none;stroke: #9c0;stroke-miterlimit: 10"/>
    <rect id="b973" x="329.3" y="112.6" width="19.29" height="19.42" transform="translate(-15.74 185.86) rotate(-30)" style="fill: none;stroke: #9c0;stroke-miterlimit: 10"/>
    <rect id="b987" x="502.7" y="122.24" width="19.29" height="19.42" transform="matrix(0.87, 0.5, -0.5, 0.87, 134.62, -238.5)" style="fill: none;stroke: #9c0;stroke-miterlimit: 10"/>
    <rect id="b985" x="485.99" y="112.6" width="19.29" height="19.42" transform="matrix(0.87, 0.5, -0.5, 0.87, 127.56, -231.43)" style="fill: none;stroke: #9c0;stroke-miterlimit: 10"/>
    <rect id="b983" x="469.29" y="102.95" width="19.29" height="19.42" transform="translate(120.5 -224.37) rotate(30)" style="fill: none;stroke: #9c0;stroke-miterlimit: 10"/>
    <rect id="b1340" x="624.19" y="130.72" width="19.29" height="19.42" style="fill: none;stroke: #9c0;stroke-miterlimit: 10"/>
    <rect id="b1241" x="604.89" y="130.72" width="19.29" height="19.42" style="fill: none;stroke: #9c0;stroke-miterlimit: 10"/>
    <rect id="b1441" x="720.65" y="130.72" width="19.29" height="19.42" style="fill: none;stroke: #9c0;stroke-miterlimit: 10"/>
    <rect id="b1540" x="739.94" y="130.72" width="19.29" height="19.42" style="fill: none;stroke: #9c0;stroke-miterlimit: 10"/>
    <rect id="b1541" x="836.4" y="130.72" width="19.29" height="19.42" style="fill: none;stroke: #9c0;stroke-miterlimit: 10"/>
    <rect id="b438" x="93.64" y="150.14" width="19.29" height="19.42" style="fill: none;stroke: #9c0;stroke-miterlimit: 10"/>
    <rect id="b339" x="74.35" y="150.14" width="19.29" height="19.42" style="fill: none;stroke: #9c0;stroke-miterlimit: 10"/>
    <rect id="b338" x="35.76" y="150.14" width="19.29" height="19.42" style="fill: none;stroke: #9c0;stroke-miterlimit: 10"/>
    <rect id="b640" x="209.4" y="150.14" width="19.29" height="19.42" style="fill: none;stroke: #9c0;stroke-miterlimit: 10"/>
    <rect id="b541" x="190.1" y="130.72" width="19.29" height="38.84" style="fill: none;stroke: #9c0;stroke-miterlimit: 10"/>
    <rect id="b540" x="151.52" y="150.14" width="19.29" height="19.42" style="fill: none;stroke: #9c0;stroke-miterlimit: 10"/>
    <rect id="b439" x="132.23" y="150.14" width="19.29" height="19.42" style="fill: none;stroke: #9c0;stroke-miterlimit: 10"/>
    <rect id="b950" x="322.3" y="139.06" width="19.29" height="19.42" transform="translate(-29.91 185.9) rotate(-30)" style="fill: none;stroke: #9c0;stroke-miterlimit: 10"/>
    <rect id="b738" x="267.27" y="130.72" width="19.29" height="38.84" style="fill: none;stroke: #9c0;stroke-miterlimit: 10"/>
    <rect id="b639" x="247.98" y="130.72" width="19.29" height="38.84" style="fill: none;stroke: #9c0;stroke-miterlimit: 10"/>
    <rect id="b954" x="355.71" y="119.77" width="19.29" height="19.42" transform="translate(-15.79 200.03) rotate(-30)" style="fill: none;stroke: #9c0;stroke-miterlimit: 10"/>
    <rect id="b952" x="339.01" y="129.42" width="19.29" height="19.42" transform="matrix(0.87, -0.5, 0.5, 0.87, -22.85, 192.97)" style="fill: none;stroke: #9c0;stroke-miterlimit: 10"/>
    <rect id="b962" x="492.99" y="139.06" width="19.29" height="19.42" transform="translate(141.73 -231.39) rotate(30)" style="fill: none;stroke: #9c0;stroke-miterlimit: 10"/>
    <rect id="b960" x="476.28" y="129.42" width="19.29" height="19.42" transform="translate(134.67 -224.33) rotate(30)" style="fill: none;stroke: #9c0;stroke-miterlimit: 10"/>
    <rect id="b958" x="459.57" y="119.77" width="19.29" height="19.42" transform="translate(127.6 -217.26) rotate(30)" style="fill: none;stroke: #9c0;stroke-miterlimit: 10"/>
    <rect id="b1338" x="624.19" y="150.14" width="19.29" height="19.42" style="fill: none;stroke: #9c0;stroke-miterlimit: 10"/>
    <rect id="b1239" x="604.89" y="150.14" width="19.29" height="19.42" style="fill: none;stroke: #9c0;stroke-miterlimit: 10"/>
    <rect id="b1438" x="682.06" y="130.72" width="19.29" height="38.84" style="fill: none;stroke: #9c0;stroke-miterlimit: 10"/>
    <rect id="b1339" x="662.77" y="130.72" width="19.29" height="38.84" style="fill: none;stroke: #9c0;stroke-miterlimit: 10"/>
    <rect id="b336" x="35.76" y="169.56" width="19.29" height="19.42" style="fill: none;stroke: #9c0;stroke-miterlimit: 10"/>
    <rect id="b537" x="190.1" y="169.56" width="19.29" height="19.42" style="fill: none;stroke: #9c0;stroke-miterlimit: 10"/>
    <rect id="b437" x="132.23" y="169.56" width="19.29" height="19.42" style="fill: none;stroke: #9c0;stroke-miterlimit: 10"/>
    <rect id="b1336" x="624.19" y="169.56" width="19.29" height="19.42" style="fill: none;stroke: #9c0;stroke-miterlimit: 10"/>
    <rect id="b1237" x="604.89" y="169.56" width="19.29" height="19.42" style="fill: none;stroke: #9c0;stroke-miterlimit: 10"/>
    <rect id="b1137" x="547.02" y="130.72" width="38.59" height="58.26" style="fill: none;stroke: #9c0;stroke-miterlimit: 10"/>
    <rect id="b1437" x="720.65" y="150.14" width="19.29" height="38.84" style="fill: none;stroke: #9c0;stroke-miterlimit: 10"/>
    <rect id="b1436" x="682.06" y="169.56" width="19.29" height="19.42" style="fill: none;stroke: #9c0;stroke-miterlimit: 10"/>
    <rect id="b_INT" x="778.53" y="130.72" width="38.59" height="58.26" style="fill: none;stroke: #9c0;stroke-miterlimit: 10"/>
    <rect id="b1536" x="739.94" y="150.14" width="19.29" height="38.84" style="fill: none;stroke: #9c0;stroke-miterlimit: 10"/>
    <rect id="b1537" x="836.4" y="150.14" width="19.29" height="38.84" style="fill: none;stroke: #9c0;stroke-miterlimit: 10"/>
    <rect id="b333" x="74.35" y="188.98" width="38.59" height="38.84" style="fill: none;stroke: #9c0;stroke-miterlimit: 10"/>
    <rect id="b334" x="35.76" y="188.98" width="19.29" height="19.42" style="fill: none;stroke: #9c0;stroke-miterlimit: 10"/>
    <rect id="b634" x="209.4" y="169.56" width="19.29" height="38.84" style="fill: none;stroke: #9c0;stroke-miterlimit: 10"/>
    <rect id="b535" x="190.1" y="188.98" width="19.29" height="19.42" style="fill: none;stroke: #9c0;stroke-miterlimit: 10"/>
    <rect id="b534" x="151.52" y="169.56" width="19.29" height="38.84" style="fill: none;stroke: #9c0;stroke-miterlimit: 10"/>
    <rect id="b435" x="132.23" y="188.98" width="19.29" height="19.42" style="fill: none;stroke: #9c0;stroke-miterlimit: 10"/>
    <rect id="b727" x="305.86" y="188.98" width="38.59" height="97.1" style="fill: none;stroke: #9c0;stroke-miterlimit: 10"/>
    <rect id="b734" x="267.27" y="188.98" width="19.29" height="19.42" style="fill: none;stroke: #9c0;stroke-miterlimit: 10"/>
    <rect id="b635" x="247.98" y="188.98" width="19.29" height="19.42" style="fill: none;stroke: #9c0;stroke-miterlimit: 10"/>
    <rect id="b835" x="363.74" y="188.98" width="19.29" height="19.42" style="fill: none;stroke: #9c0;stroke-miterlimit: 10"/>
    <rect id="b_FOOD2" x="431.26" y="188.98" width="38.59" height="26.58" style="fill: none;stroke: #9c0;stroke-miterlimit: 10"/>
    <rect id="b1435" x="720.65" y="188.98" width="19.29" height="19.42" style="fill: none;stroke: #9c0;stroke-miterlimit: 10"/>
    <rect id="b1434" x="682.06" y="188.98" width="19.29" height="19.42" style="fill: none;stroke: #9c0;stroke-miterlimit: 10"/>
    <rect id="b1335" x="662.77" y="169.56" width="19.29" height="38.84" style="fill: none;stroke: #9c0;stroke-miterlimit: 10"/>
    <rect id="b1634" x="797.82" y="188.98" width="19.29" height="19.42" style="fill: none;stroke: #9c0;stroke-miterlimit: 10"/>
    <rect id="b1535" x="778.53" y="188.98" width="19.29" height="19.42" style="fill: none;stroke: #9c0;stroke-miterlimit: 10"/>
    <rect id="b1534" x="739.94" y="188.98" width="19.29" height="19.42" style="fill: none;stroke: #9c0;stroke-miterlimit: 10"/>
    <rect id="b1635" x="836.4" y="188.98" width="19.29" height="19.42" style="fill: none;stroke: #9c0;stroke-miterlimit: 10"/>
    <rect id="b332" x="35.76" y="208.4" width="19.29" height="19.42" style="fill: none;stroke: #9c0;stroke-miterlimit: 10"/>
    <rect id="b732" x="267.27" y="208.4" width="19.29" height="19.42" style="fill: none;stroke: #9c0;stroke-miterlimit: 10"/>
    <rect id="b633" x="247.98" y="208.4" width="19.29" height="19.42" style="fill: none;stroke: #9c0;stroke-miterlimit: 10"/>
    <rect id="b932" x="383.03" y="188.98" width="19.29" height="38.84" style="fill: none;stroke: #9c0;stroke-miterlimit: 10"/>
    <rect id="b833" x="363.74" y="208.4" width="19.29" height="19.42" style="fill: none;stroke: #9c0;stroke-miterlimit: 10"/>
    <rect id="b1033" x="489.14" y="188.98" width="38.59" height="38.84" style="fill: none;stroke: #9c0;stroke-miterlimit: 10"/>
    <rect id="b1633" x="836.4" y="208.4" width="19.29" height="19.42" style="fill: none;stroke: #9c0;stroke-miterlimit: 10"/>
    <rect id="b330" x="35.76" y="227.82" width="19.29" height="19.42" style="fill: none;stroke: #9c0;stroke-miterlimit: 10"/>
    <rect id="b530" x="132.23" y="227.82" width="96.46" height="58.26" style="fill: none;stroke: #9c0;stroke-miterlimit: 10"/>
    <rect id="b730" x="267.27" y="227.82" width="19.29" height="19.42" style="fill: none;stroke: #9c0;stroke-miterlimit: 10"/>
    <rect id="b631" x="247.98" y="227.82" width="19.29" height="19.42" style="fill: none;stroke: #9c0;stroke-miterlimit: 10"/>
    <rect id="b930" x="383.03" y="227.82" width="19.29" height="19.42" style="fill: none;stroke: #9c0;stroke-miterlimit: 10"/>
    <rect id="b831" x="363.74" y="227.82" width="19.29" height="19.42" style="fill: none;stroke: #9c0;stroke-miterlimit: 10"/>
    <rect id="b927" x="431.26" y="227.82" width="38.59" height="58.26" style="fill: none;stroke: #9c0;stroke-miterlimit: 10"/>
    <rect id="b1330" x="624.19" y="227.82" width="19.29" height="19.42" style="fill: none;stroke: #9c0;stroke-miterlimit: 10"/>
    <rect id="b1231" x="604.89" y="227.82" width="19.29" height="19.42" style="fill: none;stroke: #9c0;stroke-miterlimit: 10"/>
    <rect id="b_PITSTOP" x="662.77" y="227.82" width="96.46" height="58.26" style="fill: none;stroke: #9c0;stroke-miterlimit: 10"/>
    <rect id="b1631" x="836.4" y="227.82" width="19.29" height="19.42" style="fill: none;stroke: #9c0;stroke-miterlimit: 10"/>
    <rect id="b428" x="93.64" y="247.24" width="19.29" height="19.42" style="fill: none;stroke: #9c0;stroke-miterlimit: 10"/>
    <rect id="b328" x="35.76" y="247.24" width="19.29" height="19.42" style="fill: none;stroke: #9c0;stroke-miterlimit: 10"/>
    <rect id="b728" x="267.27" y="247.24" width="19.29" height="19.42" style="fill: none;stroke: #9c0;stroke-miterlimit: 10"/>
    <rect id="b629" x="247.98" y="247.24" width="19.29" height="19.42" style="fill: none;stroke: #9c0;stroke-miterlimit: 10"/>
    <rect id="b928" x="383.03" y="247.24" width="19.29" height="19.42" style="fill: none;stroke: #9c0;stroke-miterlimit: 10"/>
    <rect id="b829" x="363.74" y="247.24" width="19.29" height="19.42" style="fill: none;stroke: #9c0;stroke-miterlimit: 10"/>
    <rect id="b1027" x="489.14" y="247.24" width="38.59" height="38.84" style="fill: none;stroke: #9c0;stroke-miterlimit: 10"/>
    <rect id="b1527" x="778.53" y="247.24" width="38.59" height="38.84" style="fill: none;stroke: #9c0;stroke-miterlimit: 10"/>
    <rect id="b1629" x="836.4" y="247.24" width="19.29" height="19.42" style="fill: none;stroke: #9c0;stroke-miterlimit: 10"/>
    <rect id="b426" x="93.64" y="266.66" width="19.29" height="19.42" style="fill: none;stroke: #9c0;stroke-miterlimit: 10"/>
    <rect id="b326" x="35.76" y="266.66" width="19.29" height="19.42" style="fill: none;stroke: #9c0;stroke-miterlimit: 10"/>
    <rect id="b726" x="267.27" y="266.66" width="19.29" height="19.42" style="fill: none;stroke: #9c0;stroke-miterlimit: 10"/>
    <rect id="b627" x="247.98" y="266.66" width="19.29" height="19.42" style="fill: none;stroke: #9c0;stroke-miterlimit: 10"/>
    <rect id="b926" x="383.03" y="266.66" width="19.29" height="19.42" style="fill: none;stroke: #9c0;stroke-miterlimit: 10"/>
    <rect id="b827" x="363.74" y="266.66" width="19.29" height="19.42" style="fill: none;stroke: #9c0;stroke-miterlimit: 10"/>
    <rect id="b1326" x="624.19" y="247.24" width="19.29" height="38.84" style="fill: none;stroke: #9c0;stroke-miterlimit: 10"/>
    <rect id="b1227" x="604.89" y="247.24" width="19.29" height="38.84" style="fill: none;stroke: #9c0;stroke-miterlimit: 10"/>
    <rect id="b1127" x="547.02" y="208.4" width="38.59" height="77.68" style="fill: none;stroke: #9c0;stroke-miterlimit: 10"/>
    <rect id="b1627" x="836.4" y="266.66" width="19.29" height="19.42" style="fill: none;stroke: #9c0;stroke-miterlimit: 10"/>
    <rect id="b420" x="93.64" y="312.59" width="19.29" height="19.19" style="fill: none;stroke: #9c0;stroke-miterlimit: 10"/>
    <rect id="b321" x="74.35" y="312.59" width="19.29" height="19.19" style="fill: none;stroke: #9c0;stroke-miterlimit: 10"/>
    <rect id="b320" x="35.76" y="312.59" width="19.29" height="19.19" style="fill: none;stroke: #9c0;stroke-miterlimit: 10"/>
    <rect id="b721" x="305.86" y="312.59" width="19.29" height="19.19" style="fill: none;stroke: #9c0;stroke-miterlimit: 10"/>
    <rect id="b1621" x="836.4" y="312.59" width="19.29" height="19.19" style="fill: none;stroke: #9c0;stroke-miterlimit: 10"/>
    <rect id="b418" x="93.64" y="331.78" width="19.29" height="19.19" style="fill: none;stroke: #9c0;stroke-miterlimit: 10"/>
    <rect id="b319" x="74.35" y="331.78" width="19.29" height="19.19" style="fill: none;stroke: #9c0;stroke-miterlimit: 10"/>
    <rect id="b318" x="35.76" y="331.78" width="19.29" height="19.19" style="fill: none;stroke: #9c0;stroke-miterlimit: 10"/>
    <rect id="b519" x="190.1" y="312.59" width="38.59" height="38.38" style="fill: none;stroke: #9c0;stroke-miterlimit: 10"/>
    <rect id="b518" x="151.52" y="312.59" width="19.29" height="38.38" style="fill: none;stroke: #9c0;stroke-miterlimit: 10"/>
    <rect id="b419" x="132.23" y="312.59" width="19.29" height="38.38" style="fill: none;stroke: #9c0;stroke-miterlimit: 10"/>
    <rect id="b719" x="305.86" y="331.78" width="19.29" height="19.19" style="fill: none;stroke: #9c0;stroke-miterlimit: 10"/>
    <rect id="b619" x="247.98" y="312.59" width="38.59" height="38.38" style="fill: none;stroke: #9c0;stroke-miterlimit: 10"/>
    <rect id="b819" x="363.74" y="312.59" width="38.59" height="38.38" style="fill: none;stroke: #9c0;stroke-miterlimit: 10"/>
    <rect id="b919" x="431.26" y="312.59" width="38.59" height="38.38" style="fill: none;stroke: #9c0;stroke-miterlimit: 10"/>
    <rect id="b1019" x="489.14" y="312.59" width="38.59" height="38.38" style="fill: none;stroke: #9c0;stroke-miterlimit: 10"/>
    <rect id="b1419" x="720.65" y="312.59" width="38.59" height="38.38" style="fill: none;stroke: #9c0;stroke-miterlimit: 10"/>
    <rect id="b1319" x="662.77" y="312.59" width="38.59" height="38.38" style="fill: none;stroke: #9c0;stroke-miterlimit: 10"/>
    <rect id="b1619" x="836.4" y="331.78" width="19.29" height="19.19" style="fill: none;stroke: #9c0;stroke-miterlimit: 10"/>
    <rect id="b316" x="35.76" y="350.97" width="19.29" height="19.19" style="fill: none;stroke: #9c0;stroke-miterlimit: 10"/>
    <rect id="b717" x="305.86" y="350.97" width="19.29" height="19.19" style="fill: none;stroke: #9c0;stroke-miterlimit: 10"/>
    <rect id="b816" x="325.15" y="312.59" width="19.29" height="57.57" style="fill: none;stroke: #9c0;stroke-miterlimit: 10"/>
    <rect id="b1517" x="778.53" y="312.59" width="38.59" height="57.57" style="fill: none;stroke: #9c0;stroke-miterlimit: 10"/>
    <rect id="b1617" x="836.4" y="350.97" width="19.29" height="19.19" style="fill: none;stroke: #9c0;stroke-miterlimit: 10"/>
    <rect id="b309" x="74.35" y="427.73" width="19.29" height="19.19" style="fill: none;stroke: #9c0;stroke-miterlimit: 10"/>
    <rect id="b308" x="35.76" y="427.73" width="19.29" height="19.19" style="fill: none;stroke: #9c0;stroke-miterlimit: 10"/>
    <rect id="b608" x="209.4" y="408.54" width="19.29" height="38.38" style="fill: none;stroke: #9c0;stroke-miterlimit: 10"/>
    <rect id="b509" x="190.1" y="427.73" width="19.29" height="19.19" style="fill: none;stroke: #9c0;stroke-miterlimit: 10"/>
    <rect id="b508" x="151.52" y="427.73" width="19.29" height="19.19" style="fill: none;stroke: #9c0;stroke-miterlimit: 10"/>
    <rect id="b409" x="132.23" y="427.73" width="19.29" height="19.19" style="fill: none;stroke: #9c0;stroke-miterlimit: 10"/>
    <rect id="b709" x="305.86" y="408.54" width="38.59" height="38.38" style="fill: none;stroke: #9c0;stroke-miterlimit: 10"/>
    <rect id="b708" x="267.27" y="408.54" width="19.29" height="38.38" style="fill: none;stroke: #9c0;stroke-miterlimit: 10"/>
    <rect id="b609" x="247.98" y="408.54" width="19.29" height="38.38" style="fill: none;stroke: #9c0;stroke-miterlimit: 10"/>
    <rect id="b1108" x="508.43" y="427.73" width="19.29" height="19.19" style="fill: none;stroke: #9c0;stroke-miterlimit: 10"/>
    <rect id="b1009" x="489.14" y="370.16" width="19.29" height="76.76" style="fill: none;stroke: #9c0;stroke-miterlimit: 10"/>
    <rect id="b1608" x="797.82" y="427.73" width="19.29" height="19.19" style="fill: none;stroke: #9c0;stroke-miterlimit: 10"/>
    <rect id="b1509" x="778.53" y="427.73" width="19.29" height="19.19" style="fill: none;stroke: #9c0;stroke-miterlimit: 10"/>
    <rect id="b1609" x="836.4" y="427.73" width="19.29" height="19.19" style="fill: none;stroke: #9c0;stroke-miterlimit: 10"/>
    <rect id="b327" x="74.35" y="247.24" width="19.29" height="38.84" style="fill: none;stroke: #9c0;stroke-miterlimit: 10"/>
    <rect id="b1219" x="604.89" y="312.59" width="38.59" height="38.38" style="fill: none;stroke: #9c0;stroke-miterlimit: 10"/>
    <rect id="b314" x="35.76" y="370.16" width="19.29" height="19.19" style="fill: none;stroke: #9c0;stroke-miterlimit: 10"/>
    <rect id="b614" x="209.4" y="370.16" width="19.29" height="19.19" style="fill: none;stroke: #9c0;stroke-miterlimit: 10"/>
    <rect id="b515" x="190.1" y="370.16" width="19.29" height="19.19" style="fill: none;stroke: #9c0;stroke-miterlimit: 10"/>
    <rect id="b514" x="151.52" y="370.16" width="19.29" height="19.19" style="fill: none;stroke: #9c0;stroke-miterlimit: 10"/>
    <rect id="b415" x="132.23" y="370.16" width="19.29" height="19.19" style="fill: none;stroke: #9c0;stroke-miterlimit: 10"/>
    <rect id="b715" x="305.86" y="370.16" width="19.29" height="19.19" style="fill: none;stroke: #9c0;stroke-miterlimit: 10"/>
    <rect id="b814" x="325.15" y="370.16" width="19.29" height="19.19" style="fill: none;stroke: #9c0;stroke-miterlimit: 10"/>
    <rect id="b1114" x="508.43" y="370.16" width="19.29" height="19.19" style="fill: none;stroke: #9c0;stroke-miterlimit: 10"/>
    <rect id="b1115" x="547.02" y="312.59" width="38.59" height="76.76" style="fill: none;stroke: #9c0;stroke-miterlimit: 10"/>
    <rect id="b1615" x="836.4" y="370.16" width="19.29" height="19.19" style="fill: none;stroke: #9c0;stroke-miterlimit: 10"/>
    <rect id="b412" x="93.64" y="389.35" width="19.29" height="19.19" style="fill: none;stroke: #9c0;stroke-miterlimit: 10"/>
    <rect id="b313" x="74.35" y="389.35" width="19.29" height="19.19" style="fill: none;stroke: #9c0;stroke-miterlimit: 10"/>
    <rect id="b312" x="35.76" y="389.35" width="19.29" height="19.19" style="fill: none;stroke: #9c0;stroke-miterlimit: 10"/>
    <rect id="b612" x="209.4" y="389.35" width="19.29" height="19.19" style="fill: none;stroke: #9c0;stroke-miterlimit: 10"/>
    <rect id="b513" x="190.1" y="389.35" width="19.29" height="19.19" style="fill: none;stroke: #9c0;stroke-miterlimit: 10"/>
    <rect id="b512" x="151.52" y="389.35" width="19.29" height="19.19" style="fill: none;stroke: #9c0;stroke-miterlimit: 10"/>
    <rect id="b413" x="132.23" y="389.35" width="19.29" height="19.19" style="fill: none;stroke: #9c0;stroke-miterlimit: 10"/>
    <rect id="b712" x="267.27" y="389.35" width="19.29" height="19.19" style="fill: none;stroke: #9c0;stroke-miterlimit: 10"/>
    <rect id="b613" x="247.98" y="389.35" width="19.29" height="19.19" style="fill: none;stroke: #9c0;stroke-miterlimit: 10"/>
    <rect id="b813" x="363.74" y="370.16" width="38.59" height="38.38" style="fill: none;stroke: #9c0;stroke-miterlimit: 10"/>
    <rect id="b913" x="431.26" y="389.35" width="38.59" height="19.19" style="fill: none;stroke: #9c0;stroke-miterlimit: 10"/>
    <rect id="b1413" x="720.65" y="370.16" width="38.59" height="38.38" style="fill: none;stroke: #9c0;stroke-miterlimit: 10"/>
    <rect id="b1613" x="836.4" y="389.35" width="19.29" height="19.19" style="fill: none;stroke: #9c0;stroke-miterlimit: 10"/>
    <rect id="b410" x="93.64" y="408.54" width="19.29" height="19.19" style="fill: none;stroke: #9c0;stroke-miterlimit: 10"/>
    <rect id="b311" x="74.35" y="408.54" width="19.29" height="19.19" style="fill: none;stroke: #9c0;stroke-miterlimit: 10"/>
    <rect id="b310" x="35.76" y="408.54" width="19.29" height="19.19" style="fill: none;stroke: #9c0;stroke-miterlimit: 10"/>
    <rect id="b511" x="190.1" y="408.54" width="19.29" height="19.19" style="fill: none;stroke: #9c0;stroke-miterlimit: 10"/>
    <rect id="b510" x="151.52" y="408.54" width="19.29" height="19.19" style="fill: none;stroke: #9c0;stroke-miterlimit: 10"/>
    <rect id="b411" x="132.23" y="408.54" width="19.29" height="19.19" style="fill: none;stroke: #9c0;stroke-miterlimit: 10"/>
    <rect id="b1110" x="508.43" y="389.35" width="19.29" height="38.38" style="fill: none;stroke: #9c0;stroke-miterlimit: 10"/>
    <rect id="b_VIBE" x="604.89" y="370.16" width="96.46" height="57.57" style="fill: none;stroke: #9c0;stroke-miterlimit: 10"/>
    <rect id="b1111" x="547.02" y="408.54" width="38.59" height="19.19" style="fill: none;stroke: #9c0;stroke-miterlimit: 10"/>
    <rect id="b1610" x="797.82" y="408.54" width="19.29" height="19.19" style="fill: none;stroke: #9c0;stroke-miterlimit: 10"/>
    <rect id="b1511" x="778.53" y="408.54" width="19.29" height="19.19" style="fill: none;stroke: #9c0;stroke-miterlimit: 10"/>
    <rect id="b1611" x="836.4" y="408.54" width="19.29" height="19.19" style="fill: none;stroke: #9c0;stroke-miterlimit: 10"/>
    <rect id="b406" x="93.64" y="427.73" width="19.29" height="38.38" style="fill: none;stroke: #9c0;stroke-miterlimit: 10"/>
    <rect id="b307" x="74.35" y="446.92" width="19.29" height="19.19" style="fill: none;stroke: #9c0;stroke-miterlimit: 10"/>
    <rect id="b706" x="267.27" y="446.92" width="19.29" height="19.19" style="fill: none;stroke: #9c0;stroke-miterlimit: 10"/>
    <rect id="b607" x="247.98" y="446.92" width="19.29" height="19.19" style="fill: none;stroke: #9c0;stroke-miterlimit: 10"/>
    <rect id="b1306" x="624.19" y="446.92" width="19.29" height="19.19" style="fill: none;stroke: #9c0;stroke-miterlimit: 10"/>
    <rect id="b1107" x="547.02" y="427.73" width="38.59" height="38.38" style="fill: none;stroke: #9c0;stroke-miterlimit: 10"/>
    <rect id="b1407" x="720.65" y="427.73" width="38.59" height="38.38" style="fill: none;stroke: #9c0;stroke-miterlimit: 10"/>
    <rect id="b1406" x="682.06" y="446.92" width="19.29" height="19.19" style="fill: none;stroke: #9c0;stroke-miterlimit: 10"/>
    <rect id="b1307" x="662.77" y="446.92" width="19.29" height="19.19" style="fill: none;stroke: #9c0;stroke-miterlimit: 10"/>
    <rect id="b1606" x="797.82" y="446.92" width="19.29" height="19.19" style="fill: none;stroke: #9c0;stroke-miterlimit: 10"/>
    <rect id="b1507" x="778.53" y="446.92" width="19.29" height="19.19" style="fill: none;stroke: #9c0;stroke-miterlimit: 10"/>
    <rect id="b1607" x="836.4" y="446.92" width="19.29" height="19.19" style="fill: none;stroke: #9c0;stroke-miterlimit: 10"/>
    <rect id="b304" x="35.76" y="446.92" width="19.29" height="38.38" style="fill: none;stroke: #9c0;stroke-miterlimit: 10"/>
    <rect id="b604" x="209.4" y="466.11" width="19.29" height="19.19" style="fill: none;stroke: #9c0;stroke-miterlimit: 10"/>
    <rect id="b505" x="190.1" y="466.11" width="19.29" height="19.19" style="fill: none;stroke: #9c0;stroke-miterlimit: 10"/>
    <rect id="b805" x="363.74" y="427.73" width="38.59" height="57.57" style="fill: none;stroke: #9c0;stroke-miterlimit: 10"/>
    <rect id="b905" x="431.26" y="427.73" width="38.59" height="57.57" style="fill: none;stroke: #9c0;stroke-miterlimit: 10"/>
    <rect id="b1304" x="624.19" y="466.11" width="19.29" height="19.19" style="fill: none;stroke: #9c0;stroke-miterlimit: 10"/>
    <rect id="b1205" x="604.89" y="446.92" width="19.29" height="38.38" style="fill: none;stroke: #9c0;stroke-miterlimit: 10"/>
    <rect id="b1404" x="682.06" y="466.11" width="19.29" height="19.19" style="fill: none;stroke: #9c0;stroke-miterlimit: 10"/>
    <rect id="b1305" x="662.77" y="466.11" width="19.29" height="19.19" style="fill: none;stroke: #9c0;stroke-miterlimit: 10"/>
    <rect id="b1605" x="836.4" y="466.11" width="19.29" height="19.19" style="fill: none;stroke: #9c0;stroke-miterlimit: 10"/>
    <rect id="b301" x="74.35" y="485.3" width="38.59" height="38.38" style="fill: none;stroke: #9c0;stroke-miterlimit: 10"/>
    <rect id="b302" x="35.76" y="485.3" width="19.29" height="19.19" style="fill: none;stroke: #9c0;stroke-miterlimit: 10"/>
    <rect id="b602" x="209.4" y="485.3" width="19.29" height="19.19" style="fill: none;stroke: #9c0;stroke-miterlimit: 10"/>
    <rect id="b703" x="305.86" y="466.11" width="38.59" height="38.38" style="fill: none;stroke: #9c0;stroke-miterlimit: 10"/>
    <rect id="b1003" x="489.14" y="466.11" width="38.59" height="38.38" style="fill: none;stroke: #9c0;stroke-miterlimit: 10"/>
    <rect id="b1603" x="836.4" y="485.3" width="19.29" height="19.19" style="fill: none;stroke: #9c0;stroke-miterlimit: 10"/>
    <rect id="b300" x="35.76" y="504.49" width="19.29" height="19.19" style="fill: none;stroke: #9c0;stroke-miterlimit: 10"/>
    <rect id="b600" x="209.4" y="504.49" width="19.29" height="19.19" style="fill: none;stroke: #9c0;stroke-miterlimit: 10"/>
    <rect id="b501" x="190.1" y="485.3" width="19.29" height="38.38" style="fill: none;stroke: #9c0;stroke-miterlimit: 10"/>
    <rect id="b401" x="132.23" y="466.11" width="38.59" height="57.57" style="fill: none;stroke: #9c0;stroke-miterlimit: 10"/>
    <rect id="b601" x="247.98" y="485.3" width="38.59" height="38.38" style="fill: none;stroke: #9c0;stroke-miterlimit: 10"/>
    <rect id="b1300" x="624.19" y="485.3" width="19.29" height="38.38" style="fill: none;stroke: #9c0;stroke-miterlimit: 10"/>
    <rect id="b1201" x="604.89" y="485.3" width="19.29" height="38.38" style="fill: none;stroke: #9c0;stroke-miterlimit: 10"/>
    <rect id="b1101" x="547.02" y="485.3" width="38.59" height="38.38" style="fill: none;stroke: #9c0;stroke-miterlimit: 10"/>
    <rect id="b1401" x="720.65" y="485.3" width="19.29" height="38.38" style="fill: none;stroke: #9c0;stroke-miterlimit: 10"/>
    <rect id="b1400" x="682.06" y="485.3" width="19.29" height="38.38" style="fill: none;stroke: #9c0;stroke-miterlimit: 10"/>
    <rect id="b1301" x="662.77" y="485.3" width="19.29" height="38.38" style="fill: none;stroke: #9c0;stroke-miterlimit: 10"/>
    <rect id="b1501" x="778.53" y="485.3" width="38.59" height="38.38" style="fill: none;stroke: #9c0;stroke-miterlimit: 10"/>
    <rect id="b1500" x="739.94" y="485.3" width="19.29" height="38.38" style="fill: none;stroke: #9c0;stroke-miterlimit: 10"/>
    <rect id="b1601" x="836.4" y="504.49" width="19.29" height="19.19" style="fill: none;stroke: #9c0;stroke-miterlimit: 10"/>
    <rect id="b_FOOD1" x="35.76" y="34.61" width="60.01" height="67.97" style="fill: none;stroke: #9c0;stroke-miterlimit: 10"/>
    <rect id="b1645" x="821.73" y="45.74" width="48.63" height="48.63" transform="translate(198.27 618.77) rotate(-45)" style="fill: none;stroke: #9c0;stroke-miterlimit: 10"/>
  </g>
</svg>
